<?xml version="1.0" standalone="no"?>
<!DOCTYPE svg PUBLIC "-//W3C//DTD SVG 20010904//EN"
 "http://www.w3.org/TR/2001/REC-SVG-20010904/DTD/svg10.dtd">
<svg version="1.0" xmlns="http://www.w3.org/2000/svg"
 width="3840.000000pt" height="2160.000000pt" viewBox="0 0 3840.000000 2160.000000"
 preserveAspectRatio="xMidYMid meet">
<metadata>
Created by potrace 1.16, written by Peter Selinger 2001-2019
</metadata>
<g transform="translate(0.000000,2160.000000) scale(0.100000,-0.100000)"
fill="#000000" stroke="none">
<path d="M6924 16658 c-3 -4 -42 -8 -87 -8 -246 0 -786 -75 -1077 -150 -19 -5
-53 -11 -75 -15 -22 -3 -60 -12 -85 -19 -25 -8 -79 -24 -120 -36 -98 -28 -337
-108 -375 -125 -16 -7 -41 -16 -55 -20 -34 -10 -146 -53 -195 -75 -22 -10 -69
-30 -105 -45 -36 -15 -91 -40 -122 -56 -32 -16 -60 -29 -63 -28 -5 0 -147 -73
-285 -148 -131 -72 -478 -288 -500 -312 -3 -4 -14 -12 -25 -19 -49 -30 -223
-158 -235 -172 -3 -3 -57 -48 -120 -99 -301 -244 -559 -502 -815 -816 -49 -60
-94 -115 -100 -122 -5 -6 -32 -43 -60 -82 -27 -39 -53 -71 -57 -71 -4 0 -8 -6
-8 -13 0 -7 -9 -23 -19 -34 -42 -45 -281 -421 -352 -554 -19 -37 -191 -379
-208 -415 -76 -164 -235 -589 -277 -739 -63 -229 -124 -487 -150 -635 -52
-292 -73 -477 -80 -707 -3 -115 -10 -224 -15 -243 -12 -45 -12 -155 0 -200 5
-19 12 -129 16 -244 5 -199 27 -411 61 -603 8 -49 19 -110 24 -138 29 -170
135 -581 193 -750 78 -227 156 -429 229 -589 15 -35 186 -377 207 -415 73
-134 314 -515 347 -548 7 -7 16 -22 19 -33 3 -11 10 -20 15 -20 5 0 19 -17 31
-37 13 -21 29 -44 37 -52 7 -8 21 -26 30 -40 9 -14 27 -37 38 -51 12 -14 66
-79 121 -145 241 -291 510 -557 791 -781 53 -43 99 -81 102 -84 3 -3 21 -17
42 -32 20 -15 42 -34 50 -41 7 -7 20 -16 28 -20 8 -4 33 -21 55 -37 70 -53
158 -114 230 -159 104 -65 327 -201 330 -201 2 0 72 -38 157 -83 85 -46 164
-86 174 -90 15 -4 180 -76 289 -127 11 -5 65 -25 120 -45 55 -20 109 -40 120
-45 27 -12 273 -93 365 -120 41 -12 95 -28 120 -36 25 -7 63 -16 85 -19 22 -4
56 -10 75 -15 290 -74 831 -150 1076 -150 44 0 83 -3 86 -6 7 -6 277 -7 298 0
8 2 80 7 160 10 263 10 636 61 929 128 75 16 146 32 158 33 11 2 32 7 45 11
12 4 30 8 38 9 46 6 484 147 488 158 2 4 10 7 17 7 12 0 171 58 220 80 11 5
97 43 190 86 169 76 319 152 447 225 36 22 71 39 77 39 6 0 11 4 11 10 0 5 11
12 25 16 14 3 25 10 25 15 0 5 5 9 11 9 6 0 25 11 43 25 18 14 35 25 38 25 17
0 407 268 438 300 8 9 42 36 75 61 33 24 73 56 90 70 16 14 86 75 155 135 288
249 632 624 852 926 109 150 184 262 265 396 25 42 49 79 52 82 3 3 19 30 35
60 16 30 34 62 41 70 6 8 57 105 111 215 110 221 210 449 274 625 23 63 45
125 50 136 11 28 115 377 129 434 10 41 33 151 75 350 22 105 61 358 83 535
26 217 26 900 0 1130 -32 284 -52 403 -137 810 -11 55 -32 138 -46 185 -42
141 -125 403 -139 435 -7 17 -25 64 -39 105 -15 41 -32 84 -36 95 -151 348
-185 418 -367 754 -14 25 -41 70 -60 100 -20 31 -46 72 -58 91 -90 144 -155
240 -193 286 -5 6 -22 29 -36 53 -15 23 -34 50 -44 60 -9 9 -30 35 -47 56 -72
94 -125 161 -138 175 -8 8 -61 69 -119 135 -152 173 -462 474 -622 606 -17 13
-40 34 -52 47 -12 12 -26 22 -32 22 -6 0 -15 6 -19 13 -4 7 -18 19 -29 27 -12
8 -66 49 -120 91 -100 76 -209 151 -364 250 -47 29 -87 56 -90 59 -8 8 -40 27
-90 53 -25 13 -83 46 -130 72 -118 68 -292 154 -445 220 -72 31 -148 65 -170
75 -138 61 -682 240 -697 228 -2 -1 -13 4 -25 10 -12 7 -37 14 -55 16 -19 3
-95 18 -168 35 -318 73 -631 114 -983 131 -328 15 -388 17 -393 8z m426 -278
c393 -22 670 -65 1085 -165 225 -55 599 -180 780 -260 17 -8 82 -37 145 -65
131 -58 328 -160 475 -245 55 -32 109 -63 119 -69 11 -6 25 -14 30 -19 6 -4
74 -49 151 -100 234 -154 349 -243 610 -471 92 -81 424 -411 460 -457 11 -15
74 -91 140 -170 147 -176 193 -236 310 -409 420 -624 697 -1278 850 -2009 80
-383 115 -733 115 -1140 0 -407 -47 -854 -125 -1186 -99 -425 -183 -685 -335
-1045 -52 -124 -216 -450 -282 -560 -11 -19 -32 -55 -46 -80 -121 -217 -422
-626 -640 -870 -247 -276 -645 -632 -918 -820 -120 -83 -236 -160 -240 -160
-3 0 -20 -10 -37 -23 -40 -27 -66 -44 -92 -57 -11 -6 -33 -19 -50 -30 -28 -18
-71 -42 -167 -95 -391 -213 -881 -401 -1303 -500 -60 -14 -128 -29 -150 -35
-204 -47 -499 -89 -775 -111 -208 -15 -765 -7 -960 15 -145 17 -420 59 -495
76 -22 6 -94 21 -160 36 -807 174 -1610 570 -2290 1128 -164 134 -182 151
-415 386 -426 428 -746 873 -1018 1415 -110 220 -152 313 -230 520 -177 471
-273 870 -339 1415 -25 209 -25 936 0 1160 105 927 400 1753 895 2505 216 327
441 603 718 879 107 107 242 233 314 292 19 16 40 33 46 39 24 21 109 91 135
110 15 11 60 45 100 76 112 84 240 175 311 219 156 97 302 182 413 240 66 35
144 76 174 92 54 28 294 132 431 186 279 110 624 207 1000 281 161 31 550 76
735 84 165 7 362 6 525 -3z"/>
<path d="M6890 16153 c-83 -9 -83 -8 -76 -66 15 -120 36 -377 36 -436 0 -124
-53 -185 -160 -185 -63 0 -99 19 -128 68 -27 46 -30 60 -52 326 -12 135 -23
247 -26 250 -8 7 -127 0 -136 -9 -4 -4 3 -136 16 -294 27 -322 34 -348 109
-412 66 -57 127 -71 252 -58 82 9 115 17 149 37 57 33 102 88 122 149 17 50
15 87 -25 557 -7 82 -6 81 -81 73z"/>
<path d="M7487 16033 c-24 -157 -75 -528 -83 -599 -7 -70 -10 -67 83 -79 l52
-7 5 44 c4 23 20 139 36 257 17 118 30 227 30 243 0 38 14 36 27 -4 37 -111
196 -574 198 -576 4 -4 179 -31 182 -29 1 2 49 341 84 594 12 89 19 168 16
176 -3 9 -28 16 -68 21 -34 3 -63 5 -65 3 -4 -4 -73 -490 -72 -507 3 -37 -3
-61 -13 -58 -6 2 -53 127 -104 278 -51 151 -97 287 -103 301 -11 28 -22 32
-133 44 l-56 7 -16 -109z"/>
<path d="M8606 15921 c-2 -3 -31 -96 -65 -206 -56 -181 -126 -406 -153 -493
-5 -18 -8 -35 -6 -37 8 -7 134 -42 140 -39 3 2 10 19 13 37 7 34 33 118 95
312 35 108 99 319 114 370 5 17 -1 23 -31 35 -54 19 -102 29 -107 21z"/>
<path d="M5150 15786 c-30 -13 -54 -27 -53 -32 1 -5 50 -142 108 -304 59 -162
116 -323 128 -357 12 -35 25 -63 29 -63 8 0 411 150 416 154 1 2 -4 16 -13 32
-8 16 -15 37 -15 46 0 9 -4 19 -9 22 -5 3 -66 -14 -136 -39 -69 -25 -132 -45
-139 -45 -6 0 -22 28 -35 63 -13 34 -45 123 -73 197 -27 74 -55 155 -63 180
-26 87 -61 165 -76 167 -8 1 -39 -9 -69 -21z"/>
<path d="M9159 15723 c0 -10 -2 -27 -4 -38 -2 -11 -22 -146 -45 -300 -22 -154
-46 -319 -54 -367 -9 -64 -10 -90 -2 -97 6 -5 44 -25 85 -46 l74 -37 289 292
c159 161 288 293 286 295 -10 7 -118 55 -126 55 -5 0 -106 -99 -223 -220 -118
-121 -219 -220 -224 -220 -6 0 6 101 32 253 23 138 45 281 48 317 l6 65 -62
30 c-34 17 -66 32 -71 33 -4 2 -8 -5 -9 -15z"/>
<path d="M4360 15399 c-30 -18 -56 -33 -58 -34 -3 -3 74 -149 150 -285 14 -25
40 -72 58 -105 51 -92 159 -283 166 -293 1 -2 24 10 51 26 27 16 71 42 99 57
27 15 93 52 146 82 l96 54 -16 32 c-9 18 -20 34 -24 35 -5 2 -8 10 -8 18 0 8
-4 14 -9 14 -5 0 -64 -31 -131 -70 -67 -38 -125 -70 -128 -70 -4 0 -23 30 -43
68 -101 186 -279 497 -286 499 -4 2 -33 -11 -63 -28z"/>
<path d="M6720 15179 c-326 -28 -675 -98 -975 -196 -131 -42 -299 -105 -373
-139 -29 -13 -55 -24 -57 -24 -8 0 -274 -133 -340 -170 -151 -84 -357 -216
-485 -311 -180 -133 -474 -401 -631 -574 -76 -84 -289 -344 -289 -353 0 -4
-10 -19 -22 -32 -20 -22 -65 -88 -144 -210 -107 -166 -228 -393 -314 -590
-180 -413 -284 -801 -347 -1295 -22 -176 -25 -759 -5 -925 15 -123 58 -403 73
-475 35 -171 166 -596 220 -712 10 -24 19 -45 19 -48 0 -2 19 -44 41 -92 23
-49 63 -133 89 -189 146 -311 440 -739 701 -1019 206 -221 455 -442 659 -584
302 -210 559 -355 845 -475 61 -26 119 -51 130 -56 44 -20 327 -111 450 -144
302 -80 534 -115 900 -137 406 -23 881 26 1315 136 113 28 471 151 590 203 96
41 358 170 410 201 8 5 53 31 100 57 47 26 99 58 116 71 17 13 36 23 42 23 7
0 12 5 12 10 0 6 6 10 14 10 8 0 16 4 18 8 2 5 46 37 98 73 52 35 97 66 100
69 3 3 59 49 125 102 341 274 654 616 893 975 122 184 250 414 336 603 64 140
72 161 106 250 17 47 38 101 45 120 50 131 128 418 170 630 55 282 69 446 69
830 0 366 -10 504 -59 780 -55 306 -181 726 -285 948 -17 35 -30 65 -30 68 0
16 -128 267 -194 383 -206 358 -420 637 -710 926 -240 240 -426 394 -671 556
-102 68 -282 179 -289 179 -2 0 -41 21 -87 46 -378 210 -930 392 -1389 459
-290 42 -722 57 -990 34z m590 -259 c617 -36 1214 -207 1735 -499 39 -22 86
-48 107 -60 56 -31 265 -169 344 -227 260 -192 537 -456 740 -704 133 -164
306 -410 374 -535 18 -33 36 -64 40 -70 5 -5 40 -75 80 -155 39 -80 77 -156
84 -170 29 -55 116 -283 161 -420 91 -283 145 -549 186 -915 15 -139 15 -596
0 -735 -44 -388 -92 -621 -195 -933 -51 -155 -123 -344 -152 -397 -7 -14 -41
-81 -74 -150 -52 -105 -105 -201 -173 -315 -46 -77 -199 -298 -265 -383 -171
-221 -412 -468 -637 -653 -148 -122 -397 -297 -512 -359 -21 -12 -60 -34 -88
-50 -27 -16 -106 -57 -175 -91 -69 -34 -133 -65 -142 -70 -57 -29 -266 -109
-406 -155 -804 -267 -1717 -268 -2532 -2 -318 104 -686 278 -935 443 -343 227
-585 433 -829 705 -95 106 -178 204 -229 270 -49 63 -67 90 -67 98 0 6 -4 12
-9 14 -42 16 -358 571 -431 759 -12 30 -27 68 -35 84 -42 97 -123 342 -164
495 -53 200 -97 451 -122 695 -15 147 -14 594 1 725 31 280 67 492 115 680 24
96 119 393 145 455 7 17 19 44 26 60 7 17 22 54 34 84 33 85 183 376 255 496
78 129 165 259 177 263 4 2 8 8 8 14 0 37 350 441 517 596 376 348 731 583
1188 785 411 182 911 301 1370 326 207 12 291 12 485 1z"/>
<path d="M4303 11728 c3 -1829 5 -2041 20 -2110 45 -216 111 -439 168 -565 11
-23 19 -44 19 -47 0 -11 101 -212 130 -261 17 -27 35 -62 41 -77 6 -16 15 -28
20 -28 5 0 9 -5 9 -11 0 -11 134 -214 156 -237 8 -7 14 -17 14 -20 0 -4 10
-18 23 -32 12 -14 49 -59 82 -100 33 -41 62 -77 65 -80 3 -3 25 -27 49 -55 91
-103 274 -285 388 -386 65 -57 120 -106 123 -109 3 -3 50 -41 105 -86 187
-150 463 -342 685 -476 221 -133 641 -348 681 -348 33 0 583 289 704 370 22
15 56 36 75 48 154 93 564 388 666 479 18 15 56 48 85 73 132 111 364 338 473
461 145 164 304 383 420 581 149 256 260 557 322 878 18 90 19 203 22 2133 l2
2037 -2775 0 -2776 0 4 -2032z m5277 752 l0 -1010 -2505 0 -2505 0 0 1010 0
1010 2505 0 2505 0 0 -1010z m-2632 -1461 l2 -171 -27 6 c-16 3 -82 9 -148 12
-94 5 -173 0 -365 -21 -210 -23 -294 -27 -585 -30 l-340 -2 -3 -182 -2 -181
-135 0 -135 0 0 -159 0 -158 133 0 132 0 0 -219 0 -219 -132 -3 -133 -3 0
-154 0 -154 133 -3 132 -3 0 -175 0 -175 -132 -3 -133 -3 0 -159 0 -159 131
-3 131 -3 -2 -218 -1 -219 533 6 c293 4 605 9 694 12 l160 5 47 -54 47 -55 0
-565 0 -564 -62 33 c-35 18 -77 39 -95 48 -39 18 -246 138 -253 146 -3 3 -27
19 -55 35 -76 43 -387 250 -412 274 -12 12 -27 21 -33 21 -5 0 -10 4 -10 8 0
4 -13 16 -30 25 -16 10 -36 24 -44 32 -8 8 -49 42 -93 77 -315 249 -634 585
-849 895 -132 190 -244 408 -324 635 -31 89 -95 341 -106 423 -4 28 -9 376
-11 775 l-4 725 1188 -2 1188 -3 3 -171z m2632 -513 c0 -738 -4 -811 -51
-1013 -23 -102 -68 -253 -79 -268 -4 -5 -11 -21 -15 -35 -9 -32 -36 -92 -92
-205 -75 -153 -137 -254 -257 -420 -259 -359 -674 -747 -1146 -1070 -47 -32
-106 -73 -132 -92 -26 -18 -50 -33 -52 -33 -2 0 -57 -33 -123 -74 -147 -91
-445 -257 -452 -251 -2 3 -4 260 -3 571 l0 567 54 54 53 55 185 -5 c102 -3
192 -7 200 -10 40 -15 310 -29 638 -34 l362 -6 0 192 c0 105 3 191 8 191 4 1
57 2 117 3 l110 2 3 163 2 162 -120 0 -120 0 0 175 0 174 128 3 127 3 2 158 2
157 -129 0 -130 0 0 220 0 220 120 0 121 0 -3 158 -3 157 -117 3 -118 3 0 214
0 215 -315 0 c-174 0 -357 4 -408 10 -51 5 -182 19 -292 31 -194 21 -277 21
-422 3 l-53 -7 0 177 0 176 1200 0 1200 0 0 -694z m-2668 84 l38 -11 2 -1020
c2 -561 2 -1022 0 -1023 -1 -2 -26 3 -54 11 -61 15 -177 17 -338 3 -367 -30
-550 -41 -675 -38 l-140 3 0 1013 0 1012 215 4 c118 3 262 10 320 16 359 40
560 50 632 30z m793 -11 c112 -14 259 -23 433 -26 l262 -5 0 -1019 0 -1019
-177 0 c-101 0 -267 9 -383 20 -370 37 -556 38 -644 4 -15 -6 -16 75 -16 1009
l0 1015 28 11 c90 36 255 40 497 10z"/>
<path d="M5853 13352 l-803 -2 0 -538 c0 -490 2 -543 18 -603 21 -74 53 -134
105 -195 34 -38 262 -193 411 -277 39 -22 76 -46 84 -53 7 -8 18 -12 23 -9 5
4 9 2 9 -4 0 -6 11 -13 25 -17 14 -3 25 -10 25 -15 0 -5 25 -21 55 -36 l55
-27 73 38 c111 60 328 190 467 281 132 86 178 132 223 221 48 94 51 145 43
713 -3 289 -7 525 -9 525 -1 1 -363 0 -804 -2z m547 -392 l0 -120 -540 0 -540
0 0 123 0 122 540 -3 540 -2 0 -120z m0 -545 c0 -172 -4 -187 -62 -241 -45
-43 -458 -294 -483 -294 -8 0 -248 146 -385 236 -58 37 -106 77 -123 101 -27
38 -27 41 -27 196 l0 157 540 0 540 0 0 -155z"/>
<path d="M7560 12806 c0 -626 0 -627 79 -737 39 -54 120 -129 139 -129 6 0 12
-4 14 -8 4 -10 410 -266 501 -316 53 -29 71 -35 82 -26 8 6 33 19 57 28 24 9
110 58 192 107 81 50 160 97 175 105 16 8 36 23 45 33 10 9 24 17 32 17 8 0
14 4 14 8 0 5 19 19 43 32 58 33 109 68 127 88 38 41 82 121 100 180 19 61 20
95 20 618 l0 554 -810 0 -810 0 0 -554z m1350 68 c0 -169 -3 -214 -12 -208 -7
5 -132 86 -277 182 l-263 174 -42 -29 c-22 -16 -88 -63 -146 -103 -58 -41
-156 -111 -219 -157 -63 -45 -118 -80 -123 -77 -9 6 -11 418 -1 427 3 4 249 7
545 7 l538 0 0 -216z m-265 -373 c126 -84 238 -160 248 -169 9 -8 17 -28 17
-44 0 -31 -58 -128 -77 -128 -6 0 -13 -4 -15 -8 -5 -13 -367 -232 -383 -232
-3 0 -19 -10 -35 -21 -28 -21 -30 -21 -62 -5 -18 9 -46 25 -63 36 -16 11 -44
26 -62 35 -18 9 -37 23 -44 31 -6 8 -16 14 -21 14 -5 0 -24 11 -42 25 -18 14
-38 25 -44 25 -6 0 -12 4 -14 8 -1 4 -38 30 -80 56 -85 52 -138 113 -138 158
0 24 19 40 148 132 81 58 200 144 265 190 l119 85 26 -17 c15 -9 130 -86 257
-171z"/>
<path d="M6580 10308 c-30 -4 -175 -11 -322 -14 l-268 -7 0 -69 0 -70 278 6
c152 3 311 9 352 13 l75 8 3 66 3 67 -33 3 c-18 2 -58 1 -88 -3z"/>
<path d="M6435 9854 c-66 -7 -193 -13 -282 -13 l-163 -1 0 -65 0 -65 213 0
c118 0 249 4 293 10 43 5 102 11 129 12 l50 3 3 68 3 67 -63 -1 c-35 -1 -117
-7 -183 -15z"/>
<path d="M6524 9418 c-54 -3 -195 -9 -311 -14 l-213 -7 0 -62 0 -62 38 -7 c69
-11 347 -6 467 9 66 8 137 15 158 15 l37 0 0 70 0 70 -38 -3 c-21 -1 -83 -5
-138 -9z"/>
<path d="M6560 8989 c-30 -5 -170 -13 -310 -17 l-255 -7 2 -50 c1 -27 2 -58 2
-68 1 -18 13 -18 234 -14 127 2 283 10 345 18 l113 13 -3 66 -3 65 -35 1 c-19
1 -60 -2 -90 -7z"/>
<path d="M7440 10241 l0 -71 48 -2 c26 -1 65 -3 87 -5 22 -2 160 -6 308 -9
l267 -7 0 60 0 60 -82 6 c-46 4 -126 7 -178 7 -52 0 -138 5 -190 10 -52 5
-132 13 -177 16 l-83 7 0 -72z"/>
<path d="M7440 9799 c0 -38 4 -68 9 -65 5 3 73 -1 152 -9 79 -8 234 -15 344
-15 l200 0 3 65 3 65 -193 0 c-106 0 -254 7 -328 15 -208 22 -190 28 -190 -56z"/>
<path d="M7440 9362 l0 -68 183 -12 c100 -7 262 -12 360 -12 l177 0 0 65 0 65
-227 0 c-158 0 -254 5 -313 15 -47 8 -106 15 -132 15 l-48 0 0 -68z"/>
<path d="M7440 8921 l0 -68 73 -8 c39 -4 97 -9 127 -12 30 -3 158 -8 283 -10
l228 -4 -3 68 -3 68 -180 3 c-99 1 -239 9 -312 17 -73 8 -150 15 -173 15 l-40
0 0 -69z"/>
<path d="M10110 15079 c-30 -39 -68 -88 -85 -109 -173 -218 -325 -422 -321
-429 5 -7 200 -162 335 -265 10 -8 18 -4 33 14 10 14 26 33 34 43 18 22 18 30
-3 43 -34 21 -188 146 -200 161 -10 13 -4 26 35 77 26 33 56 71 68 84 l21 24
54 -42 c30 -23 78 -60 107 -82 l53 -42 25 30 c47 56 47 58 3 98 -22 20 -43 36
-46 36 -3 0 -22 15 -42 33 -20 17 -47 39 -61 48 l-24 16 64 82 c60 78 64 81
80 64 10 -10 31 -28 47 -40 15 -12 60 -47 98 -78 l70 -56 37 43 c21 24 37 45
37 48 0 3 -21 21 -46 40 -53 40 -198 153 -228 179 -35 29 -69 51 -80 51 -6 0
-35 -32 -65 -71z"/>
<path d="M3785 15004 c-44 -36 -87 -71 -95 -77 -105 -81 -159 -131 -153 -141
4 -6 103 -129 219 -274 117 -144 221 -274 232 -289 18 -24 22 -26 43 -15 37
18 62 35 79 53 8 8 67 57 130 108 63 52 116 99 118 105 1 6 -13 29 -32 51
l-34 39 -43 -36 c-24 -20 -55 -45 -68 -57 -13 -11 -27 -21 -30 -21 -3 0 -23
-16 -43 -35 -20 -19 -41 -35 -45 -35 -7 0 -82 87 -137 159 -8 10 -4 18 14 33
14 11 34 27 45 36 11 10 48 39 82 66 36 28 60 53 56 60 -16 27 -59 76 -66 76
-4 0 -52 -36 -107 -80 -90 -73 -101 -80 -120 -68 -11 7 -20 15 -20 18 0 3 -11
19 -25 35 -13 17 -28 35 -32 40 -5 6 -14 18 -21 27 -12 14 1 28 102 113 l116
97 -31 39 c-17 21 -36 39 -42 39 -7 0 -48 -30 -92 -66z"/>
<path d="M10868 14523 c-1 -5 -28 -30 -58 -57 -30 -27 -73 -65 -95 -85 -22
-20 -120 -107 -218 -195 -97 -87 -177 -163 -177 -168 0 -4 14 -24 31 -42 16
-19 36 -42 43 -52 12 -16 23 -9 136 91 l122 108 30 -30 c54 -55 50 -88 -31
-238 -39 -71 -71 -133 -71 -138 0 -4 12 -21 28 -39 15 -17 38 -45 52 -60 l25
-29 78 154 c63 126 77 163 77 201 0 25 1 46 3 46 1 0 20 -9 42 -20 41 -21 90
-26 99 -11 3 4 19 11 34 14 63 13 132 101 132 169 0 69 -59 163 -191 309 -69
76 -84 88 -91 72z m125 -295 c9 -20 17 -42 17 -50 0 -29 -40 -76 -73 -87 -46
-15 -84 1 -152 63 l-50 45 80 75 80 75 40 -42 c23 -23 49 -58 58 -79z"/>
<path d="M3101 14378 c-22 -28 -41 -54 -41 -59 0 -5 53 -52 118 -106 64 -54
119 -100 122 -103 5 -5 180 -151 189 -157 2 -2 2 -6 -2 -9 -3 -3 -86 13 -184
36 -98 24 -197 46 -219 51 -23 4 -78 17 -122 28 -44 12 -86 21 -94 21 -7 -1
-31 -24 -53 -52 -22 -28 -46 -57 -53 -65 -8 -7 -12 -20 -9 -27 3 -7 63 -61
134 -119 70 -58 182 -151 248 -207 66 -56 139 -118 163 -137 26 -22 46 -33 50
-27 4 6 25 32 46 58 21 25 37 48 35 49 -25 20 -392 329 -414 350 -30 28 -30
28 -5 22 14 -3 113 -25 220 -50 107 -25 240 -55 294 -67 l99 -21 39 44 c22 24
48 56 59 71 l20 27 -118 98 c-161 134 -155 129 -183 154 -14 11 -45 38 -70 58
-25 20 -47 38 -50 41 -3 3 -44 37 -91 77 l-86 72 -42 -51z"/>
<path d="M11365 13641 c-22 -10 -55 -32 -72 -49 -48 -48 -57 -89 -48 -206 14
-171 13 -185 -18 -212 -32 -27 -86 -32 -127 -11 -46 23 -83 98 -96 194 -2 20
-6 38 -8 41 -2 2 -30 -9 -61 -23 -54 -26 -57 -29 -51 -57 10 -49 91 -211 122
-244 16 -16 51 -41 77 -53 41 -20 60 -23 117 -19 58 4 76 11 117 40 89 63 100
111 79 329 l-9 87 33 32 c29 28 38 32 72 27 22 -3 49 -14 60 -24 23 -20 78
-129 78 -155 0 -29 20 -31 70 -8 l48 22 -10 37 c-15 51 -72 162 -104 201 -56
66 -183 91 -269 51z"/>
<path d="M2491 13430 c-72 -31 -133 -109 -230 -299 l-51 -100 22 -12 c13 -6
46 -24 73 -39 28 -15 122 -65 210 -110 88 -46 206 -107 263 -136 56 -30 108
-54 115 -54 10 0 35 46 63 115 2 6 -59 44 -136 85 -84 45 -140 81 -140 90 0
28 37 76 68 89 26 11 53 10 159 -3 70 -9 140 -19 154 -22 24 -4 29 2 64 66 20
40 33 75 29 80 -17 14 -339 41 -368 30 -42 -16 -46 -13 -46 34 0 80 -31 131
-102 167 -46 24 -115 32 -147 19z m112 -180 c15 -12 29 -36 32 -54 8 -38 -9
-109 -30 -130 -8 -8 -15 -22 -15 -30 0 -23 -8 -21 -86 22 -120 64 -111 53 -88
103 10 24 32 58 48 76 23 28 35 33 71 33 27 0 51 -7 68 -20z"/>
<path d="M11740 12804 c-113 -46 -229 -96 -258 -109 -29 -14 -56 -25 -60 -25
-10 0 -155 -61 -164 -69 -7 -6 26 -98 45 -128 5 -8 32 -1 95 24 48 19 92 38
97 42 6 4 62 29 125 55 63 27 129 54 145 61 17 8 52 21 78 30 27 9 77 30 113
46 72 33 71 29 33 115 -11 24 -25 44 -32 43 -7 0 -104 -38 -217 -85z"/>
<path d="M2175 12493 c-75 -19 -176 -94 -221 -164 -65 -103 -84 -248 -45 -349
47 -125 132 -197 275 -232 77 -19 96 -20 153 -11 131 23 235 97 292 211 107
213 -21 473 -264 536 -57 15 -147 19 -190 9z m156 -164 c10 -5 29 -9 44 -9 37
0 89 -24 123 -57 116 -112 87 -305 -58 -378 -45 -23 -151 -23 -185 -1 -13 9
-33 16 -43 16 -10 0 -40 11 -68 25 -105 54 -164 197 -118 288 32 64 90 110
159 128 35 9 120 2 146 -12z"/>
<path d="M12145 12352 c-11 -2 -35 -8 -53 -14 -36 -11 -35 -4 -17 -98 2 -14
10 -46 17 -72 6 -26 10 -49 7 -51 -2 -2 -107 -29 -234 -61 -362 -89 -395 -98
-395 -108 0 -5 7 -38 16 -74 13 -52 20 -63 33 -59 14 4 269 68 541 134 41 10
78 16 81 12 4 -3 17 -49 29 -101 13 -52 24 -98 26 -102 4 -6 102 16 111 26 5
5 -119 515 -135 553 -4 12 -15 17 -27 15z"/>
<path d="M1743 11372 c-20 -43 -36 -181 -29 -250 15 -170 147 -304 328 -333
217 -35 404 72 463 267 15 51 20 177 9 258 l-7 46 -64 0 c-58 0 -64 -2 -57
-17 4 -10 9 -60 12 -111 4 -85 2 -97 -23 -147 -29 -61 -69 -99 -134 -128 -58
-26 -210 -21 -256 8 -47 29 -105 87 -121 120 -35 75 -35 206 1 275 14 27 14
28 -23 34 -70 11 -86 8 -99 -22z"/>
<path d="M12230 11308 c-74 -50 -173 -117 -220 -149 l-85 -57 -105 -6 c-58 -4
-129 -9 -158 -12 l-54 -6 7 -71 c4 -40 8 -73 9 -74 0 -1 69 2 151 6 l150 8
110 -57 c61 -32 169 -88 240 -124 l130 -67 3 38 c2 21 1 57 -3 80 l-6 41 -164
81 c-91 45 -165 85 -165 90 0 5 7 11 15 15 15 5 101 60 228 144 l67 45 -1 56
c-1 31 -4 68 -8 83 l-6 27 -135 -91z"/>
<path d="M11481 9698 c-8 -29 -33 -118 -57 -198 -24 -80 -44 -152 -44 -160 0
-12 51 -32 193 -77 186 -59 192 -60 194 -40 17 147 43 206 103 238 103 55 219
-25 206 -143 -5 -46 -44 -137 -74 -171 -8 -9 -13 -18 -11 -20 9 -6 121 -38
124 -35 11 13 42 85 67 157 34 98 34 154 -1 231 -71 159 -306 208 -418 88 -28
-30 -76 -137 -69 -155 3 -7 -2 -17 -10 -20 -21 -8 -154 35 -154 49 0 6 16 65
36 132 19 67 37 128 40 137 3 12 -4 18 -26 23 -16 3 -43 9 -58 12 -27 5 -28 3
-41 -48z"/>
<path d="M2570 9720 c-23 -8 -99 -31 -356 -109 -56 -17 -110 -32 -120 -34 -43
-8 -80 -19 -101 -29 -12 -6 -30 -11 -40 -12 -10 -2 -30 -6 -44 -10 l-27 -8 20
-71 c11 -40 21 -73 22 -74 0 -1 38 9 84 23 45 13 118 35 163 48 l80 23 8 -21
c4 -11 21 -68 37 -124 l29 -104 30 5 c17 3 42 10 56 15 l26 10 -33 118 c-39
135 -40 144 -18 144 9 0 49 10 91 22 60 17 76 19 83 9 4 -8 22 -66 40 -130 18
-64 34 -118 36 -120 1 -1 26 5 54 14 44 15 51 20 47 39 -2 11 -26 103 -53 203
-53 198 -51 194 -114 173z"/>
<path d="M2640 8991 c0 -6 -15 -11 -32 -11 -66 0 -210 -72 -267 -133 -46 -49
-52 -57 -79 -115 -59 -127 -18 -313 93 -427 83 -85 185 -123 298 -111 90 9
232 81 292 149 67 74 87 124 93 233 4 90 4 92 -37 180 -45 96 -72 129 -139
176 -45 31 -86 47 -137 52 -16 2 -42 7 -57 11 -18 5 -28 3 -28 -4z m169 -196
c82 -56 109 -119 90 -212 -20 -98 -87 -168 -217 -223 -86 -37 -184 -18 -252
49 -77 74 -89 173 -34 268 29 50 67 80 154 122 58 28 73 31 140 29 64 -3 81
-7 119 -33z"/>
<path d="M11218 8928 c-13 -18 -39 -58 -58 -88 -31 -51 -34 -61 -34 -140 -1
-71 3 -93 24 -133 67 -132 304 -281 467 -295 53 -4 70 -1 115 21 122 60 181
220 127 342 -27 60 -66 97 -146 136 -79 39 -118 44 -172 24 -65 -23 -108 -60
-137 -118 -23 -45 -26 -59 -21 -114 l6 -63 -28 15 c-41 21 -90 83 -102 130
-19 70 -7 128 40 190 24 31 41 58 39 59 -1 1 -22 17 -44 34 -23 18 -44 32 -47
32 -2 0 -16 -15 -29 -32z m449 -302 c83 -39 113 -110 73 -174 -33 -53 -90 -66
-157 -35 -126 58 -131 200 -8 226 35 8 39 7 92 -17z"/>
<path d="M10819 8172 c-57 -21 -71 -33 -122 -102 -47 -63 -66 -109 -67 -163 0
-74 64 -164 134 -187 37 -12 114 -10 149 5 15 6 17 0 17 -54 0 -77 25 -130 80
-170 73 -53 154 -59 240 -18 26 12 90 73 90 85 0 4 11 19 24 33 98 106 75 261
-51 348 -47 31 -134 39 -187 17 -52 -22 -56 -21 -50 13 9 42 -21 122 -59 158
-31 30 -91 54 -132 52 -11 0 -41 -8 -66 -17z m126 -146 c26 -26 41 -82 31
-120 -9 -36 -52 -59 -113 -60 -71 -1 -88 17 -88 88 0 48 4 58 32 85 42 40 102
43 138 7z m287 -202 c9 -3 27 -21 39 -40 28 -46 19 -96 -26 -141 -28 -28 -40
-33 -80 -33 -41 0 -52 5 -80 34 -52 55 -57 137 -12 166 43 27 96 31 159 14z"/>
<path d="M3299 8127 c-15 -12 -117 -95 -227 -184 -110 -89 -210 -178 -221
-197 -12 -19 -27 -61 -33 -93 -16 -88 6 -153 86 -251 82 -101 134 -133 224
-140 107 -7 98 -13 510 321 40 32 72 62 72 68 0 5 -18 34 -40 64 l-40 54 -148
-117 c-272 -217 -295 -232 -364 -232 -64 0 -135 62 -152 132 -7 29 13 118 26
118 4 0 8 5 8 10 0 13 39 54 60 62 8 3 60 44 116 90 55 45 120 99 144 118 24
19 57 47 74 61 l29 26 -43 56 c-23 32 -45 57 -49 57 -3 -1 -18 -11 -32 -23z"/>
<path d="M10278 7553 l-44 -48 -13 -125 c-7 -69 -15 -131 -17 -138 -4 -15 28
-29 81 -33 l40 -4 9 78 c5 42 12 77 16 77 4 0 99 -92 210 -205 112 -113 206
-205 210 -205 3 0 29 22 58 48 l52 48 -271 277 c-150 152 -275 277 -279 277
-4 0 -27 -21 -52 -47z"/>
<path d="M3931 7338 c-23 -29 -49 -62 -59 -73 -10 -11 -101 -123 -202 -249
l-184 -229 49 -43 c27 -24 51 -44 55 -44 3 0 78 89 165 197 192 237 202 247
207 232 2 -7 -6 -49 -18 -93 -12 -45 -24 -102 -27 -126 -4 -25 -24 -126 -47
-224 -22 -98 -40 -180 -40 -181 0 -12 141 -114 151 -110 8 3 28 25 46 48 33
44 130 164 166 207 12 14 78 95 148 181 l126 156 -27 25 c-32 29 -88 64 -93
57 -1 -2 -47 -56 -100 -120 -53 -64 -97 -119 -97 -123 0 -3 -8 -14 -17 -24
-10 -10 -29 -33 -43 -51 -13 -18 -35 -45 -47 -59 -13 -15 -28 -33 -34 -39 -32
-41 -25 1 72 441 22 98 38 180 37 180 -2 1 -28 22 -58 46 -30 25 -62 51 -71
58 -15 11 -22 5 -58 -40z"/>
<path d="M4597 6440 c-92 -187 -167 -343 -167 -347 0 -5 62 -38 138 -75 201
-98 300 -117 408 -77 99 37 179 131 221 259 33 99 37 141 18 211 -26 105 -91
187 -195 247 -74 44 -231 122 -243 122 -7 0 -88 -153 -180 -340z m338 136 c69
-39 131 -112 140 -166 14 -81 9 -134 -18 -186 -38 -75 -71 -110 -132 -140 -71
-34 -151 -31 -242 10 -35 16 -63 30 -63 32 0 13 241 484 248 484 4 -1 34 -16
67 -34z"/>
<path d="M9260 6745 c-53 -14 -278 -124 -321 -156 l-21 -15 31 -55 c16 -30 49
-90 72 -134 37 -70 143 -264 207 -377 12 -20 30 -55 42 -78 l21 -41 87 47
c250 135 330 214 362 360 31 137 -95 377 -230 437 -59 26 -177 32 -250 12z
m136 -165 c102 -44 159 -135 158 -255 0 -80 -15 -115 -76 -181 -44 -48 -104
-82 -117 -68 -5 5 -27 43 -49 85 -21 41 -46 86 -54 100 -36 58 -148 267 -148
275 0 16 84 58 130 65 56 8 103 2 156 -21z"/>
<path d="M9975 6474 c-27 -19 -51 -38 -53 -43 -4 -11 67 -121 78 -121 4 0 32
18 64 41 l57 41 -21 31 c-12 18 -29 44 -38 59 -9 16 -21 28 -27 27 -5 0 -32
-16 -60 -35z"/>
<path d="M5612 6143 c-34 -131 -78 -298 -98 -372 -20 -73 -32 -137 -27 -141 8
-8 425 -121 429 -117 10 11 31 108 24 112 -5 3 -68 21 -140 39 -72 19 -134 37
-138 40 -6 7 37 196 48 209 6 7 201 -38 253 -59 11 -4 19 9 32 51 9 32 15 58
13 60 -2 1 -59 17 -128 34 -69 18 -128 35 -131 37 -6 3 35 182 44 190 1 1 67
-15 146 -37 78 -21 144 -39 145 -39 5 0 29 110 25 114 -5 5 -411 116 -425 116
-6 0 -39 -107 -72 -237z"/>
<path d="M7980 6276 c-78 -14 -90 -20 -90 -50 0 -13 -9 -77 -20 -142 -48 -293
-100 -626 -100 -638 0 -11 12 -11 73 1 39 9 74 17 76 19 2 2 9 45 15 96 l12
92 154 32 c85 18 160 33 165 33 11 1 85 -105 85 -120 0 -5 5 -9 10 -9 6 0 10
-7 10 -16 0 -12 6 -15 23 -10 13 3 49 8 80 12 43 5 57 10 53 20 -3 8 -89 141
-192 296 -103 156 -203 309 -223 340 -39 62 -37 61 -131 44z m80 -222 c0 -3
16 -30 35 -60 19 -30 35 -57 35 -59 0 -3 16 -28 35 -55 41 -59 41 -59 -75 -83
-41 -9 -82 -18 -91 -22 -24 -9 -27 2 -19 75 25 210 31 254 36 262 5 8 44 -43
44 -58z"/>
<path d="M6466 6188 c-2 -7 -9 -121 -16 -253 -6 -132 -15 -301 -20 -375 -5
-74 -7 -137 -4 -139 2 -3 82 -7 177 -9 138 -4 185 -1 237 12 170 44 259 170
262 371 2 167 -59 278 -187 339 -74 35 -117 44 -265 56 -171 13 -180 13 -184
-2z m309 -142 c98 -47 159 -143 158 -251 -1 -59 -27 -145 -44 -145 -5 0 -9 -7
-9 -14 0 -19 -52 -59 -110 -85 -31 -14 -66 -21 -112 -21 -80 0 -73 -34 -57
265 15 297 9 275 72 275 34 0 70 -8 102 -24z"/>
<path d="M8768 5837 c-32 -11 -58 -26 -58 -32 0 -11 40 -135 43 -135 19 2 132
50 132 56 0 26 -40 134 -49 133 -6 0 -37 -10 -68 -22z"/>
<path d="M23090 12070 c-45 -23 -187 -58 -320 -79 l-105 -17 -3 -31 -3 -30
101 -8 c97 -6 102 -8 113 -33 9 -20 13 -238 15 -842 2 -448 0 -839 -3 -868
-10 -80 -27 -92 -130 -92 -93 0 -103 -6 -91 -55 l6 -25 345 0 345 0 0 40 0 40
-88 0 c-82 0 -90 2 -113 26 l-24 26 0 978 c-1 539 -3 981 -5 984 -3 2 -21 -4
-40 -14z"/>
<path d="M22180 12060 c-51 -20 -216 -56 -302 -66 l-58 -7 0 -37 0 -37 97 -9
c95 -9 98 -10 113 -39 13 -26 15 -143 18 -845 2 -448 0 -835 -3 -859 -4 -26
-16 -53 -30 -67 -22 -22 -33 -24 -110 -24 l-85 0 0 -40 0 -40 348 2 347 3 3
38 3 37 -94 0 c-102 0 -130 13 -143 66 -3 13 -5 456 -3 984 l4 960 -30 -1
c-16 -1 -50 -9 -75 -19z"/>
<path d="M15340 12029 c-104 -10 -177 -28 -290 -72 -317 -124 -523 -331 -623
-627 -44 -129 -52 -185 -51 -355 1 -143 4 -170 28 -249 72 -242 171 -394 356
-548 59 -50 183 -115 289 -153 290 -105 702 -96 966 19 164 72 150 62 179 133
31 76 24 99 -22 70 -109 -70 -248 -122 -361 -135 -81 -9 -336 -9 -411 -1 -153
18 -339 117 -471 248 -180 181 -259 387 -259 676 0 210 41 394 117 525 46 80
178 213 255 259 151 88 279 116 503 108 276 -9 413 -56 490 -168 25 -36 29
-51 34 -152 l6 -112 36 -3 36 -3 13 123 c10 105 26 185 55 283 6 19 -6 24
-135 59 -245 66 -318 77 -505 79 -93 1 -199 -1 -235 -4z"/>
<path d="M23980 11954 l0 -41 73 -6 c111 -10 137 -17 155 -45 15 -24 18 -92
23 -707 6 -742 8 -778 66 -892 83 -167 350 -306 599 -314 147 -5 316 8 396 30
102 28 265 111 327 167 69 62 135 166 150 237 36 168 41 241 41 686 0 440 11
693 34 761 15 46 42 57 154 66 l92 7 0 43 0 44 -110 0 c-60 1 -180 1 -265 1
-85 0 -180 0 -210 -1 l-55 0 0 -40 0 -40 43 0 c68 0 158 -18 177 -35 10 -9 21
-31 24 -48 10 -58 7 -1199 -4 -1257 -5 -30 -12 -72 -15 -93 -16 -105 -74 -195
-166 -256 -34 -23 -80 -46 -102 -52 -23 -6 -49 -15 -59 -19 -25 -14 -101 -21
-238 -24 -244 -5 -436 73 -516 210 -15 25 -33 84 -45 145 -18 97 -19 138 -17
723 3 577 4 623 21 647 20 30 45 37 160 46 l77 6 0 46 0 46 -405 0 -405 0 0
-41z"/>
<path d="M28095 11965 c-76 -27 -123 -109 -104 -180 20 -72 113 -131 185 -117
41 8 111 83 120 127 12 68 -52 166 -118 179 -38 8 -35 8 -83 -9z"/>
<path d="M33935 11960 c-28 -11 -72 -60 -84 -93 -17 -44 -13 -75 16 -124 65
-111 220 -100 267 19 21 51 20 86 -3 128 -27 51 -74 80 -130 79 -25 0 -55 -4
-66 -9z"/>
<path d="M34832 11760 c-18 -11 -66 -34 -107 -51 l-75 -32 0 -214 0 -213 -37
-16 c-21 -9 -46 -20 -56 -25 -9 -5 -42 -19 -73 -30 -46 -17 -55 -24 -52 -42 3
-21 8 -22 111 -22 l107 0 0 -453 c0 -429 1 -456 20 -513 22 -64 27 -72 75
-119 48 -47 92 -63 185 -68 121 -5 184 13 265 80 59 48 65 56 60 82 -7 38 -7
38 -40 26 -16 -6 -68 -10 -116 -9 -128 2 -190 36 -218 118 -12 38 -16 534 -4
739 l6 122 183 0 182 0 11 50 c6 28 11 55 11 60 0 6 -79 10 -196 10 l-197 0 7
143 c4 78 11 196 17 261 8 96 8 121 -3 127 -19 13 -30 11 -66 -11z"/>
<path d="M17015 11354 c-11 -2 -45 -9 -75 -15 -73 -15 -202 -78 -272 -134
-111 -89 -213 -260 -237 -396 -15 -89 -14 -250 3 -329 39 -184 127 -326 260
-421 115 -82 192 -104 361 -103 120 0 137 3 228 34 170 57 291 146 377 277
118 178 159 405 110 599 -25 96 -39 129 -97 216 -116 177 -324 280 -555 277
-46 -1 -92 -3 -103 -5z m200 -108 c22 -10 51 -23 65 -30 37 -17 126 -109 149
-155 63 -122 101 -304 102 -485 1 -158 -10 -218 -63 -325 -71 -146 -178 -215
-330 -213 -200 3 -347 151 -416 417 -28 109 -34 164 -34 313 1 179 37 294 124
388 80 86 152 115 278 111 54 -2 99 -10 125 -21z"/>
<path d="M32205 11349 c-114 -20 -149 -49 -295 -238 -30 -39 -58 -71 -62 -71
-5 0 -8 65 -8 145 0 163 0 164 -73 125 -42 -23 -55 -26 -257 -68 l-135 -28 0
-35 0 -34 107 -3 107 -3 11 -39 c7 -26 10 -197 8 -503 -3 -421 -5 -465 -21
-490 -16 -25 -21 -26 -120 -29 l-102 -3 -3 -37 -3 -38 391 0 391 0 -3 33 c-2
24 -8 32 -23 34 -141 12 -226 27 -240 43 -14 16 -16 59 -13 386 3 356 4 371
26 425 26 64 81 133 125 155 36 19 123 29 172 20 40 -8 99 -55 121 -97 15 -29
56 -40 69 -19 3 5 8 49 10 97 2 48 7 123 11 165 l7 77 -29 12 c-45 17 -125 26
-169 18z"/>
<path d="M32914 11349 c-175 -16 -334 -109 -392 -229 -25 -52 -42 -132 -42
-196 0 -54 42 -162 78 -201 66 -70 120 -93 350 -149 322 -77 362 -107 362
-272 0 -69 -3 -83 -30 -125 -60 -95 -180 -146 -340 -146 -99 -1 -141 10 -205
53 -41 27 -60 48 -84 97 -27 55 -31 72 -31 146 l0 84 -37 -3 -38 -3 -5 -175
c-3 -96 -8 -180 -12 -185 -15 -24 15 -37 133 -62 101 -21 153 -26 279 -27 139
-1 163 2 229 23 89 29 207 106 255 164 160 197 133 460 -57 549 -28 14 -142
48 -252 76 -247 64 -261 68 -307 98 -113 73 -103 268 19 360 51 39 112 53 219
50 87 -2 114 -14 201 -84 47 -38 63 -76 72 -167 l6 -60 37 -3 36 -3 6 108 c4
59 8 131 11 158 l4 50 -87 27 c-141 44 -254 58 -378 47z"/>
<path d="M18539 11337 c-86 -32 -111 -56 -252 -236 -26 -34 -52 -59 -58 -56
-5 4 -9 68 -9 146 0 89 -4 139 -10 139 -6 0 -36 -8 -68 -18 -63 -21 -142 -44
-157 -47 -5 -2 -45 -10 -89 -19 -43 -9 -91 -16 -107 -16 -22 0 -30 -6 -35 -25
-12 -50 -3 -55 103 -55 54 0 105 -5 113 -10 13 -8 15 -76 18 -497 2 -450 1
-491 -15 -523 l-18 -35 -108 -3 -107 -3 3 -37 2 -37 388 -3 387 -2 0 35 c0 35
0 35 -45 35 -24 0 -79 5 -122 11 -121 17 -113 -10 -113 393 1 358 4 396 46
481 51 102 119 145 226 145 35 -1 72 -6 84 -13 34 -20 78 -60 97 -89 11 -18
26 -28 41 -28 22 0 24 5 29 68 3 37 5 78 4 92 0 14 3 62 8 107 l8 83 -29 11
c-43 18 -173 21 -215 6z"/>
<path d="M19687 11335 c-80 -20 -97 -31 -232 -148 -66 -58 -121 -103 -123
-102 -2 2 -3 58 -3 124 0 67 -3 121 -6 121 -3 0 -46 -14 -97 -31 -50 -17 -100
-33 -111 -35 -11 -2 -47 -10 -80 -18 -33 -8 -84 -18 -112 -21 l-53 -7 0 -37 0
-36 96 -1 c59 -1 100 -6 107 -13 17 -17 27 -972 10 -1012 -17 -40 -42 -49
-132 -49 l-81 0 0 -40 0 -40 340 0 340 0 0 40 0 39 -92 3 -93 3 -17 35 c-15
31 -17 77 -18 405 -1 346 0 374 19 435 55 178 289 276 476 202 76 -30 160
-126 169 -193 3 -19 8 -54 11 -79 7 -59 7 -566 -1 -748 l-6 -142 238 2 239 3
0 35 0 35 -75 3 c-103 3 -116 7 -128 41 -6 18 -8 142 -5 332 5 372 -6 580 -37
661 -38 103 -117 173 -250 223 -62 23 -219 29 -293 10z"/>
<path d="M21040 11331 c-102 -27 -226 -96 -324 -181 -50 -43 -65 -62 -94 -119
-106 -206 -121 -528 -33 -711 43 -90 55 -106 130 -180 118 -117 240 -168 423
-177 143 -8 261 19 400 90 92 46 101 54 124 100 40 77 28 83 -68 34 -137 -70
-185 -82 -323 -81 -100 1 -130 5 -178 23 -126 49 -225 153 -281 292 -26 68
-43 188 -33 231 l7 25 367 7 c358 6 414 9 518 24 l50 7 3 85 c10 271 -130 471
-374 535 -77 20 -231 18 -314 -4z m247 -82 c68 -29 126 -94 158 -180 26 -65
29 -88 30 -184 l0 -110 -157 -3 c-210 -3 -505 11 -520 26 -9 9 -8 37 4 116 29
198 108 308 250 350 52 16 183 7 235 -15z"/>
<path d="M26843 11331 c-65 -19 -94 -37 -183 -121 -30 -28 -66 -58 -79 -68
-13 -9 -34 -28 -47 -42 l-24 -25 0 128 c0 143 2 140 -75 107 -26 -11 -60 -22
-77 -25 -17 -3 -39 -10 -49 -16 -11 -5 -19 -8 -19 -5 0 3 -21 -1 -47 -9 -27
-7 -68 -16 -93 -20 -102 -14 -100 -13 -100 -55 l0 -39 54 6 c85 9 141 -3 155
-33 15 -34 16 -948 0 -993 -15 -43 -35 -51 -128 -51 l-81 0 0 -40 0 -40 340 0
340 0 0 40 0 40 -83 0 c-92 0 -113 9 -125 55 -4 17 -7 203 -7 415 l1 385 26
55 c47 101 125 162 239 186 48 10 93 13 129 9 60 -8 130 -32 130 -46 0 -5 6
-9 14 -9 16 0 75 -70 100 -117 32 -64 39 -181 33 -583 -4 -212 -9 -395 -13
-408 l-6 -22 238 2 239 3 3 38 3 37 -90 0 c-83 0 -91 2 -103 23 -10 17 -12
100 -10 367 4 565 -9 651 -117 760 -113 114 -315 160 -488 111z"/>
<path d="M30545 11343 c-183 -43 -344 -141 -440 -268 -79 -104 -119 -279 -113
-490 4 -122 8 -150 33 -215 46 -123 105 -206 200 -278 215 -162 523 -176 786
-35 85 45 94 54 116 105 31 68 16 73 -80 24 -144 -74 -169 -80 -297 -81 -160
0 -247 34 -350 135 -102 100 -150 219 -150 371 l0 79 343 0 c299 0 505 9 586
26 l24 5 -6 112 c-8 165 -50 269 -147 365 -77 77 -113 99 -225 133 -57 18
-225 25 -280 12z m157 -93 c144 -40 246 -220 236 -416 l-3 -59 -344 -3 -344
-2 6 88 c5 83 36 199 61 232 7 8 18 28 26 44 16 31 77 76 142 106 49 21 160
26 220 10z"/>
<path d="M28207 11324 c-34 -19 -194 -61 -312 -82 l-90 -17 0 -35 0 -35 92 -5
c66 -4 97 -10 108 -21 28 -27 35 -134 35 -535 0 -400 -6 -486 -38 -510 -11 -9
-49 -13 -110 -14 l-93 0 3 -37 3 -38 358 -3 357 -2 0 40 0 40 -86 0 c-47 0
-93 4 -103 10 -10 5 -26 28 -35 50 -14 37 -16 106 -16 613 0 315 0 578 0 585
0 16 -39 15 -73 -4z"/>
<path d="M34045 11319 c-42 -17 -115 -40 -175 -54 -8 -2 -15 -4 -15 -5 0 -1
-13 -3 -30 -5 -16 -3 -61 -10 -100 -17 l-70 -13 -3 -38 -3 -37 83 0 c46 0 93
-3 104 -6 46 -12 48 -32 52 -501 4 -467 -1 -543 -38 -563 -10 -6 -58 -10 -105
-10 l-86 0 3 -37 3 -38 355 0 355 0 3 38 3 37 -95 0 c-91 0 -96 1 -121 27 -14
15 -25 39 -25 53 -1 14 -2 286 -3 605 -2 572 -2 580 -22 582 -11 1 -42 -7 -70
-18z"/>
<path d="M36633 11303 l-263 -3 0 -30 c0 -26 4 -30 38 -35 90 -16 127 -31 142
-58 16 -30 10 -51 -86 -297 -20 -52 -47 -122 -59 -155 -25 -66 -127 -311 -172
-416 -15 -36 -32 -68 -36 -70 -5 -2 -33 55 -63 126 -30 72 -58 139 -63 150 -5
11 -18 40 -29 65 -33 75 -117 299 -147 390 -15 47 -31 90 -36 96 -5 6 -11 35
-15 66 -6 55 -6 57 23 71 16 9 61 19 101 22 l72 8 0 33 0 34 -330 0 -330 0 0
-29 c0 -27 4 -30 51 -40 28 -6 65 -19 81 -29 45 -26 80 -103 349 -767 38 -93
73 -177 78 -187 6 -9 37 -88 71 -175 l60 -159 -24 -60 c-147 -369 -233 -474
-386 -474 -31 0 -103 31 -115 50 -3 5 -15 10 -25 10 -14 0 -25 -18 -45 -77
-50 -145 -50 -130 3 -155 36 -17 65 -22 127 -22 70 0 88 4 148 34 112 55 182
141 274 340 59 126 73 157 73 164 0 3 13 34 29 68 16 35 41 95 56 133 30 77
44 110 98 230 20 44 46 105 57 135 12 30 37 88 56 128 19 41 34 75 34 77 0 2
20 46 44 97 24 51 80 174 126 273 146 320 171 355 261 369 37 6 39 8 39 41 0
19 -1 34 -2 33 -2 -2 -121 -4 -265 -5z"/>
<path d="M28500 11270 c0 -30 1 -30 53 -30 71 0 115 -39 148 -130 12 -36 36
-91 51 -122 15 -31 28 -60 28 -63 0 -3 11 -30 24 -59 13 -29 54 -124 91 -212
36 -87 74 -177 84 -199 53 -115 191 -449 191 -461 0 -11 17 -14 73 -14 l73 0
27 58 c14 31 33 76 41 99 8 22 27 67 41 100 15 32 31 67 35 78 5 11 22 50 39
88 17 37 31 69 31 71 0 4 17 43 92 206 92 202 240 490 262 512 17 17 48 32 82
39 50 11 54 14 54 41 l0 28 -265 0 -265 0 0 -28 c0 -27 2 -28 83 -40 132 -19
137 -34 73 -221 -35 -103 -193 -490 -249 -612 -19 -41 -42 -91 -51 -111 -18
-41 -33 -48 -43 -20 -3 9 -17 42 -31 72 -13 30 -38 89 -54 130 -16 41 -36 89
-43 105 -8 17 -39 96 -70 175 -53 134 -72 182 -96 235 -21 48 -38 107 -44 158
-7 52 -6 56 20 73 16 11 53 19 100 22 67 4 74 6 78 28 2 13 2 26 -1 29 -3 3
-153 5 -334 5 l-328 0 0 -30z"/>
<path d="M36793 10386 c-173 -63 -224 -296 -93 -423 47 -46 96 -66 168 -71
119 -8 207 50 260 171 6 15 8 27 4 27 -4 0 -13 -15 -20 -32 -17 -45 -41 -71
-95 -106 -41 -26 -54 -29 -115 -26 -38 1 -85 9 -104 17 -51 21 -103 91 -117
155 -32 154 69 286 221 287 31 0 51 3 45 7 -18 11 -118 7 -154 -6z"/>
<path d="M36796 10282 c-3 -5 -4 -71 -3 -148 2 -132 3 -139 22 -139 18 0 20 8
23 63 3 67 13 79 55 68 13 -3 37 -30 61 -71 30 -52 43 -65 63 -65 24 0 23 1
-16 57 -23 31 -41 61 -41 67 1 6 15 20 33 31 26 17 33 28 35 62 3 34 -1 44
-24 62 -23 18 -40 21 -115 21 -48 0 -90 -4 -93 -8z m170 -37 c22 -21 9 -71
-19 -79 -12 -3 -41 -6 -64 -6 l-43 0 0 50 0 50 56 0 c36 0 61 -5 70 -15z"/>
<path d="M37137 10143 c-4 -3 -7 -13 -7 -22 1 -13 3 -13 11 2 11 19 8 33 -4
20z"/>
</g>
</svg>
