<svg width="795" height="264" viewBox="0 0 795 264" fill="none" xmlns="http://www.w3.org/2000/svg">
<mask id="path-1-inside-1_45_142" fill="white">
<path d="M0 24C0 10.7452 10.7452 0 24 0H619C627.837 0 635 7.16344 635 16V248C635 256.837 627.837 264 619 264H0V24Z"/>
</mask>
<path d="M-1 24C-1 10.1929 10.1929 -1 24 -1H618C627.389 -1 635 6.61116 635 16C635 7.71573 627.837 1 619 1H24C11.2975 1 1 11.2975 1 24H-1ZM635 264H0H635ZM-1 264V24C-1 10.1929 10.1929 -1 24 -1V1C11.2975 1 1 11.2975 1 24V264H-1ZM635 0V264V0Z" fill="black" fill-opacity="0.05" mask="url(#path-1-inside-1_45_142)"/>
<rect x="56.5" y="51" width="730" height="72" rx="11.5" stroke="black" stroke-opacity="0.05"/>
<rect x="79" y="74.5" width="172" height="26" rx="4" fill="#F9F9F9"/>
<rect x="279" y="74.5" width="150" height="26" rx="4" fill="#F9F9F9"/>
<rect width="97" height="25" transform="translate(457 75.5)" fill="#FBFBFB"/>
<path d="M462.233 93.5V83.3182H465.673C466.469 83.3182 467.122 83.4541 467.632 83.7259C468.143 83.9943 468.52 84.3639 468.766 84.8345C469.011 85.3052 469.134 85.8404 469.134 86.4403C469.134 87.0402 469.011 87.5722 468.766 88.0362C468.52 88.5002 468.144 88.8648 467.637 89.13C467.13 89.3918 466.482 89.5227 465.693 89.5227H462.909V88.4091H465.653C466.197 88.4091 466.634 88.3295 466.966 88.1705C467.301 88.0114 467.543 87.786 467.692 87.4943C467.844 87.1993 467.92 86.848 467.92 86.4403C467.92 86.0327 467.844 85.6764 467.692 85.3714C467.539 85.0665 467.296 84.8312 466.961 84.6655C466.626 84.4964 466.184 84.4119 465.634 84.4119H463.466V93.5H462.233ZM467.026 88.9261L469.531 93.5H468.099L465.634 88.9261H467.026ZM474.149 93.6591C473.413 93.6591 472.778 93.4967 472.244 93.1719C471.714 92.8438 471.305 92.3864 471.017 91.7997C470.731 91.2098 470.589 90.5237 470.589 89.7415C470.589 88.9593 470.731 88.2699 471.017 87.6733C471.305 87.0734 471.706 86.6061 472.22 86.2713C472.737 85.9332 473.34 85.7642 474.029 85.7642C474.427 85.7642 474.82 85.8305 475.208 85.9631C475.595 86.0956 475.948 86.3111 476.267 86.6094C476.585 86.9044 476.838 87.2955 477.027 87.7827C477.216 88.2699 477.311 88.8698 477.311 89.5824V90.0795H471.424V89.0653H476.117C476.117 88.6345 476.031 88.25 475.859 87.9119C475.69 87.5739 475.448 87.3071 475.133 87.1115C474.821 86.916 474.454 86.8182 474.029 86.8182C473.562 86.8182 473.158 86.9342 472.816 87.1662C472.478 87.3949 472.218 87.6932 472.036 88.0611C471.853 88.429 471.762 88.8234 471.762 89.2443V89.9205C471.762 90.4972 471.862 90.986 472.061 91.3871C472.263 91.7848 472.543 92.0881 472.901 92.2969C473.259 92.5024 473.675 92.6051 474.149 92.6051C474.457 92.6051 474.735 92.562 474.984 92.4759C475.236 92.3864 475.453 92.2538 475.635 92.0781C475.817 91.8991 475.958 91.6771 476.058 91.4119L477.191 91.7301C477.072 92.1146 476.871 92.4527 476.59 92.7443C476.308 93.0327 475.96 93.258 475.546 93.4205C475.131 93.5795 474.666 93.6591 474.149 93.6591ZM484.306 96.3636V92.3267H484.206C484.12 92.4659 483.997 92.6416 483.838 92.8537C483.679 93.0625 483.452 93.2498 483.157 93.4155C482.862 93.5779 482.469 93.6591 481.979 93.6591C481.343 93.6591 480.781 93.4983 480.294 93.1768C479.806 92.852 479.425 92.3946 479.15 91.8047C478.875 91.2114 478.737 90.5104 478.737 89.7017C478.737 88.8996 478.875 88.2036 479.15 87.6136C479.425 87.0237 479.808 86.5679 480.298 86.2464C480.789 85.925 481.356 85.7642 481.999 85.7642C482.496 85.7642 482.889 85.8471 483.177 86.0128C483.469 86.1752 483.691 86.3608 483.843 86.5696C483.999 86.7751 484.12 86.9441 484.206 87.0767H484.345V85.8636H485.479V96.3636H484.306ZM482.138 92.6051C482.609 92.6051 483.006 92.4825 483.331 92.2372C483.656 91.9886 483.903 91.6456 484.072 91.2081C484.241 90.7673 484.325 90.2585 484.325 89.6818C484.325 89.1117 484.243 88.6129 484.077 88.1854C483.911 87.7545 483.666 87.4197 483.341 87.1811C483.016 86.9392 482.615 86.8182 482.138 86.8182C481.641 86.8182 481.227 86.9458 480.895 87.201C480.567 87.4529 480.32 87.7959 480.154 88.2301C479.992 88.661 479.911 89.1449 479.911 89.6818C479.911 90.2254 479.994 90.7192 480.159 91.1634C480.328 91.6042 480.577 91.9555 480.905 92.2173C481.236 92.4759 481.647 92.6051 482.138 92.6051ZM492.439 90.3778V85.8636H493.612V93.5H492.439V92.2074H492.36C492.181 92.5952 491.902 92.925 491.524 93.1967C491.146 93.4652 490.669 93.5994 490.093 93.5994C489.615 93.5994 489.191 93.495 488.82 93.2862C488.449 93.0741 488.157 92.7559 487.945 92.3317C487.733 91.9041 487.627 91.3655 487.627 90.7159V85.8636H488.8V90.6364C488.8 91.1932 488.956 91.6373 489.267 91.9688C489.582 92.3002 489.983 92.4659 490.47 92.4659C490.762 92.4659 491.059 92.3913 491.36 92.2422C491.665 92.093 491.92 91.8643 492.126 91.5561C492.335 91.2479 492.439 90.8551 492.439 90.3778ZM498.963 93.6591C498.227 93.6591 497.593 93.4967 497.059 93.1719C496.529 92.8438 496.119 92.3864 495.831 91.7997C495.546 91.2098 495.403 90.5237 495.403 89.7415C495.403 88.9593 495.546 88.2699 495.831 87.6733C496.119 87.0734 496.52 86.6061 497.034 86.2713C497.551 85.9332 498.154 85.7642 498.844 85.7642C499.241 85.7642 499.634 85.8305 500.022 85.9631C500.41 86.0956 500.763 86.3111 501.081 86.6094C501.399 86.9044 501.653 87.2955 501.842 87.7827C502.031 88.2699 502.125 88.8698 502.125 89.5824V90.0795H496.239V89.0653H500.932C500.932 88.6345 500.846 88.25 500.673 87.9119C500.504 87.5739 500.262 87.3071 499.947 87.1115C499.636 86.916 499.268 86.8182 498.844 86.8182C498.376 86.8182 497.972 86.9342 497.631 87.1662C497.293 87.3949 497.032 87.6932 496.85 88.0611C496.668 88.429 496.577 88.8234 496.577 89.2443V89.9205C496.577 90.4972 496.676 90.986 496.875 91.3871C497.077 91.7848 497.357 92.0881 497.715 92.2969C498.073 92.5024 498.489 92.6051 498.963 92.6051C499.271 92.6051 499.55 92.562 499.798 92.4759C500.05 92.3864 500.267 92.2538 500.45 92.0781C500.632 91.8991 500.773 91.6771 500.872 91.4119L502.006 91.7301C501.886 92.1146 501.686 92.4527 501.404 92.7443C501.122 93.0327 500.774 93.258 500.36 93.4205C499.946 93.5795 499.48 93.6591 498.963 93.6591ZM509.319 87.5739L508.265 87.8722C508.199 87.6965 508.101 87.5258 507.972 87.3601C507.846 87.1911 507.673 87.0518 507.455 86.9425C507.236 86.8331 506.956 86.7784 506.614 86.7784C506.147 86.7784 505.758 86.8861 505.446 87.1016C505.138 87.3137 504.984 87.5838 504.984 87.9119C504.984 88.2036 505.09 88.4339 505.302 88.603C505.514 88.772 505.845 88.9129 506.296 89.0256L507.43 89.304C508.112 89.4697 508.621 89.7232 508.956 90.0646C509.291 90.4027 509.458 90.8385 509.458 91.3722C509.458 91.8097 509.332 92.2008 509.08 92.5455C508.832 92.8902 508.484 93.1619 508.036 93.3608C507.589 93.5597 507.068 93.6591 506.475 93.6591C505.696 93.6591 505.052 93.4901 504.541 93.152C504.031 92.8139 503.708 92.3201 503.572 91.6705L504.685 91.392C504.791 91.803 504.992 92.1113 505.287 92.3168C505.585 92.5223 505.975 92.625 506.455 92.625C507.002 92.625 507.436 92.509 507.758 92.277C508.083 92.0417 508.245 91.7599 508.245 91.4318C508.245 91.1667 508.152 90.9446 507.967 90.7656C507.781 90.5833 507.496 90.4474 507.112 90.358L505.839 90.0597C505.139 89.8939 504.626 89.6371 504.298 89.2891C503.973 88.9377 503.81 88.4986 503.81 87.9716C503.81 87.5407 503.931 87.1596 504.173 86.8281C504.419 86.4967 504.752 86.2365 505.173 86.0476C505.597 85.8587 506.077 85.7642 506.614 85.7642C507.37 85.7642 507.963 85.9299 508.394 86.2614C508.828 86.5928 509.137 87.0303 509.319 87.5739ZM514.545 85.8636V86.858H510.588V85.8636H514.545ZM511.741 84.0341H512.915V91.3125C512.915 91.6439 512.963 91.8925 513.059 92.0582C513.158 92.2206 513.284 92.33 513.437 92.3864C513.592 92.4394 513.756 92.4659 513.929 92.4659C514.058 92.4659 514.164 92.4593 514.247 92.446C514.33 92.4295 514.396 92.4162 514.446 92.4062L514.684 93.4602C514.605 93.4901 514.494 93.5199 514.351 93.5497C514.209 93.5829 514.028 93.5994 513.809 93.5994C513.478 93.5994 513.153 93.5282 512.835 93.3857C512.52 93.2431 512.258 93.026 512.05 92.7344C511.844 92.4427 511.741 92.0748 511.741 91.6307V84.0341ZM525.975 85.8636C525.915 85.3598 525.673 84.9688 525.249 84.6903C524.825 84.4119 524.305 84.2727 523.688 84.2727C523.237 84.2727 522.843 84.3456 522.505 84.4915C522.17 84.6373 521.908 84.8378 521.719 85.093C521.534 85.3482 521.441 85.6383 521.441 85.9631C521.441 86.2348 521.506 86.4685 521.635 86.6641C521.767 86.8563 521.936 87.017 522.142 87.1463C522.347 87.2723 522.563 87.3767 522.788 87.4595C523.014 87.5391 523.221 87.6037 523.41 87.6534L524.444 87.9318C524.709 88.0014 525.004 88.0975 525.329 88.2202C525.657 88.3428 525.97 88.5102 526.268 88.7223C526.57 88.9311 526.818 89.1996 527.014 89.5277C527.21 89.8558 527.307 90.2585 527.307 90.7358C527.307 91.286 527.163 91.7831 526.875 92.2273C526.59 92.6714 526.172 93.0244 525.622 93.2862C525.075 93.5481 524.411 93.679 523.628 93.679C522.899 93.679 522.268 93.5613 521.734 93.326C521.204 93.0907 520.786 92.7625 520.481 92.3416C520.18 91.9207 520.009 91.4318 519.969 90.875H521.242C521.275 91.2595 521.404 91.5777 521.63 91.8295C521.858 92.0781 522.147 92.2637 522.495 92.3864C522.846 92.5057 523.224 92.5653 523.628 92.5653C524.099 92.5653 524.522 92.4891 524.896 92.3366C525.271 92.1809 525.567 91.9654 525.786 91.6903C526.005 91.4119 526.114 91.0871 526.114 90.7159C526.114 90.3778 526.02 90.1027 525.831 89.8906C525.642 89.6785 525.393 89.5062 525.085 89.3736C524.777 89.241 524.444 89.125 524.086 89.0256L522.833 88.6676C522.037 88.4389 521.408 88.1125 520.944 87.6882C520.48 87.264 520.248 86.7088 520.248 86.0227C520.248 85.4527 520.402 84.9555 520.71 84.5312C521.022 84.1037 521.439 83.7723 521.963 83.5369C522.49 83.2983 523.078 83.179 523.728 83.179C524.384 83.179 524.967 83.2966 525.478 83.532C525.988 83.764 526.393 84.0821 526.691 84.4865C526.992 84.8909 527.152 85.3499 527.168 85.8636H525.975ZM532.377 93.6591C531.641 93.6591 531.007 93.4967 530.473 93.1719C529.943 92.8438 529.533 92.3864 529.245 91.7997C528.96 91.2098 528.817 90.5237 528.817 89.7415C528.817 88.9593 528.96 88.2699 529.245 87.6733C529.533 87.0734 529.934 86.6061 530.448 86.2713C530.965 85.9332 531.568 85.7642 532.258 85.7642C532.656 85.7642 533.048 85.8305 533.436 85.9631C533.824 86.0956 534.177 86.3111 534.495 86.6094C534.813 86.9044 535.067 87.2955 535.256 87.7827C535.445 88.2699 535.539 88.8698 535.539 89.5824V90.0795H529.653V89.0653H534.346C534.346 88.6345 534.26 88.25 534.087 87.9119C533.918 87.5739 533.676 87.3071 533.362 87.1115C533.05 86.916 532.682 86.8182 532.258 86.8182C531.79 86.8182 531.386 86.9342 531.045 87.1662C530.707 87.3949 530.446 87.6932 530.264 88.0611C530.082 88.429 529.991 88.8234 529.991 89.2443V89.9205C529.991 90.4972 530.09 90.986 530.289 91.3871C530.491 91.7848 530.771 92.0881 531.129 92.2969C531.487 92.5024 531.903 92.6051 532.377 92.6051C532.685 92.6051 532.964 92.562 533.212 92.4759C533.464 92.3864 533.681 92.2538 533.864 92.0781C534.046 91.8991 534.187 91.6771 534.286 91.4119L535.42 91.7301C535.3 92.1146 535.1 92.4527 534.818 92.7443C534.536 93.0327 534.188 93.258 533.774 93.4205C533.36 93.5795 532.894 93.6591 532.377 93.6591ZM538.497 88.9062V93.5H537.324V85.8636H538.457V87.0568H538.557C538.736 86.669 539.008 86.3575 539.372 86.1222C539.737 85.8835 540.207 85.7642 540.784 85.7642C541.301 85.7642 541.754 85.8703 542.141 86.0824C542.529 86.2912 542.831 86.6094 543.046 87.0369C543.262 87.4612 543.369 87.9981 543.369 88.6477V93.5H542.196V88.7273C542.196 88.1274 542.04 87.66 541.729 87.3253C541.417 86.9872 540.99 86.8182 540.446 86.8182C540.071 86.8182 539.737 86.8994 539.442 87.0618C539.15 87.2242 538.92 87.4612 538.751 87.7727C538.582 88.0843 538.497 88.4621 538.497 88.9062ZM548.834 85.8636V86.858H544.877V85.8636H548.834ZM546.03 84.0341H547.204V91.3125C547.204 91.6439 547.252 91.8925 547.348 92.0582C547.447 92.2206 547.573 92.33 547.726 92.3864C547.881 92.4394 548.046 92.4659 548.218 92.4659C548.347 92.4659 548.453 92.4593 548.536 92.446C548.619 92.4295 548.685 92.4162 548.735 92.4062L548.974 93.4602C548.894 93.4901 548.783 93.5199 548.64 93.5497C548.498 93.5829 548.317 93.5994 548.099 93.5994C547.767 93.5994 547.442 93.5282 547.124 93.3857C546.809 93.2431 546.547 93.026 546.339 92.7344C546.133 92.4427 546.03 92.0748 546.03 91.6307V84.0341Z" fill="#1C76FD"/>
<rect x="582" y="74.5" width="150" height="26" rx="4" fill="#F9F9F9"/>
<rect x="56" y="140.5" width="731" height="73" rx="12" fill="white"/>
<rect x="56.5" y="141" width="730" height="72" rx="11.5" stroke="black" stroke-opacity="0.05"/>
<rect x="79" y="164.5" width="172" height="26" rx="4" fill="#F9F9F9"/>
<rect x="279" y="164.5" width="150" height="26" rx="4" fill="#F9F9F9"/>
<rect width="97" height="25" transform="translate(457 165.5)" fill="#FBFBFB"/>
<path d="M462.233 183.5V173.318H465.673C466.469 173.318 467.122 173.454 467.632 173.726C468.143 173.994 468.52 174.364 468.766 174.835C469.011 175.305 469.134 175.84 469.134 176.44C469.134 177.04 469.011 177.572 468.766 178.036C468.52 178.5 468.144 178.865 467.637 179.13C467.13 179.392 466.482 179.523 465.693 179.523H462.909V178.409H465.653C466.197 178.409 466.634 178.33 466.966 178.17C467.301 178.011 467.543 177.786 467.692 177.494C467.844 177.199 467.92 176.848 467.92 176.44C467.92 176.033 467.844 175.676 467.692 175.371C467.539 175.067 467.296 174.831 466.961 174.665C466.626 174.496 466.184 174.412 465.634 174.412H463.466V183.5H462.233ZM467.026 178.926L469.531 183.5H468.099L465.634 178.926H467.026ZM474.149 183.659C473.413 183.659 472.778 183.497 472.244 183.172C471.714 182.844 471.305 182.386 471.017 181.8C470.731 181.21 470.589 180.524 470.589 179.741C470.589 178.959 470.731 178.27 471.017 177.673C471.305 177.073 471.706 176.606 472.22 176.271C472.737 175.933 473.34 175.764 474.029 175.764C474.427 175.764 474.82 175.83 475.208 175.963C475.595 176.096 475.948 176.311 476.267 176.609C476.585 176.904 476.838 177.295 477.027 177.783C477.216 178.27 477.311 178.87 477.311 179.582V180.08H471.424V179.065H476.117C476.117 178.634 476.031 178.25 475.859 177.912C475.69 177.574 475.448 177.307 475.133 177.112C474.821 176.916 474.454 176.818 474.029 176.818C473.562 176.818 473.158 176.934 472.816 177.166C472.478 177.395 472.218 177.693 472.036 178.061C471.853 178.429 471.762 178.823 471.762 179.244V179.92C471.762 180.497 471.862 180.986 472.061 181.387C472.263 181.785 472.543 182.088 472.901 182.297C473.259 182.502 473.675 182.605 474.149 182.605C474.457 182.605 474.735 182.562 474.984 182.476C475.236 182.386 475.453 182.254 475.635 182.078C475.817 181.899 475.958 181.677 476.058 181.412L477.191 181.73C477.072 182.115 476.871 182.453 476.59 182.744C476.308 183.033 475.96 183.258 475.546 183.42C475.131 183.58 474.666 183.659 474.149 183.659ZM484.306 186.364V182.327H484.206C484.12 182.466 483.997 182.642 483.838 182.854C483.679 183.062 483.452 183.25 483.157 183.415C482.862 183.578 482.469 183.659 481.979 183.659C481.343 183.659 480.781 183.498 480.294 183.177C479.806 182.852 479.425 182.395 479.15 181.805C478.875 181.211 478.737 180.51 478.737 179.702C478.737 178.9 478.875 178.204 479.15 177.614C479.425 177.024 479.808 176.568 480.298 176.246C480.789 175.925 481.356 175.764 481.999 175.764C482.496 175.764 482.889 175.847 483.177 176.013C483.469 176.175 483.691 176.361 483.843 176.57C483.999 176.775 484.12 176.944 484.206 177.077H484.345V175.864H485.479V186.364H484.306ZM482.138 182.605C482.609 182.605 483.006 182.482 483.331 182.237C483.656 181.989 483.903 181.646 484.072 181.208C484.241 180.767 484.325 180.259 484.325 179.682C484.325 179.112 484.243 178.613 484.077 178.185C483.911 177.754 483.666 177.42 483.341 177.181C483.016 176.939 482.615 176.818 482.138 176.818C481.641 176.818 481.227 176.946 480.895 177.201C480.567 177.453 480.32 177.796 480.154 178.23C479.992 178.661 479.911 179.145 479.911 179.682C479.911 180.225 479.994 180.719 480.159 181.163C480.328 181.604 480.577 181.955 480.905 182.217C481.236 182.476 481.647 182.605 482.138 182.605ZM492.439 180.378V175.864H493.612V183.5H492.439V182.207H492.36C492.181 182.595 491.902 182.925 491.524 183.197C491.146 183.465 490.669 183.599 490.093 183.599C489.615 183.599 489.191 183.495 488.82 183.286C488.449 183.074 488.157 182.756 487.945 182.332C487.733 181.904 487.627 181.366 487.627 180.716V175.864H488.8V180.636C488.8 181.193 488.956 181.637 489.267 181.969C489.582 182.3 489.983 182.466 490.47 182.466C490.762 182.466 491.059 182.391 491.36 182.242C491.665 182.093 491.92 181.864 492.126 181.556C492.335 181.248 492.439 180.855 492.439 180.378ZM498.963 183.659C498.227 183.659 497.593 183.497 497.059 183.172C496.529 182.844 496.119 182.386 495.831 181.8C495.546 181.21 495.403 180.524 495.403 179.741C495.403 178.959 495.546 178.27 495.831 177.673C496.119 177.073 496.52 176.606 497.034 176.271C497.551 175.933 498.154 175.764 498.844 175.764C499.241 175.764 499.634 175.83 500.022 175.963C500.41 176.096 500.763 176.311 501.081 176.609C501.399 176.904 501.653 177.295 501.842 177.783C502.031 178.27 502.125 178.87 502.125 179.582V180.08H496.239V179.065H500.932C500.932 178.634 500.846 178.25 500.673 177.912C500.504 177.574 500.262 177.307 499.947 177.112C499.636 176.916 499.268 176.818 498.844 176.818C498.376 176.818 497.972 176.934 497.631 177.166C497.293 177.395 497.032 177.693 496.85 178.061C496.668 178.429 496.577 178.823 496.577 179.244V179.92C496.577 180.497 496.676 180.986 496.875 181.387C497.077 181.785 497.357 182.088 497.715 182.297C498.073 182.502 498.489 182.605 498.963 182.605C499.271 182.605 499.55 182.562 499.798 182.476C500.05 182.386 500.267 182.254 500.45 182.078C500.632 181.899 500.773 181.677 500.872 181.412L502.006 181.73C501.886 182.115 501.686 182.453 501.404 182.744C501.122 183.033 500.774 183.258 500.36 183.42C499.946 183.58 499.48 183.659 498.963 183.659ZM509.319 177.574L508.265 177.872C508.199 177.696 508.101 177.526 507.972 177.36C507.846 177.191 507.673 177.052 507.455 176.942C507.236 176.833 506.956 176.778 506.614 176.778C506.147 176.778 505.758 176.886 505.446 177.102C505.138 177.314 504.984 177.584 504.984 177.912C504.984 178.204 505.09 178.434 505.302 178.603C505.514 178.772 505.845 178.913 506.296 179.026L507.43 179.304C508.112 179.47 508.621 179.723 508.956 180.065C509.291 180.403 509.458 180.839 509.458 181.372C509.458 181.81 509.332 182.201 509.08 182.545C508.832 182.89 508.484 183.162 508.036 183.361C507.589 183.56 507.068 183.659 506.475 183.659C505.696 183.659 505.052 183.49 504.541 183.152C504.031 182.814 503.708 182.32 503.572 181.67L504.685 181.392C504.791 181.803 504.992 182.111 505.287 182.317C505.585 182.522 505.975 182.625 506.455 182.625C507.002 182.625 507.436 182.509 507.758 182.277C508.083 182.042 508.245 181.76 508.245 181.432C508.245 181.167 508.152 180.945 507.967 180.766C507.781 180.583 507.496 180.447 507.112 180.358L505.839 180.06C505.139 179.894 504.626 179.637 504.298 179.289C503.973 178.938 503.81 178.499 503.81 177.972C503.81 177.541 503.931 177.16 504.173 176.828C504.419 176.497 504.752 176.237 505.173 176.048C505.597 175.859 506.077 175.764 506.614 175.764C507.37 175.764 507.963 175.93 508.394 176.261C508.828 176.593 509.137 177.03 509.319 177.574ZM514.545 175.864V176.858H510.588V175.864H514.545ZM511.741 174.034H512.915V181.312C512.915 181.644 512.963 181.893 513.059 182.058C513.158 182.221 513.284 182.33 513.437 182.386C513.592 182.439 513.756 182.466 513.929 182.466C514.058 182.466 514.164 182.459 514.247 182.446C514.33 182.429 514.396 182.416 514.446 182.406L514.684 183.46C514.605 183.49 514.494 183.52 514.351 183.55C514.209 183.583 514.028 183.599 513.809 183.599C513.478 183.599 513.153 183.528 512.835 183.386C512.52 183.243 512.258 183.026 512.05 182.734C511.844 182.443 511.741 182.075 511.741 181.631V174.034ZM525.975 175.864C525.915 175.36 525.673 174.969 525.249 174.69C524.825 174.412 524.305 174.273 523.688 174.273C523.237 174.273 522.843 174.346 522.505 174.491C522.17 174.637 521.908 174.838 521.719 175.093C521.534 175.348 521.441 175.638 521.441 175.963C521.441 176.235 521.506 176.469 521.635 176.664C521.767 176.856 521.936 177.017 522.142 177.146C522.347 177.272 522.563 177.377 522.788 177.46C523.014 177.539 523.221 177.604 523.41 177.653L524.444 177.932C524.709 178.001 525.004 178.098 525.329 178.22C525.657 178.343 525.97 178.51 526.268 178.722C526.57 178.931 526.818 179.2 527.014 179.528C527.21 179.856 527.307 180.259 527.307 180.736C527.307 181.286 527.163 181.783 526.875 182.227C526.59 182.671 526.172 183.024 525.622 183.286C525.075 183.548 524.411 183.679 523.628 183.679C522.899 183.679 522.268 183.561 521.734 183.326C521.204 183.091 520.786 182.763 520.481 182.342C520.18 181.921 520.009 181.432 519.969 180.875H521.242C521.275 181.259 521.404 181.578 521.63 181.83C521.858 182.078 522.147 182.264 522.495 182.386C522.846 182.506 523.224 182.565 523.628 182.565C524.099 182.565 524.522 182.489 524.896 182.337C525.271 182.181 525.567 181.965 525.786 181.69C526.005 181.412 526.114 181.087 526.114 180.716C526.114 180.378 526.02 180.103 525.831 179.891C525.642 179.679 525.393 179.506 525.085 179.374C524.777 179.241 524.444 179.125 524.086 179.026L522.833 178.668C522.037 178.439 521.408 178.112 520.944 177.688C520.48 177.264 520.248 176.709 520.248 176.023C520.248 175.453 520.402 174.955 520.71 174.531C521.022 174.104 521.439 173.772 521.963 173.537C522.49 173.298 523.078 173.179 523.728 173.179C524.384 173.179 524.967 173.297 525.478 173.532C525.988 173.764 526.393 174.082 526.691 174.487C526.992 174.891 527.152 175.35 527.168 175.864H525.975ZM532.377 183.659C531.641 183.659 531.007 183.497 530.473 183.172C529.943 182.844 529.533 182.386 529.245 181.8C528.96 181.21 528.817 180.524 528.817 179.741C528.817 178.959 528.96 178.27 529.245 177.673C529.533 177.073 529.934 176.606 530.448 176.271C530.965 175.933 531.568 175.764 532.258 175.764C532.656 175.764 533.048 175.83 533.436 175.963C533.824 176.096 534.177 176.311 534.495 176.609C534.813 176.904 535.067 177.295 535.256 177.783C535.445 178.27 535.539 178.87 535.539 179.582V180.08H529.653V179.065H534.346C534.346 178.634 534.26 178.25 534.087 177.912C533.918 177.574 533.676 177.307 533.362 177.112C533.05 176.916 532.682 176.818 532.258 176.818C531.79 176.818 531.386 176.934 531.045 177.166C530.707 177.395 530.446 177.693 530.264 178.061C530.082 178.429 529.991 178.823 529.991 179.244V179.92C529.991 180.497 530.09 180.986 530.289 181.387C530.491 181.785 530.771 182.088 531.129 182.297C531.487 182.502 531.903 182.605 532.377 182.605C532.685 182.605 532.964 182.562 533.212 182.476C533.464 182.386 533.681 182.254 533.864 182.078C534.046 181.899 534.187 181.677 534.286 181.412L535.42 181.73C535.3 182.115 535.1 182.453 534.818 182.744C534.536 183.033 534.188 183.258 533.774 183.42C533.36 183.58 532.894 183.659 532.377 183.659ZM538.497 178.906V183.5H537.324V175.864H538.457V177.057H538.557C538.736 176.669 539.008 176.357 539.372 176.122C539.737 175.884 540.207 175.764 540.784 175.764C541.301 175.764 541.754 175.87 542.141 176.082C542.529 176.291 542.831 176.609 543.046 177.037C543.262 177.461 543.369 177.998 543.369 178.648V183.5H542.196V178.727C542.196 178.127 542.04 177.66 541.729 177.325C541.417 176.987 540.99 176.818 540.446 176.818C540.071 176.818 539.737 176.899 539.442 177.062C539.15 177.224 538.92 177.461 538.751 177.773C538.582 178.084 538.497 178.462 538.497 178.906ZM548.834 175.864V176.858H544.877V175.864H548.834ZM546.03 174.034H547.204V181.312C547.204 181.644 547.252 181.893 547.348 182.058C547.447 182.221 547.573 182.33 547.726 182.386C547.881 182.439 548.046 182.466 548.218 182.466C548.347 182.466 548.453 182.459 548.536 182.446C548.619 182.429 548.685 182.416 548.735 182.406L548.974 183.46C548.894 183.49 548.783 183.52 548.64 183.55C548.498 183.583 548.317 183.599 548.099 183.599C547.767 183.599 547.442 183.528 547.124 183.386C546.809 183.243 546.547 183.026 546.339 182.734C546.133 182.443 546.03 182.075 546.03 181.631V174.034Z" fill="#1C76FD"/>
<rect x="582" y="164.5" width="150" height="26" rx="4" fill="#F9F9F9"/>
<rect x="30" y="92.5" width="764" height="73" rx="12" fill="white"/>
<rect x="30.5" y="93" width="763" height="72" rx="11.5" stroke="black" stroke-opacity="0.05"/>
<path d="M47.5852 136V122.909H52.1619C53.0739 122.909 53.826 123.067 54.4183 123.382C55.0107 123.693 55.4517 124.113 55.7415 124.641C56.0313 125.165 56.1761 125.747 56.1761 126.386C56.1761 126.949 56.076 127.413 55.8757 127.78C55.6797 128.146 55.4197 128.436 55.0959 128.649C54.7763 128.862 54.429 129.02 54.054 129.122V129.25C54.4545 129.276 54.8572 129.416 55.2621 129.672C55.6669 129.928 56.0057 130.294 56.2784 130.771C56.5511 131.249 56.6875 131.832 56.6875 132.523C56.6875 133.179 56.5384 133.769 56.2401 134.293C55.9418 134.817 55.4709 135.233 54.8274 135.54C54.1839 135.847 53.3466 136 52.3153 136H47.5852ZM49.1705 134.594H52.3153C53.3509 134.594 54.0859 134.393 54.5206 133.993C54.9595 133.588 55.179 133.098 55.179 132.523C55.179 132.08 55.0661 131.67 54.8402 131.295C54.6143 130.916 54.2926 130.614 53.875 130.388C53.4574 130.158 52.9631 130.043 52.392 130.043H49.1705V134.594ZM49.1705 128.662H52.1108C52.5881 128.662 53.0185 128.568 53.402 128.381C53.7898 128.193 54.0966 127.929 54.3224 127.588C54.5526 127.247 54.6676 126.847 54.6676 126.386C54.6676 125.811 54.4673 125.323 54.0668 124.923C53.6662 124.518 53.0313 124.315 52.1619 124.315H49.1705V128.662ZM61.9769 136.23C61.3548 136.23 60.7901 136.113 60.283 135.879C59.7759 135.64 59.3732 135.297 59.0749 134.849C58.7766 134.398 58.6275 133.852 58.6275 133.213C58.6275 132.651 58.7383 132.195 58.9599 131.845C59.1815 131.491 59.4776 131.214 59.8484 131.014C60.2191 130.814 60.6282 130.665 61.0756 130.567C61.5273 130.464 61.9812 130.384 62.4371 130.324C63.0337 130.247 63.5174 130.19 63.8881 130.151C64.2631 130.109 64.5359 130.038 64.7063 129.94C64.881 129.842 64.9684 129.672 64.9684 129.429V129.378C64.9684 128.747 64.7958 128.257 64.4506 127.908C64.1097 127.558 63.592 127.384 62.8974 127.384C62.1772 127.384 61.6126 127.541 61.2035 127.857C60.7944 128.172 60.5067 128.509 60.3406 128.866L58.9087 128.355C59.1644 127.759 59.5053 127.294 59.9315 126.962C60.3619 126.625 60.8306 126.391 61.3377 126.259C61.8491 126.122 62.3519 126.054 62.8462 126.054C63.1616 126.054 63.5238 126.092 63.9329 126.169C64.3462 126.241 64.7447 126.393 65.1282 126.623C65.516 126.853 65.8377 127.2 66.0934 127.665C66.3491 128.129 66.4769 128.751 66.4769 129.531V136H64.9684V134.67H64.8917C64.7894 134.884 64.619 135.112 64.3803 135.354C64.1417 135.597 63.8242 135.804 63.4279 135.974C63.0316 136.145 62.5479 136.23 61.9769 136.23ZM62.207 134.875C62.8036 134.875 63.3065 134.758 63.7156 134.523C64.1289 134.289 64.44 133.987 64.6488 133.616C64.8619 133.245 64.9684 132.855 64.9684 132.446V131.065C64.9045 131.142 64.7638 131.212 64.5465 131.276C64.3335 131.336 64.0863 131.389 63.805 131.436C63.5281 131.479 63.2575 131.517 62.9933 131.551C62.7333 131.581 62.5224 131.607 62.3604 131.628C61.9684 131.679 61.6019 131.762 61.261 131.877C60.9244 131.988 60.6516 132.156 60.4428 132.382C60.2383 132.604 60.136 132.906 60.136 133.29C60.136 133.814 60.3299 134.21 60.7177 134.479C61.1097 134.743 61.6062 134.875 62.207 134.875ZM76.1848 128.381L74.8297 128.764C74.7445 128.538 74.6188 128.319 74.4526 128.106C74.2907 127.888 74.0691 127.71 73.7878 127.569C73.5066 127.428 73.1465 127.358 72.7076 127.358C72.1067 127.358 71.606 127.496 71.2054 127.773C70.8091 128.046 70.611 128.393 70.611 128.815C70.611 129.19 70.7473 129.487 71.0201 129.704C71.2928 129.921 71.7189 130.102 72.2985 130.247L73.7559 130.605C74.6337 130.818 75.2878 131.144 75.7182 131.583C76.1486 132.018 76.3638 132.578 76.3638 133.264C76.3638 133.827 76.2019 134.33 75.878 134.773C75.5584 135.216 75.111 135.565 74.5357 135.821C73.9604 136.077 73.2914 136.205 72.5286 136.205C71.5272 136.205 70.6983 135.987 70.0421 135.553C69.3858 135.118 68.9703 134.483 68.7956 133.648L70.2275 133.29C70.3638 133.818 70.6216 134.214 71.0009 134.479C71.3844 134.743 71.8851 134.875 72.503 134.875C73.2061 134.875 73.7644 134.726 74.1777 134.428C74.5953 134.125 74.8042 133.763 74.8042 133.341C74.8042 133 74.6848 132.714 74.4462 132.484C74.2076 132.25 73.8411 132.075 73.3468 131.96L71.7104 131.577C70.8113 131.364 70.1507 131.033 69.7289 130.586C69.3113 130.134 69.1025 129.57 69.1025 128.892C69.1025 128.338 69.258 127.848 69.5691 127.422C69.8844 126.996 70.3127 126.661 70.8539 126.418C71.3993 126.175 72.0172 126.054 72.7076 126.054C73.6792 126.054 74.4419 126.267 74.9959 126.693C75.5542 127.119 75.9505 127.682 76.1848 128.381ZM78.6346 136V126.182H80.1431V136H78.6346ZM79.4016 124.545C79.1076 124.545 78.854 124.445 78.641 124.245C78.4322 124.045 78.3278 123.804 78.3278 123.523C78.3278 123.241 78.4322 123.001 78.641 122.8C78.854 122.6 79.1076 122.5 79.4016 122.5C79.6957 122.5 79.9471 122.6 80.1559 122.8C80.369 123.001 80.4755 123.241 80.4755 123.523C80.4755 123.804 80.369 124.045 80.1559 124.245C79.9471 124.445 79.6957 124.545 79.4016 124.545ZM86.8947 136.205C85.9743 136.205 85.1816 135.987 84.5169 135.553C83.8521 135.118 83.3407 134.519 82.9828 133.756C82.6248 132.994 82.4458 132.122 82.4458 131.142C82.4458 130.145 82.6291 129.265 82.9956 128.502C83.3663 127.735 83.8819 127.136 84.5424 126.706C85.2072 126.271 85.9828 126.054 86.8691 126.054C87.5595 126.054 88.1816 126.182 88.7356 126.438C89.2896 126.693 89.7434 127.051 90.0971 127.511C90.4508 127.972 90.6703 128.509 90.7555 129.122H89.247C89.1319 128.675 88.8762 128.278 88.4799 127.933C88.0879 127.584 87.5595 127.409 86.8947 127.409C86.3066 127.409 85.791 127.562 85.3478 127.869C84.9089 128.172 84.5659 128.6 84.3187 129.154C84.0758 129.704 83.9544 130.349 83.9544 131.091C83.9544 131.849 84.0737 132.51 84.3123 133.072C84.5552 133.635 84.8961 134.072 85.335 134.383C85.7782 134.694 86.2981 134.849 86.8947 134.849C87.2868 134.849 87.6426 134.781 87.9622 134.645C88.2818 134.509 88.5524 134.312 88.774 134.057C88.9956 133.801 89.1532 133.494 89.247 133.136H90.7555C90.6703 133.716 90.4593 134.238 90.1227 134.702C89.7903 135.163 89.3493 135.529 88.7995 135.802C88.2541 136.07 87.6191 136.205 86.8947 136.205ZM98.2278 136V122.909H106.128V124.315H99.813V128.739H105.719V130.145H99.813V134.594H106.231V136H98.2278ZM112.488 136.205C111.67 136.205 110.948 135.998 110.322 135.585C109.695 135.167 109.205 134.579 108.851 133.82C108.498 133.058 108.321 132.156 108.321 131.116C108.321 130.085 108.498 129.19 108.851 128.432C109.205 127.673 109.697 127.087 110.328 126.674C110.959 126.261 111.687 126.054 112.514 126.054C113.153 126.054 113.658 126.161 114.029 126.374C114.404 126.582 114.689 126.821 114.885 127.089C115.086 127.354 115.241 127.571 115.352 127.741H115.48V122.909H116.988V136H115.531V134.491H115.352C115.241 134.67 115.084 134.896 114.879 135.169C114.675 135.437 114.383 135.678 114.003 135.891C113.624 136.1 113.119 136.205 112.488 136.205ZM112.693 134.849C113.298 134.849 113.809 134.692 114.227 134.376C114.645 134.057 114.962 133.616 115.18 133.053C115.397 132.487 115.506 131.832 115.506 131.091C115.506 130.358 115.399 129.717 115.186 129.167C114.973 128.613 114.657 128.183 114.24 127.876C113.822 127.565 113.307 127.409 112.693 127.409C112.054 127.409 111.521 127.573 111.095 127.901C110.673 128.225 110.356 128.666 110.143 129.224C109.934 129.778 109.829 130.401 109.829 131.091C109.829 131.79 109.936 132.425 110.149 132.996C110.366 133.562 110.686 134.014 111.108 134.351C111.534 134.683 112.062 134.849 112.693 134.849ZM126.148 131.986V126.182H127.657V136H126.148V134.338H126.046C125.816 134.837 125.458 135.261 124.972 135.61C124.486 135.955 123.873 136.128 123.131 136.128C122.518 136.128 121.972 135.994 121.495 135.725C121.018 135.452 120.643 135.043 120.37 134.498C120.097 133.948 119.961 133.256 119.961 132.42V126.182H121.469V132.318C121.469 133.034 121.67 133.605 122.07 134.031C122.475 134.457 122.991 134.67 123.617 134.67C123.992 134.67 124.373 134.575 124.761 134.383C125.153 134.191 125.481 133.897 125.746 133.501C126.014 133.104 126.148 132.599 126.148 131.986ZM134.408 136.205C133.488 136.205 132.695 135.987 132.031 135.553C131.366 135.118 130.854 134.519 130.496 133.756C130.138 132.994 129.96 132.122 129.96 131.142C129.96 130.145 130.143 129.265 130.509 128.502C130.88 127.735 131.396 127.136 132.056 126.706C132.721 126.271 133.496 126.054 134.383 126.054C135.073 126.054 135.695 126.182 136.249 126.438C136.803 126.693 137.257 127.051 137.611 127.511C137.964 127.972 138.184 128.509 138.269 129.122H136.761C136.646 128.675 136.39 128.278 135.994 127.933C135.602 127.584 135.073 127.409 134.408 127.409C133.82 127.409 133.305 127.562 132.862 127.869C132.423 128.172 132.08 128.6 131.832 129.154C131.589 129.704 131.468 130.349 131.468 131.091C131.468 131.849 131.587 132.51 131.826 133.072C132.069 133.635 132.41 134.072 132.849 134.383C133.292 134.694 133.812 134.849 134.408 134.849C134.8 134.849 135.156 134.781 135.476 134.645C135.795 134.509 136.066 134.312 136.288 134.057C136.509 133.801 136.667 133.494 136.761 133.136H138.269C138.184 133.716 137.973 134.238 137.636 134.702C137.304 135.163 136.863 135.529 136.313 135.802C135.768 136.07 135.133 136.205 134.408 136.205ZM143.364 136.23C142.741 136.23 142.177 136.113 141.67 135.879C141.163 135.64 140.76 135.297 140.462 134.849C140.163 134.398 140.014 133.852 140.014 133.213C140.014 132.651 140.125 132.195 140.347 131.845C140.568 131.491 140.864 131.214 141.235 131.014C141.606 130.814 142.015 130.665 142.462 130.567C142.914 130.464 143.368 130.384 143.824 130.324C144.42 130.247 144.904 130.19 145.275 130.151C145.65 130.109 145.923 130.038 146.093 129.94C146.268 129.842 146.355 129.672 146.355 129.429V129.378C146.355 128.747 146.183 128.257 145.837 127.908C145.496 127.558 144.979 127.384 144.284 127.384C143.564 127.384 142.999 127.541 142.59 127.857C142.181 128.172 141.893 128.509 141.727 128.866L140.295 128.355C140.551 127.759 140.892 127.294 141.318 126.962C141.749 126.625 142.217 126.391 142.724 126.259C143.236 126.122 143.739 126.054 144.233 126.054C144.548 126.054 144.911 126.092 145.32 126.169C145.733 126.241 146.131 126.393 146.515 126.623C146.903 126.853 147.224 127.2 147.48 127.665C147.736 128.129 147.864 128.751 147.864 129.531V136H146.355V134.67H146.278C146.176 134.884 146.006 135.112 145.767 135.354C145.528 135.597 145.211 135.804 144.815 135.974C144.418 136.145 143.935 136.23 143.364 136.23ZM143.594 134.875C144.19 134.875 144.693 134.758 145.102 134.523C145.516 134.289 145.827 133.987 146.036 133.616C146.249 133.245 146.355 132.855 146.355 132.446V131.065C146.291 131.142 146.151 131.212 145.933 131.276C145.72 131.336 145.473 131.389 145.192 131.436C144.915 131.479 144.644 131.517 144.38 131.551C144.12 131.581 143.909 131.607 143.747 131.628C143.355 131.679 142.989 131.762 142.648 131.877C142.311 131.988 142.038 132.156 141.83 132.382C141.625 132.604 141.523 132.906 141.523 133.29C141.523 133.814 141.717 134.21 142.104 134.479C142.496 134.743 142.993 134.875 143.594 134.875ZM154.887 126.182V127.46H149.799V126.182H154.887ZM151.282 123.83H152.79V133.188C152.79 133.614 152.852 133.933 152.976 134.146C153.104 134.355 153.265 134.496 153.461 134.568C153.662 134.636 153.873 134.67 154.094 134.67C154.26 134.67 154.397 134.662 154.503 134.645C154.61 134.624 154.695 134.607 154.759 134.594L155.066 135.949C154.964 135.987 154.821 136.026 154.638 136.064C154.454 136.107 154.222 136.128 153.941 136.128C153.515 136.128 153.097 136.036 152.688 135.853C152.283 135.67 151.947 135.391 151.678 135.016C151.414 134.641 151.282 134.168 151.282 133.597V123.83ZM157.156 136V126.182H158.665V136H157.156ZM157.923 124.545C157.629 124.545 157.376 124.445 157.162 124.245C156.954 124.045 156.849 123.804 156.849 123.523C156.849 123.241 156.954 123.001 157.162 122.8C157.376 122.6 157.629 122.5 157.923 122.5C158.217 122.5 158.469 122.6 158.677 122.8C158.89 123.001 158.997 123.241 158.997 123.523C158.997 123.804 158.89 124.045 158.677 124.245C158.469 124.445 158.217 124.545 157.923 124.545ZM165.416 136.205C164.53 136.205 163.752 135.994 163.083 135.572C162.418 135.15 161.898 134.56 161.523 133.801C161.153 133.043 160.967 132.156 160.967 131.142C160.967 130.119 161.153 129.227 161.523 128.464C161.898 127.701 162.418 127.109 163.083 126.687C163.752 126.265 164.53 126.054 165.416 126.054C166.303 126.054 167.078 126.265 167.743 126.687C168.412 127.109 168.932 127.701 169.303 128.464C169.678 129.227 169.865 130.119 169.865 131.142C169.865 132.156 169.678 133.043 169.303 133.801C168.932 134.56 168.412 135.15 167.743 135.572C167.078 135.994 166.303 136.205 165.416 136.205ZM165.416 134.849C166.089 134.849 166.643 134.677 167.078 134.332C167.513 133.987 167.835 133.533 168.043 132.97C168.252 132.408 168.357 131.798 168.357 131.142C168.357 130.486 168.252 129.874 168.043 129.308C167.835 128.741 167.513 128.283 167.078 127.933C166.643 127.584 166.089 127.409 165.416 127.409C164.743 127.409 164.189 127.584 163.754 127.933C163.32 128.283 162.998 128.741 162.789 129.308C162.58 129.874 162.476 130.486 162.476 131.142C162.476 131.798 162.58 132.408 162.789 132.97C162.998 133.533 163.32 133.987 163.754 134.332C164.189 134.677 164.743 134.849 165.416 134.849ZM173.676 130.094V136H172.168V126.182H173.625V127.716H173.753C173.983 127.217 174.333 126.817 174.801 126.514C175.27 126.207 175.875 126.054 176.617 126.054C177.281 126.054 177.863 126.19 178.362 126.463C178.86 126.732 179.248 127.141 179.525 127.69C179.802 128.236 179.941 128.926 179.941 129.761V136H178.432V129.864C178.432 129.092 178.232 128.491 177.831 128.061C177.431 127.626 176.881 127.409 176.182 127.409C175.7 127.409 175.27 127.513 174.891 127.722C174.516 127.931 174.22 128.236 174.002 128.636C173.785 129.037 173.676 129.523 173.676 130.094ZM187.964 136V122.909H192.387C193.414 122.909 194.254 123.094 194.906 123.465C195.562 123.832 196.048 124.328 196.363 124.955C196.679 125.581 196.836 126.28 196.836 127.051C196.836 127.822 196.679 128.523 196.363 129.154C196.052 129.785 195.571 130.288 194.919 130.663C194.267 131.033 193.431 131.219 192.413 131.219H189.243V129.812H192.362C193.065 129.812 193.63 129.691 194.056 129.448C194.482 129.205 194.791 128.877 194.983 128.464C195.179 128.046 195.277 127.575 195.277 127.051C195.277 126.527 195.179 126.058 194.983 125.645C194.791 125.232 194.48 124.908 194.049 124.673C193.619 124.435 193.048 124.315 192.336 124.315H189.549V136H187.964ZM202.075 136.23C201.452 136.23 200.888 136.113 200.381 135.879C199.874 135.64 199.471 135.297 199.173 134.849C198.874 134.398 198.725 133.852 198.725 133.213C198.725 132.651 198.836 132.195 199.058 131.845C199.279 131.491 199.575 131.214 199.946 131.014C200.317 130.814 200.726 130.665 201.173 130.567C201.625 130.464 202.079 130.384 202.535 130.324C203.131 130.247 203.615 130.19 203.986 130.151C204.361 130.109 204.634 130.038 204.804 129.94C204.979 129.842 205.066 129.672 205.066 129.429V129.378C205.066 128.747 204.893 128.257 204.548 127.908C204.207 127.558 203.69 127.384 202.995 127.384C202.275 127.384 201.71 127.541 201.301 127.857C200.892 128.172 200.604 128.509 200.438 128.866L199.006 128.355C199.262 127.759 199.603 127.294 200.029 126.962C200.46 126.625 200.928 126.391 201.435 126.259C201.947 126.122 202.45 126.054 202.944 126.054C203.259 126.054 203.621 126.092 204.031 126.169C204.444 126.241 204.842 126.393 205.226 126.623C205.614 126.853 205.935 127.2 206.191 127.665C206.447 128.129 206.575 128.751 206.575 129.531V136H205.066V134.67H204.989C204.887 134.884 204.717 135.112 204.478 135.354C204.239 135.597 203.922 135.804 203.526 135.974C203.129 136.145 202.646 136.23 202.075 136.23ZM202.305 134.875C202.901 134.875 203.404 134.758 203.813 134.523C204.227 134.289 204.538 133.987 204.746 133.616C204.96 133.245 205.066 132.855 205.066 132.446V131.065C205.002 131.142 204.862 131.212 204.644 131.276C204.431 131.336 204.184 131.389 203.903 131.436C203.626 131.479 203.355 131.517 203.091 131.551C202.831 131.581 202.62 131.607 202.458 131.628C202.066 131.679 201.7 131.762 201.359 131.877C201.022 131.988 200.749 132.156 200.54 132.382C200.336 132.604 200.234 132.906 200.234 133.29C200.234 133.814 200.428 134.21 200.815 134.479C201.207 134.743 201.704 134.875 202.305 134.875ZM213.317 136.205C212.396 136.205 211.604 135.987 210.939 135.553C210.274 135.118 209.763 134.519 209.405 133.756C209.047 132.994 208.868 132.122 208.868 131.142C208.868 130.145 209.051 129.265 209.417 128.502C209.788 127.735 210.304 127.136 210.964 126.706C211.629 126.271 212.405 126.054 213.291 126.054C213.981 126.054 214.604 126.182 215.157 126.438C215.711 126.693 216.165 127.051 216.519 127.511C216.873 127.972 217.092 128.509 217.177 129.122H215.669C215.554 128.675 215.298 128.278 214.902 127.933C214.51 127.584 213.981 127.409 213.317 127.409C212.729 127.409 212.213 127.562 211.77 127.869C211.331 128.172 210.988 128.6 210.741 129.154C210.498 129.704 210.376 130.349 210.376 131.091C210.376 131.849 210.496 132.51 210.734 133.072C210.977 133.635 211.318 134.072 211.757 134.383C212.2 134.694 212.72 134.849 213.317 134.849C213.709 134.849 214.064 134.781 214.384 134.645C214.704 134.509 214.974 134.312 215.196 134.057C215.417 133.801 215.575 133.494 215.669 133.136H217.177C217.092 133.716 216.881 134.238 216.545 134.702C216.212 135.163 215.771 135.529 215.221 135.802C214.676 136.07 214.041 136.205 213.317 136.205ZM220.789 132.42L220.763 130.554H221.07L225.366 126.182H227.232L222.655 130.81H222.528L220.789 132.42ZM219.383 136V122.909H220.891V136H219.383ZM225.621 136L221.786 131.142L222.86 130.094L227.539 136H225.621ZM232.063 136.23C231.441 136.23 230.876 136.113 230.369 135.879C229.862 135.64 229.459 135.297 229.161 134.849C228.863 134.398 228.713 133.852 228.713 133.213C228.713 132.651 228.824 132.195 229.046 131.845C229.267 131.491 229.564 131.214 229.934 131.014C230.305 130.814 230.714 130.665 231.162 130.567C231.613 130.464 232.067 130.384 232.523 130.324C233.12 130.247 233.603 130.19 233.974 130.151C234.349 130.109 234.622 130.038 234.792 129.94C234.967 129.842 235.054 129.672 235.054 129.429V129.378C235.054 128.747 234.882 128.257 234.537 127.908C234.196 127.558 233.678 127.384 232.983 127.384C232.263 127.384 231.699 127.541 231.289 127.857C230.88 128.172 230.593 128.509 230.426 128.866L228.995 128.355C229.25 127.759 229.591 127.294 230.017 126.962C230.448 126.625 230.917 126.391 231.424 126.259C231.935 126.122 232.438 126.054 232.932 126.054C233.248 126.054 233.61 126.092 234.019 126.169C234.432 126.241 234.831 126.393 235.214 126.623C235.602 126.853 235.924 127.2 236.179 127.665C236.435 128.129 236.563 128.751 236.563 129.531V136H235.054V134.67H234.978C234.875 134.884 234.705 135.112 234.466 135.354C234.228 135.597 233.91 135.804 233.514 135.974C233.118 136.145 232.634 136.23 232.063 136.23ZM232.293 134.875C232.89 134.875 233.392 134.758 233.801 134.523C234.215 134.289 234.526 133.987 234.735 133.616C234.948 133.245 235.054 132.855 235.054 132.446V131.065C234.99 131.142 234.85 131.212 234.632 131.276C234.419 131.336 234.172 131.389 233.891 131.436C233.614 131.479 233.343 131.517 233.079 131.551C232.819 131.581 232.608 131.607 232.446 131.628C232.054 131.679 231.688 131.762 231.347 131.877C231.01 131.988 230.738 132.156 230.529 132.382C230.324 132.604 230.222 132.906 230.222 133.29C230.222 133.814 230.416 134.21 230.804 134.479C231.196 134.743 231.692 134.875 232.293 134.875ZM243.279 139.886C242.551 139.886 241.924 139.793 241.4 139.605C240.876 139.422 240.439 139.179 240.09 138.876C239.744 138.578 239.47 138.259 239.265 137.918L240.467 137.074C240.603 137.253 240.776 137.457 240.985 137.688C241.193 137.922 241.479 138.124 241.841 138.295C242.208 138.469 242.687 138.557 243.279 138.557C244.072 138.557 244.726 138.365 245.242 137.982C245.757 137.598 246.015 136.997 246.015 136.179V134.185H245.887C245.776 134.364 245.619 134.585 245.414 134.849C245.214 135.109 244.924 135.342 244.545 135.546C244.17 135.746 243.663 135.847 243.024 135.847C242.231 135.847 241.519 135.659 240.889 135.284C240.262 134.909 239.766 134.364 239.399 133.648C239.037 132.932 238.856 132.062 238.856 131.04C238.856 130.034 239.033 129.158 239.387 128.413C239.74 127.663 240.232 127.083 240.863 126.674C241.494 126.261 242.222 126.054 243.049 126.054C243.688 126.054 244.195 126.161 244.57 126.374C244.95 126.582 245.24 126.821 245.44 127.089C245.644 127.354 245.802 127.571 245.913 127.741H246.066V126.182H247.524V136.281C247.524 137.125 247.332 137.811 246.948 138.339C246.569 138.872 246.058 139.262 245.414 139.509C244.775 139.761 244.063 139.886 243.279 139.886ZM243.228 134.491C243.833 134.491 244.345 134.353 244.762 134.076C245.18 133.799 245.497 133.401 245.715 132.881C245.932 132.361 246.041 131.739 246.041 131.014C246.041 130.307 245.934 129.683 245.721 129.141C245.508 128.6 245.193 128.176 244.775 127.869C244.357 127.562 243.842 127.409 243.228 127.409C242.589 127.409 242.056 127.571 241.63 127.895C241.208 128.219 240.891 128.653 240.678 129.199C240.469 129.744 240.365 130.349 240.365 131.014C240.365 131.696 240.471 132.299 240.684 132.823C240.901 133.343 241.221 133.752 241.643 134.05C242.069 134.344 242.597 134.491 243.228 134.491ZM254.401 136.205C253.455 136.205 252.639 135.996 251.953 135.578C251.271 135.156 250.745 134.568 250.374 133.814C250.008 133.055 249.825 132.173 249.825 131.168C249.825 130.162 250.008 129.276 250.374 128.509C250.745 127.737 251.261 127.136 251.921 126.706C252.586 126.271 253.362 126.054 254.248 126.054C254.759 126.054 255.264 126.139 255.763 126.31C256.262 126.48 256.715 126.757 257.124 127.141C257.534 127.52 257.86 128.023 258.102 128.649C258.345 129.276 258.467 130.047 258.467 130.963V131.602H250.899V130.298H256.933C256.933 129.744 256.822 129.25 256.6 128.815C256.383 128.381 256.072 128.038 255.667 127.786C255.267 127.535 254.794 127.409 254.248 127.409C253.647 127.409 253.127 127.558 252.688 127.857C252.254 128.151 251.919 128.534 251.685 129.007C251.45 129.48 251.333 129.987 251.333 130.528V131.398C251.333 132.139 251.461 132.768 251.717 133.283C251.977 133.795 252.337 134.185 252.797 134.453C253.257 134.717 253.792 134.849 254.401 134.849C254.798 134.849 255.156 134.794 255.475 134.683C255.799 134.568 256.078 134.398 256.313 134.172C256.547 133.942 256.728 133.656 256.856 133.315L258.313 133.724C258.16 134.219 257.902 134.653 257.54 135.028C257.178 135.399 256.73 135.689 256.198 135.898C255.665 136.102 255.066 136.205 254.401 136.205Z" fill="black" fill-opacity="0.6"/>
<path d="M289.585 136V122.909H297.435V124.315H291.17V128.739H296.847V130.145H291.17V136H289.585ZM303.341 136.205C302.395 136.205 301.579 135.996 300.893 135.578C300.211 135.156 299.685 134.568 299.314 133.814C298.947 133.055 298.764 132.173 298.764 131.168C298.764 130.162 298.947 129.276 299.314 128.509C299.685 127.737 300.2 127.136 300.861 126.706C301.526 126.271 302.301 126.054 303.188 126.054C303.699 126.054 304.204 126.139 304.702 126.31C305.201 126.48 305.655 126.757 306.064 127.141C306.473 127.52 306.799 128.023 307.042 128.649C307.285 129.276 307.406 130.047 307.406 130.963V131.602H299.838V130.298H305.872C305.872 129.744 305.761 129.25 305.54 128.815C305.322 128.381 305.011 128.038 304.607 127.786C304.206 127.535 303.733 127.409 303.188 127.409C302.587 127.409 302.067 127.558 301.628 127.857C301.193 128.151 300.859 128.534 300.624 129.007C300.39 129.48 300.273 129.987 300.273 130.528V131.398C300.273 132.139 300.401 132.768 300.656 133.283C300.916 133.795 301.276 134.185 301.737 134.453C302.197 134.717 302.732 134.849 303.341 134.849C303.737 134.849 304.095 134.794 304.415 134.683C304.739 134.568 305.018 134.398 305.252 134.172C305.487 133.942 305.668 133.656 305.795 133.315L307.253 133.724C307.099 134.219 306.842 134.653 306.479 135.028C306.117 135.399 305.67 135.689 305.137 135.898C304.604 136.102 304.006 136.205 303.341 136.205ZM309.906 136V122.909H311.414V127.741H311.542C311.653 127.571 311.806 127.354 312.002 127.089C312.202 126.821 312.488 126.582 312.859 126.374C313.234 126.161 313.741 126.054 314.38 126.054C315.207 126.054 315.935 126.261 316.566 126.674C317.197 127.087 317.689 127.673 318.043 128.432C318.396 129.19 318.573 130.085 318.573 131.116C318.573 132.156 318.396 133.058 318.043 133.82C317.689 134.579 317.199 135.167 316.572 135.585C315.946 135.998 315.224 136.205 314.406 136.205C313.775 136.205 313.27 136.1 312.891 135.891C312.511 135.678 312.219 135.437 312.015 135.169C311.81 134.896 311.653 134.67 311.542 134.491H311.363V136H309.906ZM311.388 131.091C311.388 131.832 311.497 132.487 311.714 133.053C311.932 133.616 312.249 134.057 312.667 134.376C313.085 134.692 313.596 134.849 314.201 134.849C314.832 134.849 315.358 134.683 315.78 134.351C316.206 134.014 316.526 133.562 316.739 132.996C316.956 132.425 317.065 131.79 317.065 131.091C317.065 130.401 316.958 129.778 316.745 129.224C316.536 128.666 316.219 128.225 315.793 127.901C315.371 127.573 314.84 127.409 314.201 127.409C313.587 127.409 313.072 127.565 312.654 127.876C312.237 128.183 311.921 128.613 311.708 129.167C311.495 129.717 311.388 130.358 311.388 131.091ZM320.881 136V126.182H322.338V127.665H322.44C322.619 127.179 322.943 126.785 323.412 126.482C323.881 126.18 324.409 126.028 324.997 126.028C325.108 126.028 325.246 126.031 325.413 126.035C325.579 126.039 325.705 126.045 325.79 126.054V127.588C325.739 127.575 325.621 127.556 325.438 127.531C325.259 127.501 325.07 127.486 324.869 127.486C324.392 127.486 323.966 127.586 323.591 127.786C323.22 127.982 322.926 128.255 322.709 128.604C322.496 128.95 322.389 129.344 322.389 129.787V136H320.881ZM333.765 131.986V126.182H335.274V136H333.765V134.338H333.663C333.433 134.837 333.075 135.261 332.589 135.61C332.104 135.955 331.49 136.128 330.748 136.128C330.135 136.128 329.589 135.994 329.112 135.725C328.635 135.452 328.26 135.043 327.987 134.498C327.714 133.948 327.578 133.256 327.578 132.42V126.182H329.086V132.318C329.086 133.034 329.287 133.605 329.687 134.031C330.092 134.457 330.608 134.67 331.234 134.67C331.609 134.67 331.991 134.575 332.378 134.383C332.77 134.191 333.099 133.897 333.363 133.501C333.631 133.104 333.765 132.599 333.765 131.986ZM340.926 136.23C340.304 136.23 339.739 136.113 339.232 135.879C338.725 135.64 338.322 135.297 338.024 134.849C337.726 134.398 337.577 133.852 337.577 133.213C337.577 132.651 337.688 132.195 337.909 131.845C338.131 131.491 338.427 131.214 338.798 131.014C339.168 130.814 339.577 130.665 340.025 130.567C340.477 130.464 340.93 130.384 341.386 130.324C341.983 130.247 342.467 130.19 342.837 130.151C343.212 130.109 343.485 130.038 343.656 129.94C343.83 129.842 343.918 129.672 343.918 129.429V129.378C343.918 128.747 343.745 128.257 343.4 127.908C343.059 127.558 342.541 127.384 341.847 127.384C341.126 127.384 340.562 127.541 340.153 127.857C339.744 128.172 339.456 128.509 339.29 128.866L337.858 128.355C338.114 127.759 338.455 127.294 338.881 126.962C339.311 126.625 339.78 126.391 340.287 126.259C340.798 126.122 341.301 126.054 341.795 126.054C342.111 126.054 342.473 126.092 342.882 126.169C343.295 126.241 343.694 126.393 344.077 126.623C344.465 126.853 344.787 127.2 345.043 127.665C345.298 128.129 345.426 128.751 345.426 129.531V136H343.918V134.67H343.841C343.739 134.884 343.568 135.112 343.33 135.354C343.091 135.597 342.773 135.804 342.377 135.974C341.981 136.145 341.497 136.23 340.926 136.23ZM341.156 134.875C341.753 134.875 342.256 134.758 342.665 134.523C343.078 134.289 343.389 133.987 343.598 133.616C343.811 133.245 343.918 132.855 343.918 132.446V131.065C343.854 131.142 343.713 131.212 343.496 131.276C343.283 131.336 343.036 131.389 342.754 131.436C342.477 131.479 342.207 131.517 341.942 131.551C341.683 131.581 341.472 131.607 341.31 131.628C340.918 131.679 340.551 131.762 340.21 131.877C339.874 131.988 339.601 132.156 339.392 132.382C339.188 132.604 339.085 132.906 339.085 133.29C339.085 133.814 339.279 134.21 339.667 134.479C340.059 134.743 340.555 134.875 341.156 134.875ZM348.18 136V126.182H349.637V127.665H349.739C349.918 127.179 350.242 126.785 350.711 126.482C351.18 126.18 351.708 126.028 352.296 126.028C352.407 126.028 352.545 126.031 352.711 126.035C352.878 126.039 353.003 126.045 353.089 126.054V127.588C353.037 127.575 352.92 127.556 352.737 127.531C352.558 127.501 352.368 127.486 352.168 127.486C351.691 127.486 351.265 127.586 350.89 127.786C350.519 127.982 350.225 128.255 350.008 128.604C349.795 128.95 349.688 129.344 349.688 129.787V136H348.18ZM356.147 139.682C355.892 139.682 355.664 139.661 355.463 139.618C355.263 139.58 355.124 139.541 355.048 139.503L355.431 138.173C355.798 138.267 356.122 138.301 356.403 138.276C356.684 138.25 356.933 138.124 357.151 137.898C357.372 137.677 357.575 137.317 357.758 136.818L358.039 136.051L354.409 126.182H356.045L358.755 134.006H358.857L361.568 126.182H363.204L359.036 137.432C358.849 137.939 358.617 138.359 358.34 138.691C358.063 139.028 357.741 139.277 357.374 139.439C357.012 139.601 356.603 139.682 356.147 139.682ZM374.323 136.179C373.573 136.179 372.898 136.03 372.297 135.732C371.696 135.433 371.214 135.024 370.852 134.504C370.49 133.984 370.292 133.392 370.258 132.727H371.792C371.851 133.32 372.12 133.81 372.597 134.197C373.079 134.581 373.654 134.773 374.323 134.773C374.86 134.773 375.337 134.647 375.755 134.396C376.177 134.144 376.507 133.799 376.746 133.36C376.988 132.917 377.11 132.416 377.11 131.858C377.11 131.287 376.984 130.778 376.733 130.33C376.486 129.879 376.145 129.523 375.71 129.263C375.275 129.003 374.779 128.871 374.221 128.866C373.82 128.862 373.409 128.924 372.987 129.052C372.565 129.175 372.218 129.335 371.945 129.531L370.462 129.352L371.255 122.909H378.056V124.315H372.584L372.124 128.176H372.201C372.469 127.963 372.806 127.786 373.211 127.646C373.616 127.505 374.037 127.435 374.476 127.435C375.278 127.435 375.991 127.626 376.618 128.01C377.248 128.389 377.743 128.909 378.101 129.57C378.463 130.23 378.644 130.984 378.644 131.832C378.644 132.668 378.456 133.413 378.081 134.07C377.711 134.722 377.199 135.237 376.547 135.616C375.895 135.991 375.154 136.179 374.323 136.179ZM382.967 134.21L382.864 134.901C382.792 135.386 382.681 135.906 382.532 136.46C382.387 137.014 382.236 137.536 382.078 138.026C381.92 138.516 381.79 138.906 381.688 139.196H380.538C380.593 138.923 380.665 138.563 380.755 138.116C380.844 137.668 380.934 137.168 381.023 136.614C381.117 136.064 381.194 135.501 381.254 134.926L381.33 134.21H382.967ZM390.798 136V134.849L395.119 130.119C395.627 129.565 396.044 129.084 396.372 128.675C396.7 128.261 396.943 127.874 397.101 127.511C397.263 127.145 397.344 126.761 397.344 126.361C397.344 125.901 397.233 125.502 397.012 125.165C396.794 124.829 396.496 124.569 396.117 124.386C395.737 124.202 395.311 124.111 394.838 124.111C394.335 124.111 393.896 124.215 393.521 124.424C393.151 124.629 392.863 124.916 392.659 125.287C392.458 125.658 392.358 126.092 392.358 126.591H390.85C390.85 125.824 391.026 125.151 391.38 124.571C391.734 123.991 392.215 123.54 392.825 123.216C393.438 122.892 394.127 122.73 394.889 122.73C395.656 122.73 396.336 122.892 396.928 123.216C397.521 123.54 397.985 123.977 398.322 124.526C398.659 125.076 398.827 125.688 398.827 126.361C398.827 126.842 398.74 127.313 398.565 127.773C398.394 128.229 398.096 128.739 397.67 129.301C397.248 129.859 396.662 130.541 395.912 131.347L392.972 134.491V134.594H399.057V136H390.798ZM405.967 136.179C405.004 136.179 404.183 135.917 403.506 135.393C402.828 134.864 402.311 134.099 401.953 133.098C401.595 132.092 401.416 130.878 401.416 129.455C401.416 128.04 401.595 126.832 401.953 125.83C402.315 124.825 402.835 124.058 403.512 123.529C404.194 122.996 405.012 122.73 405.967 122.73C406.921 122.73 407.737 122.996 408.415 123.529C409.097 124.058 409.617 124.825 409.975 125.83C410.337 126.832 410.518 128.04 410.518 129.455C410.518 130.878 410.339 132.092 409.981 133.098C409.623 134.099 409.105 134.864 408.428 135.393C407.75 135.917 406.93 136.179 405.967 136.179ZM405.967 134.773C406.921 134.773 407.663 134.312 408.191 133.392C408.72 132.472 408.984 131.159 408.984 129.455C408.984 128.321 408.862 127.356 408.619 126.559C408.381 125.762 408.036 125.155 407.584 124.737C407.137 124.32 406.597 124.111 405.967 124.111C405.021 124.111 404.281 124.577 403.749 125.511C403.216 126.44 402.95 127.754 402.95 129.455C402.95 130.588 403.069 131.551 403.308 132.344C403.546 133.136 403.889 133.739 404.337 134.153C404.789 134.566 405.332 134.773 405.967 134.773ZM412.947 136V134.849L417.268 130.119C417.775 129.565 418.193 129.084 418.521 128.675C418.849 128.261 419.092 127.874 419.249 127.511C419.411 127.145 419.492 126.761 419.492 126.361C419.492 125.901 419.382 125.502 419.16 125.165C418.943 124.829 418.644 124.569 418.265 124.386C417.886 124.202 417.46 124.111 416.987 124.111C416.484 124.111 416.045 124.215 415.67 124.424C415.299 124.629 415.012 124.916 414.807 125.287C414.607 125.658 414.507 126.092 414.507 126.591H412.998C412.998 125.824 413.175 125.151 413.529 124.571C413.882 123.991 414.364 123.54 414.973 123.216C415.587 122.892 416.275 122.73 417.038 122.73C417.805 122.73 418.485 122.892 419.077 123.216C419.669 123.54 420.134 123.977 420.47 124.526C420.807 125.076 420.975 125.688 420.975 126.361C420.975 126.842 420.888 127.313 420.713 127.773C420.543 128.229 420.244 128.739 419.818 129.301C419.396 129.859 418.811 130.541 418.061 131.347L415.12 134.491V134.594H421.205V136H412.947ZM423.257 133.315V132.011L429.01 122.909H429.956V124.929H429.317L424.97 131.807V131.909H432.718V133.315H423.257ZM429.419 136V132.919V132.312V122.909H430.928V136H429.419Z" fill="black" fill-opacity="0.6"/>
<rect width="97" height="25" transform="translate(462 116.5)" fill="#FBFBFB"/>
<path d="M467.233 134.5V124.318H470.673C471.469 124.318 472.122 124.454 472.632 124.726C473.143 124.994 473.52 125.364 473.766 125.835C474.011 126.305 474.134 126.84 474.134 127.44C474.134 128.04 474.011 128.572 473.766 129.036C473.52 129.5 473.144 129.865 472.637 130.13C472.13 130.392 471.482 130.523 470.693 130.523H467.909V129.409H470.653C471.197 129.409 471.634 129.33 471.966 129.17C472.301 129.011 472.543 128.786 472.692 128.494C472.844 128.199 472.92 127.848 472.92 127.44C472.92 127.033 472.844 126.676 472.692 126.371C472.539 126.067 472.296 125.831 471.961 125.665C471.626 125.496 471.184 125.412 470.634 125.412H468.466V134.5H467.233ZM472.026 129.926L474.531 134.5H473.099L470.634 129.926H472.026ZM479.149 134.659C478.413 134.659 477.778 134.497 477.244 134.172C476.714 133.844 476.305 133.386 476.017 132.8C475.731 132.21 475.589 131.524 475.589 130.741C475.589 129.959 475.731 129.27 476.017 128.673C476.305 128.073 476.706 127.606 477.22 127.271C477.737 126.933 478.34 126.764 479.029 126.764C479.427 126.764 479.82 126.83 480.208 126.963C480.595 127.096 480.948 127.311 481.267 127.609C481.585 127.904 481.838 128.295 482.027 128.783C482.216 129.27 482.311 129.87 482.311 130.582V131.08H476.424V130.065H481.117C481.117 129.634 481.031 129.25 480.859 128.912C480.69 128.574 480.448 128.307 480.133 128.112C479.821 127.916 479.454 127.818 479.029 127.818C478.562 127.818 478.158 127.934 477.816 128.166C477.478 128.395 477.218 128.693 477.036 129.061C476.853 129.429 476.762 129.823 476.762 130.244V130.92C476.762 131.497 476.862 131.986 477.061 132.387C477.263 132.785 477.543 133.088 477.901 133.297C478.259 133.502 478.675 133.605 479.149 133.605C479.457 133.605 479.735 133.562 479.984 133.476C480.236 133.386 480.453 133.254 480.635 133.078C480.817 132.899 480.958 132.677 481.058 132.412L482.191 132.73C482.072 133.115 481.871 133.453 481.59 133.744C481.308 134.033 480.96 134.258 480.546 134.42C480.131 134.58 479.666 134.659 479.149 134.659ZM489.306 137.364V133.327H489.206C489.12 133.466 488.997 133.642 488.838 133.854C488.679 134.062 488.452 134.25 488.157 134.415C487.862 134.578 487.469 134.659 486.979 134.659C486.343 134.659 485.781 134.498 485.294 134.177C484.806 133.852 484.425 133.395 484.15 132.805C483.875 132.211 483.737 131.51 483.737 130.702C483.737 129.9 483.875 129.204 484.15 128.614C484.425 128.024 484.808 127.568 485.298 127.246C485.789 126.925 486.356 126.764 486.999 126.764C487.496 126.764 487.889 126.847 488.177 127.013C488.469 127.175 488.691 127.361 488.843 127.57C488.999 127.775 489.12 127.944 489.206 128.077H489.345V126.864H490.479V137.364H489.306ZM487.138 133.605C487.609 133.605 488.006 133.482 488.331 133.237C488.656 132.989 488.903 132.646 489.072 132.208C489.241 131.767 489.325 131.259 489.325 130.682C489.325 130.112 489.243 129.613 489.077 129.185C488.911 128.754 488.666 128.42 488.341 128.181C488.016 127.939 487.615 127.818 487.138 127.818C486.641 127.818 486.227 127.946 485.895 128.201C485.567 128.453 485.32 128.796 485.154 129.23C484.992 129.661 484.911 130.145 484.911 130.682C484.911 131.225 484.994 131.719 485.159 132.163C485.328 132.604 485.577 132.955 485.905 133.217C486.236 133.476 486.647 133.605 487.138 133.605ZM497.439 131.378V126.864H498.612V134.5H497.439V133.207H497.36C497.181 133.595 496.902 133.925 496.524 134.197C496.146 134.465 495.669 134.599 495.093 134.599C494.615 134.599 494.191 134.495 493.82 134.286C493.449 134.074 493.157 133.756 492.945 133.332C492.733 132.904 492.627 132.366 492.627 131.716V126.864H493.8V131.636C493.8 132.193 493.956 132.637 494.267 132.969C494.582 133.3 494.983 133.466 495.47 133.466C495.762 133.466 496.059 133.391 496.36 133.242C496.665 133.093 496.92 132.864 497.126 132.556C497.335 132.248 497.439 131.855 497.439 131.378ZM503.963 134.659C503.227 134.659 502.593 134.497 502.059 134.172C501.529 133.844 501.119 133.386 500.831 132.8C500.546 132.21 500.403 131.524 500.403 130.741C500.403 129.959 500.546 129.27 500.831 128.673C501.119 128.073 501.52 127.606 502.034 127.271C502.551 126.933 503.154 126.764 503.844 126.764C504.241 126.764 504.634 126.83 505.022 126.963C505.41 127.096 505.763 127.311 506.081 127.609C506.399 127.904 506.653 128.295 506.842 128.783C507.031 129.27 507.125 129.87 507.125 130.582V131.08H501.239V130.065H505.932C505.932 129.634 505.846 129.25 505.673 128.912C505.504 128.574 505.262 128.307 504.947 128.112C504.636 127.916 504.268 127.818 503.844 127.818C503.376 127.818 502.972 127.934 502.631 128.166C502.293 128.395 502.032 128.693 501.85 129.061C501.668 129.429 501.577 129.823 501.577 130.244V130.92C501.577 131.497 501.676 131.986 501.875 132.387C502.077 132.785 502.357 133.088 502.715 133.297C503.073 133.502 503.489 133.605 503.963 133.605C504.271 133.605 504.55 133.562 504.798 133.476C505.05 133.386 505.267 133.254 505.45 133.078C505.632 132.899 505.773 132.677 505.872 132.412L507.006 132.73C506.886 133.115 506.686 133.453 506.404 133.744C506.122 134.033 505.774 134.258 505.36 134.42C504.946 134.58 504.48 134.659 503.963 134.659ZM514.319 128.574L513.265 128.872C513.199 128.696 513.101 128.526 512.972 128.36C512.846 128.191 512.673 128.052 512.455 127.942C512.236 127.833 511.956 127.778 511.614 127.778C511.147 127.778 510.758 127.886 510.446 128.102C510.138 128.314 509.984 128.584 509.984 128.912C509.984 129.204 510.09 129.434 510.302 129.603C510.514 129.772 510.845 129.913 511.296 130.026L512.43 130.304C513.112 130.47 513.621 130.723 513.956 131.065C514.291 131.403 514.458 131.839 514.458 132.372C514.458 132.81 514.332 133.201 514.08 133.545C513.832 133.89 513.484 134.162 513.036 134.361C512.589 134.56 512.068 134.659 511.475 134.659C510.696 134.659 510.052 134.49 509.541 134.152C509.031 133.814 508.708 133.32 508.572 132.67L509.685 132.392C509.791 132.803 509.992 133.111 510.287 133.317C510.585 133.522 510.975 133.625 511.455 133.625C512.002 133.625 512.436 133.509 512.758 133.277C513.083 133.042 513.245 132.76 513.245 132.432C513.245 132.167 513.152 131.945 512.967 131.766C512.781 131.583 512.496 131.447 512.112 131.358L510.839 131.06C510.139 130.894 509.626 130.637 509.298 130.289C508.973 129.938 508.81 129.499 508.81 128.972C508.81 128.541 508.931 128.16 509.173 127.828C509.419 127.497 509.752 127.237 510.173 127.048C510.597 126.859 511.077 126.764 511.614 126.764C512.37 126.764 512.963 126.93 513.394 127.261C513.828 127.593 514.137 128.03 514.319 128.574ZM519.545 126.864V127.858H515.588V126.864H519.545ZM516.741 125.034H517.915V132.312C517.915 132.644 517.963 132.893 518.059 133.058C518.158 133.221 518.284 133.33 518.437 133.386C518.592 133.439 518.756 133.466 518.929 133.466C519.058 133.466 519.164 133.459 519.247 133.446C519.33 133.429 519.396 133.416 519.446 133.406L519.684 134.46C519.605 134.49 519.494 134.52 519.351 134.55C519.209 134.583 519.028 134.599 518.809 134.599C518.478 134.599 518.153 134.528 517.835 134.386C517.52 134.243 517.258 134.026 517.05 133.734C516.844 133.443 516.741 133.075 516.741 132.631V125.034ZM530.975 126.864C530.915 126.36 530.673 125.969 530.249 125.69C529.825 125.412 529.305 125.273 528.688 125.273C528.237 125.273 527.843 125.346 527.505 125.491C527.17 125.637 526.908 125.838 526.719 126.093C526.534 126.348 526.441 126.638 526.441 126.963C526.441 127.235 526.506 127.469 526.635 127.664C526.767 127.856 526.936 128.017 527.142 128.146C527.347 128.272 527.563 128.377 527.788 128.46C528.014 128.539 528.221 128.604 528.41 128.653L529.444 128.932C529.709 129.001 530.004 129.098 530.329 129.22C530.657 129.343 530.97 129.51 531.268 129.722C531.57 129.931 531.818 130.2 532.014 130.528C532.21 130.856 532.307 131.259 532.307 131.736C532.307 132.286 532.163 132.783 531.875 133.227C531.59 133.671 531.172 134.024 530.622 134.286C530.075 134.548 529.411 134.679 528.628 134.679C527.899 134.679 527.268 134.561 526.734 134.326C526.204 134.091 525.786 133.763 525.481 133.342C525.18 132.921 525.009 132.432 524.969 131.875H526.242C526.275 132.259 526.404 132.578 526.63 132.83C526.858 133.078 527.147 133.264 527.495 133.386C527.846 133.506 528.224 133.565 528.628 133.565C529.099 133.565 529.522 133.489 529.896 133.337C530.271 133.181 530.567 132.965 530.786 132.69C531.005 132.412 531.114 132.087 531.114 131.716C531.114 131.378 531.02 131.103 530.831 130.891C530.642 130.679 530.393 130.506 530.085 130.374C529.777 130.241 529.444 130.125 529.086 130.026L527.833 129.668C527.037 129.439 526.408 129.112 525.944 128.688C525.48 128.264 525.248 127.709 525.248 127.023C525.248 126.453 525.402 125.955 525.71 125.531C526.022 125.104 526.439 124.772 526.963 124.537C527.49 124.298 528.078 124.179 528.728 124.179C529.384 124.179 529.967 124.297 530.478 124.532C530.988 124.764 531.393 125.082 531.691 125.487C531.992 125.891 532.152 126.35 532.168 126.864H530.975ZM537.377 134.659C536.641 134.659 536.007 134.497 535.473 134.172C534.943 133.844 534.533 133.386 534.245 132.8C533.96 132.21 533.817 131.524 533.817 130.741C533.817 129.959 533.96 129.27 534.245 128.673C534.533 128.073 534.934 127.606 535.448 127.271C535.965 126.933 536.568 126.764 537.258 126.764C537.656 126.764 538.048 126.83 538.436 126.963C538.824 127.096 539.177 127.311 539.495 127.609C539.813 127.904 540.067 128.295 540.256 128.783C540.445 129.27 540.539 129.87 540.539 130.582V131.08H534.653V130.065H539.346C539.346 129.634 539.26 129.25 539.087 128.912C538.918 128.574 538.676 128.307 538.362 128.112C538.05 127.916 537.682 127.818 537.258 127.818C536.79 127.818 536.386 127.934 536.045 128.166C535.707 128.395 535.446 128.693 535.264 129.061C535.082 129.429 534.991 129.823 534.991 130.244V130.92C534.991 131.497 535.09 131.986 535.289 132.387C535.491 132.785 535.771 133.088 536.129 133.297C536.487 133.502 536.903 133.605 537.377 133.605C537.685 133.605 537.964 133.562 538.212 133.476C538.464 133.386 538.681 133.254 538.864 133.078C539.046 132.899 539.187 132.677 539.286 132.412L540.42 132.73C540.3 133.115 540.1 133.453 539.818 133.744C539.536 134.033 539.188 134.258 538.774 134.42C538.36 134.58 537.894 134.659 537.377 134.659ZM543.497 129.906V134.5H542.324V126.864H543.457V128.057H543.557C543.736 127.669 544.008 127.357 544.372 127.122C544.737 126.884 545.207 126.764 545.784 126.764C546.301 126.764 546.754 126.87 547.141 127.082C547.529 127.291 547.831 127.609 548.046 128.037C548.262 128.461 548.369 128.998 548.369 129.648V134.5H547.196V129.727C547.196 129.127 547.04 128.66 546.729 128.325C546.417 127.987 545.99 127.818 545.446 127.818C545.071 127.818 544.737 127.899 544.442 128.062C544.15 128.224 543.92 128.461 543.751 128.773C543.582 129.084 543.497 129.462 543.497 129.906ZM553.834 126.864V127.858H549.877V126.864H553.834ZM551.03 125.034H552.204V132.312C552.204 132.644 552.252 132.893 552.348 133.058C552.447 133.221 552.573 133.33 552.726 133.386C552.881 133.439 553.046 133.466 553.218 133.466C553.347 133.466 553.453 133.459 553.536 133.446C553.619 133.429 553.685 133.416 553.735 133.406L553.974 134.46C553.894 134.49 553.783 134.52 553.64 134.55C553.498 134.583 553.317 134.599 553.099 134.599C552.767 134.599 552.442 134.528 552.124 134.386C551.809 134.243 551.547 134.026 551.339 133.734C551.133 133.443 551.03 133.075 551.03 132.631V125.034Z" fill="#1C76FD"/>
<path d="M598.966 122.909V136H597.432L590.298 125.722H590.17V136H588.585V122.909H590.119L597.278 133.213H597.406V122.909H598.966ZM605.922 136.205C605.036 136.205 604.258 135.994 603.589 135.572C602.924 135.15 602.404 134.56 602.029 133.801C601.659 133.043 601.473 132.156 601.473 131.142C601.473 130.119 601.659 129.227 602.029 128.464C602.404 127.701 602.924 127.109 603.589 126.687C604.258 126.265 605.036 126.054 605.922 126.054C606.808 126.054 607.584 126.265 608.249 126.687C608.918 127.109 609.438 127.701 609.808 128.464C610.183 129.227 610.371 130.119 610.371 131.142C610.371 132.156 610.183 133.043 609.808 133.801C609.438 134.56 608.918 135.15 608.249 135.572C607.584 135.994 606.808 136.205 605.922 136.205ZM605.922 134.849C606.595 134.849 607.149 134.677 607.584 134.332C608.019 133.987 608.34 133.533 608.549 132.97C608.758 132.408 608.862 131.798 608.862 131.142C608.862 130.486 608.758 129.874 608.549 129.308C608.34 128.741 608.019 128.283 607.584 127.933C607.149 127.584 606.595 127.409 605.922 127.409C605.249 127.409 604.695 127.584 604.26 127.933C603.825 128.283 603.504 128.741 603.295 129.308C603.086 129.874 602.982 130.486 602.982 131.142C602.982 131.798 603.086 132.408 603.295 132.97C603.504 133.533 603.825 133.987 604.26 134.332C604.695 134.677 605.249 134.849 605.922 134.849ZM616.944 126.182V127.46H611.855V126.182H616.944ZM613.338 123.83H614.847V133.188C614.847 133.614 614.909 133.933 615.032 134.146C615.16 134.355 615.322 134.496 615.518 134.568C615.718 134.636 615.929 134.67 616.151 134.67C616.317 134.67 616.453 134.662 616.56 134.645C616.667 134.624 616.752 134.607 616.816 134.594L617.123 135.949C617.02 135.987 616.877 136.026 616.694 136.064C616.511 136.107 616.279 136.128 615.998 136.128C615.571 136.128 615.154 136.036 614.745 135.853C614.34 135.67 614.003 135.391 613.735 135.016C613.471 134.641 613.338 134.168 613.338 133.597V123.83ZM625.017 136H623.355L628.162 122.909H629.798L634.605 136H632.943L629.031 124.98H628.929L625.017 136ZM625.63 130.886H632.329V132.293H625.63V130.886ZM643.394 128.381L642.039 128.764C641.953 128.538 641.828 128.319 641.662 128.106C641.5 127.888 641.278 127.71 640.997 127.569C640.716 127.428 640.355 127.358 639.917 127.358C639.316 127.358 638.815 127.496 638.414 127.773C638.018 128.046 637.82 128.393 637.82 128.815C637.82 129.19 637.956 129.487 638.229 129.704C638.502 129.921 638.928 130.102 639.507 130.247L640.965 130.605C641.843 130.818 642.497 131.144 642.927 131.583C643.358 132.018 643.573 132.578 643.573 133.264C643.573 133.827 643.411 134.33 643.087 134.773C642.767 135.216 642.32 135.565 641.745 135.821C641.169 136.077 640.5 136.205 639.738 136.205C638.736 136.205 637.907 135.987 637.251 135.553C636.595 135.118 636.179 134.483 636.005 133.648L637.436 133.29C637.573 133.818 637.831 134.214 638.21 134.479C638.593 134.743 639.094 134.875 639.712 134.875C640.415 134.875 640.973 134.726 641.387 134.428C641.804 134.125 642.013 133.763 642.013 133.341C642.013 133 641.894 132.714 641.655 132.484C641.417 132.25 641.05 132.075 640.556 131.96L638.919 131.577C638.02 131.364 637.36 131.033 636.938 130.586C636.52 130.134 636.311 129.57 636.311 128.892C636.311 128.338 636.467 127.848 636.778 127.422C637.093 126.996 637.522 126.661 638.063 126.418C638.608 126.175 639.226 126.054 639.917 126.054C640.888 126.054 641.651 126.267 642.205 126.693C642.763 127.119 643.159 127.682 643.394 128.381ZM652.798 128.381L651.443 128.764C651.358 128.538 651.232 128.319 651.066 128.106C650.904 127.888 650.682 127.71 650.401 127.569C650.12 127.428 649.76 127.358 649.321 127.358C648.72 127.358 648.219 127.496 647.819 127.773C647.422 128.046 647.224 128.393 647.224 128.815C647.224 129.19 647.361 129.487 647.633 129.704C647.906 129.921 648.332 130.102 648.912 130.247L650.369 130.605C651.247 130.818 651.901 131.144 652.331 131.583C652.762 132.018 652.977 132.578 652.977 133.264C652.977 133.827 652.815 134.33 652.491 134.773C652.172 135.216 651.724 135.565 651.149 135.821C650.574 136.077 649.905 136.205 649.142 136.205C648.14 136.205 647.312 135.987 646.655 135.553C645.999 135.118 645.584 134.483 645.409 133.648L646.841 133.29C646.977 133.818 647.235 134.214 647.614 134.479C647.998 134.743 648.498 134.875 649.116 134.875C649.819 134.875 650.378 134.726 650.791 134.428C651.209 134.125 651.417 133.763 651.417 133.341C651.417 133 651.298 132.714 651.059 132.484C650.821 132.25 650.454 132.075 649.96 131.96L648.324 131.577C647.425 131.364 646.764 131.033 646.342 130.586C645.925 130.134 645.716 129.57 645.716 128.892C645.716 128.338 645.871 127.848 646.182 127.422C646.498 126.996 646.926 126.661 647.467 126.418C648.013 126.175 648.631 126.054 649.321 126.054C650.292 126.054 651.055 126.267 651.609 126.693C652.167 127.119 652.564 127.682 652.798 128.381ZM655.248 136V126.182H656.756V136H655.248ZM656.015 124.545C655.721 124.545 655.467 124.445 655.254 124.245C655.045 124.045 654.941 123.804 654.941 123.523C654.941 123.241 655.045 123.001 655.254 122.8C655.467 122.6 655.721 122.5 656.015 122.5C656.309 122.5 656.56 122.6 656.769 122.8C656.982 123.001 657.089 123.241 657.089 123.523C657.089 123.804 656.982 124.045 656.769 124.245C656.56 124.445 656.309 124.545 656.015 124.545ZM663.482 139.886C662.754 139.886 662.127 139.793 661.603 139.605C661.079 139.422 660.642 139.179 660.293 138.876C659.948 138.578 659.673 138.259 659.468 137.918L660.67 137.074C660.806 137.253 660.979 137.457 661.188 137.688C661.396 137.922 661.682 138.124 662.044 138.295C662.411 138.469 662.89 138.557 663.482 138.557C664.275 138.557 664.929 138.365 665.445 137.982C665.96 137.598 666.218 136.997 666.218 136.179V134.185H666.09C665.98 134.364 665.822 134.585 665.617 134.849C665.417 135.109 665.127 135.342 664.748 135.546C664.373 135.746 663.866 135.847 663.227 135.847C662.434 135.847 661.722 135.659 661.092 135.284C660.465 134.909 659.969 134.364 659.602 133.648C659.24 132.932 659.059 132.062 659.059 131.04C659.059 130.034 659.236 129.158 659.59 128.413C659.943 127.663 660.436 127.083 661.066 126.674C661.697 126.261 662.426 126.054 663.252 126.054C663.892 126.054 664.399 126.161 664.774 126.374C665.153 126.582 665.443 126.821 665.643 127.089C665.847 127.354 666.005 127.571 666.116 127.741H666.269V126.182H667.727V136.281C667.727 137.125 667.535 137.811 667.151 138.339C666.772 138.872 666.261 139.262 665.617 139.509C664.978 139.761 664.267 139.886 663.482 139.886ZM663.431 134.491C664.036 134.491 664.548 134.353 664.965 134.076C665.383 133.799 665.7 133.401 665.918 132.881C666.135 132.361 666.244 131.739 666.244 131.014C666.244 130.307 666.137 129.683 665.924 129.141C665.711 128.6 665.396 128.176 664.978 127.869C664.561 127.562 664.045 127.409 663.431 127.409C662.792 127.409 662.259 127.571 661.833 127.895C661.411 128.219 661.094 128.653 660.881 129.199C660.672 129.744 660.568 130.349 660.568 131.014C660.568 131.696 660.674 132.299 660.887 132.823C661.105 133.343 661.424 133.752 661.846 134.05C662.272 134.344 662.801 134.491 663.431 134.491ZM671.997 130.094V136H670.488V126.182H671.945V127.716H672.073C672.303 127.217 672.653 126.817 673.122 126.514C673.59 126.207 674.195 126.054 674.937 126.054C675.602 126.054 676.183 126.19 676.682 126.463C677.181 126.732 677.568 127.141 677.845 127.69C678.122 128.236 678.261 128.926 678.261 129.761V136H676.752V129.864C676.752 129.092 676.552 128.491 676.151 128.061C675.751 127.626 675.201 127.409 674.502 127.409C674.021 127.409 673.59 127.513 673.211 127.722C672.836 127.931 672.54 128.236 672.323 128.636C672.105 129.037 671.997 129.523 671.997 130.094ZM685.134 136.205C684.188 136.205 683.372 135.996 682.686 135.578C682.004 135.156 681.478 134.568 681.107 133.814C680.74 133.055 680.557 132.173 680.557 131.168C680.557 130.162 680.74 129.276 681.107 128.509C681.478 127.737 681.993 127.136 682.654 126.706C683.319 126.271 684.094 126.054 684.98 126.054C685.492 126.054 685.997 126.139 686.495 126.31C686.994 126.48 687.448 126.757 687.857 127.141C688.266 127.52 688.592 128.023 688.835 128.649C689.078 129.276 689.199 130.047 689.199 130.963V131.602H681.631V130.298H687.665C687.665 129.744 687.554 129.25 687.333 128.815C687.115 128.381 686.804 128.038 686.4 127.786C685.999 127.535 685.526 127.409 684.98 127.409C684.38 127.409 683.86 127.558 683.421 127.857C682.986 128.151 682.652 128.534 682.417 129.007C682.183 129.48 682.066 129.987 682.066 130.528V131.398C682.066 132.139 682.194 132.768 682.449 133.283C682.709 133.795 683.069 134.185 683.529 134.453C683.99 134.717 684.525 134.849 685.134 134.849C685.53 134.849 685.888 134.794 686.208 134.683C686.532 134.568 686.811 134.398 687.045 134.172C687.279 133.942 687.461 133.656 687.588 133.315L689.046 133.724C688.892 134.219 688.635 134.653 688.272 135.028C687.91 135.399 687.463 135.689 686.93 135.898C686.397 136.102 685.799 136.205 685.134 136.205ZM695.201 136.205C694.383 136.205 693.661 135.998 693.034 135.585C692.408 135.167 691.918 134.579 691.564 133.82C691.211 133.058 691.034 132.156 691.034 131.116C691.034 130.085 691.211 129.19 691.564 128.432C691.918 127.673 692.41 127.087 693.041 126.674C693.672 126.261 694.4 126.054 695.227 126.054C695.866 126.054 696.371 126.161 696.742 126.374C697.117 126.582 697.402 126.821 697.598 127.089C697.799 127.354 697.954 127.571 698.065 127.741H698.193V122.909H699.701V136H698.244V134.491H698.065C697.954 134.67 697.797 134.896 697.592 135.169C697.387 135.437 697.096 135.678 696.716 135.891C696.337 136.1 695.832 136.205 695.201 136.205ZM695.406 134.849C696.011 134.849 696.522 134.692 696.94 134.376C697.358 134.057 697.675 133.616 697.892 133.053C698.11 132.487 698.218 131.832 698.218 131.091C698.218 130.358 698.112 129.717 697.899 129.167C697.686 128.613 697.37 128.183 696.953 127.876C696.535 127.565 696.02 127.409 695.406 127.409C694.767 127.409 694.234 127.573 693.808 127.901C693.386 128.225 693.069 128.666 692.855 129.224C692.647 129.778 692.542 130.401 692.542 131.091C692.542 131.79 692.649 132.425 692.862 132.996C693.079 133.562 693.399 134.014 693.821 134.351C694.247 134.683 694.775 134.849 695.406 134.849Z" fill="black" fill-opacity="0.6"/>
<path d="M744 124.987C741.78 124.767 739.547 124.653 737.32 124.653C736 124.653 734.68 124.72 733.36 124.853L732 124.987" stroke="black" stroke-opacity="0.6" stroke-width="1.5" stroke-linecap="round" stroke-linejoin="round"/>
<path d="M735.667 124.313L735.813 123.44C735.92 122.807 736 122.333 737.127 122.333H738.873C740 122.333 740.087 122.833 740.187 123.447L740.333 124.313" stroke="black" stroke-opacity="0.6" stroke-width="1.5" stroke-linecap="round" stroke-linejoin="round"/>
<path d="M742.567 127.093L742.133 133.807C742.06 134.853 742 135.667 740.14 135.667H735.86C734 135.667 733.94 134.853 733.867 133.807L733.433 127.093" stroke="black" stroke-opacity="0.6" stroke-width="1.5" stroke-linecap="round" stroke-linejoin="round"/>
<path d="M736.887 132H739.107" stroke="black" stroke-opacity="0.6" stroke-width="1.5" stroke-linecap="round" stroke-linejoin="round"/>
<path d="M736.333 129.333H739.667" stroke="black" stroke-opacity="0.6" stroke-width="1.5" stroke-linecap="round" stroke-linejoin="round"/>
<path d="M772.387 129C772.387 130.32 771.32 131.387 770 131.387C768.68 131.387 767.613 130.32 767.613 129C767.613 127.68 768.68 126.613 770 126.613C771.32 126.613 772.387 127.68 772.387 129Z" stroke="black" stroke-opacity="0.6" stroke-width="1.5" stroke-linecap="round" stroke-linejoin="round"/>
<path d="M770 134.513C772.353 134.513 774.547 133.127 776.073 130.727C776.673 129.787 776.673 128.207 776.073 127.267C774.547 124.867 772.353 123.48 770 123.48C767.647 123.48 765.453 124.867 763.927 127.267C763.327 128.207 763.327 129.787 763.927 130.727C765.453 133.127 767.647 134.513 770 134.513Z" stroke="black" stroke-opacity="0.6" stroke-width="1.5" stroke-linecap="round" stroke-linejoin="round"/>
</svg>
