<svg width="630" height="324" viewBox="0 0 630 324" fill="none" xmlns="http://www.w3.org/2000/svg">
<mask id="path-1-outside-1_45_248" maskUnits="userSpaceOnUse" x="0" y="3" width="332" height="318" fill="black">
<rect fill="white" y="3" width="332" height="318"/>
<path d="M1 16C1 9.37257 6.37258 4 13 4H319C325.627 4 331 9.37258 331 16V308C331 314.627 325.627 320 319 320H13C6.37259 320 1 314.627 1 308V16Z"/>
</mask>
<path d="M13 5H319V3H13V5ZM330 16V308H332V16H330ZM319 319H13V321H319V319ZM2 308V16H0V308H2ZM13 319C6.92488 319 2 314.075 2 308H0C0 315.18 5.82031 321 13 321V319ZM330 308C330 314.075 325.075 319 319 319V321C326.18 321 332 315.18 332 308H330ZM319 5C325.075 5 330 9.92487 330 16H332C332 8.8203 326.18 3 319 3V5ZM13 3C5.8203 3 0 8.82029 0 16H2C2 9.92486 6.92487 5 13 5V3Z" fill="black" fill-opacity="0.05" mask="url(#path-1-outside-1_45_248)"/>
<path d="M135.62 45.728V55.5H133.66V49.144L131.042 55.5H129.558L126.926 49.144V55.5H124.966V45.728H127.192L130.3 52.994L133.408 45.728H135.62ZM137.054 51.594C137.054 50.81 137.208 50.1147 137.516 49.508C137.833 48.9013 138.258 48.4347 138.79 48.108C139.331 47.7813 139.933 47.618 140.596 47.618C141.174 47.618 141.678 47.7347 142.108 47.968C142.546 48.2013 142.896 48.4953 143.158 48.85V47.744H145.132V55.5H143.158V54.366C142.906 54.73 142.556 55.0333 142.108 55.276C141.669 55.5093 141.16 55.626 140.582 55.626C139.928 55.626 139.331 55.458 138.79 55.122C138.258 54.786 137.833 54.3147 137.516 53.708C137.208 53.092 137.054 52.3873 137.054 51.594ZM143.158 51.622C143.158 51.146 143.064 50.74 142.878 50.404C142.691 50.0587 142.439 49.7973 142.122 49.62C141.804 49.4333 141.464 49.34 141.1 49.34C140.736 49.34 140.4 49.4287 140.092 49.606C139.784 49.7833 139.532 50.0447 139.336 50.39C139.149 50.726 139.056 51.1273 139.056 51.594C139.056 52.0607 139.149 52.4713 139.336 52.826C139.532 53.1713 139.784 53.4373 140.092 53.624C140.409 53.8107 140.745 53.904 141.1 53.904C141.464 53.904 141.804 53.8153 142.122 53.638C142.439 53.4513 142.691 53.19 142.878 52.854C143.064 52.5087 143.158 52.098 143.158 51.622ZM149.006 48.948C149.258 48.5373 149.585 48.2153 149.986 47.982C150.397 47.7487 150.863 47.632 151.386 47.632V49.69H150.868C150.252 49.69 149.785 49.8347 149.468 50.124C149.16 50.4133 149.006 50.9173 149.006 51.636V55.5H147.046V47.744H149.006V48.948ZM152.202 51.622C152.202 50.8193 152.366 50.1193 152.692 49.522C153.019 48.9153 153.472 48.4487 154.05 48.122C154.629 47.786 155.292 47.618 156.038 47.618C157 47.618 157.793 47.8607 158.418 48.346C159.053 48.822 159.478 49.494 159.692 50.362H157.578C157.466 50.026 157.275 49.7647 157.004 49.578C156.743 49.382 156.416 49.284 156.024 49.284C155.464 49.284 155.021 49.4893 154.694 49.9C154.368 50.3013 154.204 50.8753 154.204 51.622C154.204 52.3593 154.368 52.9333 154.694 53.344C155.021 53.7453 155.464 53.946 156.024 53.946C156.818 53.946 157.336 53.5913 157.578 52.882H159.692C159.478 53.722 159.053 54.3893 158.418 54.884C157.784 55.3787 156.99 55.626 156.038 55.626C155.292 55.626 154.629 55.4627 154.05 55.136C153.472 54.8 153.019 54.3333 152.692 53.736C152.366 53.1293 152.202 52.4247 152.202 51.622ZM165.496 47.632C166.084 47.632 166.607 47.7627 167.064 48.024C167.521 48.276 167.876 48.654 168.128 49.158C168.389 49.6527 168.52 50.25 168.52 50.95V55.5H166.56V51.216C166.56 50.6 166.406 50.1287 166.098 49.802C165.79 49.466 165.37 49.298 164.838 49.298C164.297 49.298 163.867 49.466 163.55 49.802C163.242 50.1287 163.088 50.6 163.088 51.216V55.5H161.128V45.14H163.088V48.71C163.34 48.374 163.676 48.1127 164.096 47.926C164.516 47.73 164.983 47.632 165.496 47.632ZM174.112 53.288C175.008 52.5413 175.722 51.9207 176.254 51.426C176.786 50.922 177.229 50.3993 177.584 49.858C177.939 49.3167 178.116 48.7847 178.116 48.262C178.116 47.786 178.004 47.4127 177.78 47.142C177.556 46.8713 177.211 46.736 176.744 46.736C176.277 46.736 175.918 46.8947 175.666 47.212C175.414 47.52 175.283 47.9447 175.274 48.486H173.37C173.407 47.366 173.739 46.5167 174.364 45.938C174.999 45.3593 175.801 45.07 176.772 45.07C177.836 45.07 178.653 45.3547 179.222 45.924C179.791 46.484 180.076 47.226 180.076 48.15C180.076 48.878 179.88 49.5733 179.488 50.236C179.096 50.8987 178.648 51.4773 178.144 51.972C177.64 52.4573 176.982 53.0453 176.17 53.736H180.3V55.36H173.384V53.904L174.112 53.288ZM181.535 50.264C181.535 48.6493 181.824 47.3847 182.403 46.47C182.991 45.5553 183.962 45.098 185.315 45.098C186.668 45.098 187.634 45.5553 188.213 46.47C188.801 47.3847 189.095 48.6493 189.095 50.264C189.095 51.888 188.801 53.162 188.213 54.086C187.634 55.01 186.668 55.472 185.315 55.472C183.962 55.472 182.991 55.01 182.403 54.086C181.824 53.162 181.535 51.888 181.535 50.264ZM187.163 50.264C187.163 49.5733 187.116 48.9947 187.023 48.528C186.939 48.052 186.762 47.6647 186.491 47.366C186.23 47.0673 185.838 46.918 185.315 46.918C184.792 46.918 184.396 47.0673 184.125 47.366C183.864 47.6647 183.686 48.052 183.593 48.528C183.509 48.9947 183.467 49.5733 183.467 50.264C183.467 50.9733 183.509 51.5707 183.593 52.056C183.677 52.532 183.854 52.9193 184.125 53.218C184.396 53.5073 184.792 53.652 185.315 53.652C185.838 53.652 186.234 53.5073 186.505 53.218C186.776 52.9193 186.953 52.532 187.037 52.056C187.121 51.5707 187.163 50.9733 187.163 50.264ZM191.202 53.288C192.098 52.5413 192.812 51.9207 193.344 51.426C193.876 50.922 194.319 50.3993 194.674 49.858C195.028 49.3167 195.206 48.7847 195.206 48.262C195.206 47.786 195.094 47.4127 194.87 47.142C194.646 46.8713 194.3 46.736 193.834 46.736C193.367 46.736 193.008 46.8947 192.756 47.212C192.504 47.52 192.373 47.9447 192.364 48.486H190.46C190.497 47.366 190.828 46.5167 191.454 45.938C192.088 45.3593 192.891 45.07 193.862 45.07C194.926 45.07 195.742 45.3547 196.312 45.924C196.881 46.484 197.166 47.226 197.166 48.15C197.166 48.878 196.97 49.5733 196.578 50.236C196.186 50.8987 195.738 51.4773 195.234 51.972C194.73 52.4573 194.072 53.0453 193.26 53.736H197.39V55.36H190.474V53.904L191.202 53.288ZM198.541 53.512V51.972L203.119 45.42H205.401V51.804H206.633V53.512H205.401V55.5H203.441V53.512H198.541ZM203.567 47.52L200.697 51.804H203.567V47.52Z" fill="#333333"/>
<g opacity="0.7">
<path d="M49.92 98.9C50.3533 98.9 50.74 98.99 51.08 99.17C51.4267 99.35 51.6967 99.6167 51.89 99.97C52.09 100.323 52.19 100.75 52.19 101.25V104.5H51.06V101.42C51.06 100.927 50.9367 100.55 50.69 100.29C50.4433 100.023 50.1067 99.89 49.68 99.89C49.2533 99.89 48.9133 100.023 48.66 100.29C48.4133 100.55 48.29 100.927 48.29 101.42V104.5H47.16V101.42C47.16 100.927 47.0367 100.55 46.79 100.29C46.5433 100.023 46.2067 99.89 45.78 99.89C45.3533 99.89 45.0133 100.023 44.76 100.29C44.5133 100.55 44.39 100.927 44.39 101.42V104.5H43.25V98.99H44.39V99.62C44.5767 99.3933 44.8133 99.2167 45.1 99.09C45.3867 98.9633 45.6933 98.9 46.02 98.9C46.46 98.9 46.8533 98.9933 47.2 99.18C47.5467 99.3667 47.8133 99.6367 48 99.99C48.1667 99.6567 48.4267 99.3933 48.78 99.2C49.1333 99 49.5133 98.9 49.92 98.9Z" fill="#333333"/>
<path d="M87.4135 99.92V102.97C87.4135 103.177 87.4602 103.327 87.5535 103.42C87.6535 103.507 87.8202 103.55 88.0535 103.55H88.7535V104.5H87.8535C87.3402 104.5 86.9468 104.38 86.6735 104.14C86.4002 103.9 86.2635 103.51 86.2635 102.97V99.92H85.6135V98.99H86.2635V97.62H87.4135V98.99H88.7535V99.92H87.4135Z" fill="#333333"/>
<path d="M130.317 98.99L128.607 104.5H127.407L126.297 100.43L125.187 104.5H123.987L122.267 98.99H123.427L124.577 103.42L125.747 98.99H126.937L128.057 103.4L129.197 98.99H130.317Z" fill="#333333"/>
<path d="M166.08 99.92V102.97C166.08 103.177 166.127 103.327 166.22 103.42C166.32 103.507 166.487 103.55 166.72 103.55H167.42V104.5H166.52C166.007 104.5 165.613 104.38 165.34 104.14C165.067 103.9 164.93 103.51 164.93 102.97V99.92H164.28V98.99H164.93V97.62H166.08V98.99H167.42V99.92H166.08Z" fill="#333333"/>
<path d="M206.393 99.92H205.373V104.5H204.223V99.92H203.573V98.99H204.223V98.6C204.223 97.9667 204.39 97.5067 204.723 97.22C205.063 96.9267 205.593 96.78 206.313 96.78V97.73C205.967 97.73 205.723 97.7967 205.583 97.93C205.443 98.0567 205.373 98.28 205.373 98.6V98.99H206.393V99.92Z" fill="#333333"/>
<path d="M244.417 104.59C243.983 104.59 243.593 104.513 243.247 104.36C242.907 104.2 242.637 103.987 242.437 103.72C242.237 103.447 242.13 103.143 242.117 102.81H243.297C243.317 103.043 243.427 103.24 243.627 103.4C243.833 103.553 244.09 103.63 244.397 103.63C244.717 103.63 244.963 103.57 245.137 103.45C245.317 103.323 245.407 103.163 245.407 102.97C245.407 102.763 245.307 102.61 245.107 102.51C244.913 102.41 244.603 102.3 244.177 102.18C243.763 102.067 243.427 101.957 243.167 101.85C242.907 101.743 242.68 101.58 242.487 101.36C242.3 101.14 242.207 100.85 242.207 100.49C242.207 100.197 242.293 99.93 242.467 99.69C242.64 99.4433 242.887 99.25 243.207 99.11C243.533 98.97 243.907 98.9 244.327 98.9C244.953 98.9 245.457 99.06 245.837 99.38C246.223 99.6933 246.43 100.123 246.457 100.67H245.317C245.297 100.423 245.197 100.227 245.017 100.08C244.837 99.9333 244.593 99.86 244.287 99.86C243.987 99.86 243.757 99.9167 243.597 100.03C243.437 100.143 243.357 100.293 243.357 100.48C243.357 100.627 243.41 100.75 243.517 100.85C243.623 100.95 243.753 101.03 243.907 101.09C244.06 101.143 244.287 101.213 244.587 101.3C244.987 101.407 245.313 101.517 245.567 101.63C245.827 101.737 246.05 101.897 246.237 102.11C246.423 102.323 246.52 102.607 246.527 102.96C246.527 103.273 246.44 103.553 246.267 103.8C246.093 104.047 245.847 104.24 245.527 104.38C245.213 104.52 244.843 104.59 244.417 104.59Z" fill="#333333"/>
<path d="M283.75 104.59C283.317 104.59 282.927 104.513 282.58 104.36C282.24 104.2 281.97 103.987 281.77 103.72C281.57 103.447 281.463 103.143 281.45 102.81H282.63C282.65 103.043 282.76 103.24 282.96 103.4C283.167 103.553 283.423 103.63 283.73 103.63C284.05 103.63 284.297 103.57 284.47 103.45C284.65 103.323 284.74 103.163 284.74 102.97C284.74 102.763 284.64 102.61 284.44 102.51C284.247 102.41 283.937 102.3 283.51 102.18C283.097 102.067 282.76 101.957 282.5 101.85C282.24 101.743 282.013 101.58 281.82 101.36C281.633 101.14 281.54 100.85 281.54 100.49C281.54 100.197 281.627 99.93 281.8 99.69C281.973 99.4433 282.22 99.25 282.54 99.11C282.867 98.97 283.24 98.9 283.66 98.9C284.287 98.9 284.79 99.06 285.17 99.38C285.557 99.6933 285.763 100.123 285.79 100.67H284.65C284.63 100.423 284.53 100.227 284.35 100.08C284.17 99.9333 283.927 99.86 283.62 99.86C283.32 99.86 283.09 99.9167 282.93 100.03C282.77 100.143 282.69 100.293 282.69 100.48C282.69 100.627 282.743 100.75 282.85 100.85C282.957 100.95 283.087 101.03 283.24 101.09C283.393 101.143 283.62 101.213 283.92 101.3C284.32 101.407 284.647 101.517 284.9 101.63C285.16 101.737 285.383 101.897 285.57 102.11C285.757 102.323 285.853 102.607 285.86 102.96C285.86 103.273 285.773 103.553 285.6 103.8C285.427 104.047 285.18 104.24 284.86 104.38C284.547 104.52 284.177 104.59 283.75 104.59Z" fill="#333333"/>
</g>
<path d="M40.45 131.25V130.21H42.53V137.5H41.38V131.25H40.45Z" fill="black" fill-opacity="0.6"/>
<path d="M84.23 135.95C84.87 135.397 85.3733 134.943 85.74 134.59C86.1133 134.23 86.4233 133.857 86.67 133.47C86.9167 133.083 87.04 132.697 87.04 132.31C87.04 131.91 86.9433 131.597 86.75 131.37C86.5633 131.143 86.2667 131.03 85.86 131.03C85.4667 131.03 85.16 131.157 84.94 131.41C84.7267 131.657 84.6133 131.99 84.6 132.41H83.5C83.52 131.65 83.7467 131.07 84.18 130.67C84.62 130.263 85.1767 130.06 85.85 130.06C86.5767 130.06 87.1433 130.26 87.55 130.66C87.9633 131.06 88.17 131.593 88.17 132.26C88.17 132.74 88.0467 133.203 87.8 133.65C87.56 134.09 87.27 134.487 86.93 134.84C86.5967 135.187 86.17 135.59 85.65 136.05L85.2 136.45H88.37V137.4H83.51V136.57L84.23 135.95Z" fill="black" fill-opacity="0.6"/>
<path d="M123.58 132.01C123.62 131.39 123.857 130.907 124.29 130.56C124.73 130.213 125.29 130.04 125.97 130.04C126.437 130.04 126.84 130.123 127.18 130.29C127.52 130.457 127.777 130.683 127.95 130.97C128.123 131.257 128.21 131.58 128.21 131.94C128.21 132.353 128.1 132.707 127.88 133C127.66 133.293 127.397 133.49 127.09 133.59V133.63C127.483 133.75 127.79 133.97 128.01 134.29C128.23 134.603 128.34 135.007 128.34 135.5C128.34 135.893 128.25 136.243 128.07 136.55C127.89 136.857 127.623 137.1 127.27 137.28C126.917 137.453 126.493 137.54 126 137.54C125.28 137.54 124.687 137.357 124.22 136.99C123.76 136.617 123.513 136.083 123.48 135.39H124.58C124.607 135.743 124.743 136.033 124.99 136.26C125.237 136.48 125.57 136.59 125.99 136.59C126.397 136.59 126.71 136.48 126.93 136.26C127.15 136.033 127.26 135.743 127.26 135.39C127.26 134.923 127.11 134.593 126.81 134.4C126.517 134.2 126.063 134.1 125.45 134.1H125.19V133.16H125.46C126 133.153 126.41 133.063 126.69 132.89C126.977 132.717 127.12 132.443 127.12 132.07C127.12 131.75 127.017 131.497 126.81 131.31C126.603 131.117 126.31 131.02 125.93 131.02C125.557 131.02 125.267 131.117 125.06 131.31C124.853 131.497 124.73 131.73 124.69 132.01H123.58Z" fill="black" fill-opacity="0.6"/>
<path d="M162.96 135.98V135.12L166.32 130.3H167.7V134.99H168.63V135.98H167.7V137.5H166.58V135.98H162.96ZM166.63 131.46L164.27 134.99H166.63V131.46Z" fill="black" fill-opacity="0.6"/>
<path d="M207.8 131.19H204.45V133.18C204.59 132.993 204.797 132.837 205.07 132.71C205.35 132.583 205.647 132.52 205.96 132.52C206.52 132.52 206.973 132.64 207.32 132.88C207.673 133.12 207.923 133.423 208.07 133.79C208.223 134.157 208.3 134.543 208.3 134.95C208.3 135.443 208.203 135.883 208.01 136.27C207.823 136.65 207.54 136.95 207.16 137.17C206.787 137.39 206.327 137.5 205.78 137.5C205.053 137.5 204.47 137.32 204.03 136.96C203.59 136.6 203.327 136.123 203.24 135.53H204.35C204.423 135.843 204.587 136.093 204.84 136.28C205.093 136.46 205.41 136.55 205.79 136.55C206.263 136.55 206.617 136.407 206.85 136.12C207.09 135.833 207.21 135.453 207.21 134.98C207.21 134.5 207.09 134.133 206.85 133.88C206.61 133.62 206.257 133.49 205.79 133.49C205.463 133.49 205.187 133.573 204.96 133.74C204.74 133.9 204.58 134.12 204.48 134.4H203.4V130.19H207.8V131.19Z" fill="black" fill-opacity="0.6"/>
<path d="M247.02 131.9C246.947 131.593 246.813 131.363 246.62 131.21C246.427 131.057 246.157 130.98 245.81 130.98C245.283 130.98 244.89 131.183 244.63 131.59C244.37 131.99 244.233 132.657 244.22 133.59C244.393 133.297 244.647 133.07 244.98 132.91C245.313 132.75 245.673 132.67 246.06 132.67C246.5 132.67 246.887 132.767 247.22 132.96C247.56 133.147 247.823 133.42 248.01 133.78C248.203 134.14 248.3 134.57 248.3 135.07C248.3 135.537 248.207 135.953 248.02 136.32C247.84 136.687 247.57 136.977 247.21 137.19C246.85 137.397 246.417 137.5 245.91 137.5C245.223 137.5 244.683 137.35 244.29 137.05C243.903 136.743 243.63 136.313 243.47 135.76C243.317 135.207 243.24 134.517 243.24 133.69C243.24 131.25 244.1 130.03 245.82 130.03C246.487 130.03 247.01 130.21 247.39 130.57C247.777 130.93 248.003 131.373 248.07 131.9H247.02ZM245.81 133.63C245.403 133.63 245.057 133.753 244.77 134C244.49 134.24 244.35 134.59 244.35 135.05C244.35 135.51 244.48 135.877 244.74 136.15C245.007 136.417 245.377 136.55 245.85 136.55C246.27 136.55 246.6 136.42 246.84 136.16C247.087 135.9 247.21 135.553 247.21 135.12C247.21 134.667 247.09 134.307 246.85 134.04C246.617 133.767 246.27 133.63 245.81 133.63Z" fill="black" fill-opacity="0.6"/>
<path d="M288.22 131.09L285.44 137.5H284.29L287.1 131.21H283.4V130.24H288.22V131.09Z" fill="black" fill-opacity="0.6"/>
<path d="M44.52 168.52C44.5867 168.853 44.73 169.107 44.95 169.28C45.17 169.453 45.4667 169.54 45.84 169.54C46.3133 169.54 46.66 169.353 46.88 168.98C47.1 168.607 47.21 167.97 47.21 167.07C47.05 167.297 46.8233 167.473 46.53 167.6C46.2433 167.72 45.93 167.78 45.59 167.78C45.1567 167.78 44.7633 167.693 44.41 167.52C44.0567 167.34 43.7767 167.077 43.57 166.73C43.37 166.377 43.27 165.95 43.27 165.45C43.27 164.717 43.4833 164.133 43.91 163.7C44.3433 163.26 44.9367 163.04 45.69 163.04C46.5967 163.04 47.24 163.343 47.62 163.95C48.0067 164.55 48.2 165.473 48.2 166.72C48.2 167.58 48.1267 168.283 47.98 168.83C47.84 169.377 47.5933 169.79 47.24 170.07C46.8867 170.35 46.3967 170.49 45.77 170.49C45.0567 170.49 44.5067 170.303 44.12 169.93C43.7333 169.557 43.5167 169.087 43.47 168.52H44.52ZM45.79 166.82C46.19 166.82 46.5033 166.697 46.73 166.45C46.9633 166.197 47.08 165.863 47.08 165.45C47.08 164.99 46.9567 164.633 46.71 164.38C46.47 164.12 46.14 163.99 45.72 163.99C45.3 163.99 44.9667 164.123 44.72 164.39C44.48 164.65 44.36 164.993 44.36 165.42C44.36 165.827 44.4767 166.163 44.71 166.43C44.95 166.69 45.31 166.82 45.79 166.82Z" fill="black" fill-opacity="0.6"/>
<rect x="71" y="152.5" width="30" height="29" rx="14.5" fill="#002868"/>
<path d="M81.45 164.25V163.21H83.53V170.5H82.38V164.25H81.45ZM85.0961 166.76C85.0961 165.607 85.2894 164.707 85.6761 164.06C86.0694 163.407 86.7428 163.08 87.6961 163.08C88.6494 163.08 89.3194 163.407 89.7061 164.06C90.0994 164.707 90.2961 165.607 90.2961 166.76C90.2961 167.927 90.0994 168.84 89.7061 169.5C89.3194 170.153 88.6494 170.48 87.6961 170.48C86.7428 170.48 86.0694 170.153 85.6761 169.5C85.2894 168.84 85.0961 167.927 85.0961 166.76ZM89.1761 166.76C89.1761 166.22 89.1394 165.763 89.0661 165.39C88.9994 165.017 88.8594 164.713 88.6461 164.48C88.4328 164.24 88.1161 164.12 87.6961 164.12C87.2761 164.12 86.9594 164.24 86.7461 164.48C86.5328 164.713 86.3894 165.017 86.3161 165.39C86.2494 165.763 86.2161 166.22 86.2161 166.76C86.2161 167.32 86.2494 167.79 86.3161 168.17C86.3828 168.55 86.5228 168.857 86.7361 169.09C86.9561 169.323 87.2761 169.44 87.6961 169.44C88.1161 169.44 88.4328 169.323 88.6461 169.09C88.8661 168.857 89.0094 168.55 89.0761 168.17C89.1428 167.79 89.1761 167.32 89.1761 166.76Z" fill="white"/>
<path d="M120.45 164.25V163.21H122.53V170.5H121.38V164.25H120.45ZM124.096 166.76C124.096 165.607 124.289 164.707 124.676 164.06C125.069 163.407 125.743 163.08 126.696 163.08C127.649 163.08 128.319 163.407 128.706 164.06C129.099 164.707 129.296 165.607 129.296 166.76C129.296 167.927 129.099 168.84 128.706 169.5C128.319 170.153 127.649 170.48 126.696 170.48C125.743 170.48 125.069 170.153 124.676 169.5C124.289 168.84 124.096 167.927 124.096 166.76ZM128.176 166.76C128.176 166.22 128.139 165.763 128.066 165.39C127.999 165.017 127.859 164.713 127.646 164.48C127.433 164.24 127.116 164.12 126.696 164.12C126.276 164.12 125.959 164.24 125.746 164.48C125.533 164.713 125.389 165.017 125.316 165.39C125.249 165.763 125.216 166.22 125.216 166.76C125.216 167.32 125.249 167.79 125.316 168.17C125.383 168.55 125.523 168.857 125.736 169.09C125.956 169.323 126.276 169.44 126.696 169.44C127.116 169.44 127.433 169.323 127.646 169.09C127.866 168.857 128.009 168.55 128.076 168.17C128.143 167.79 128.176 167.32 128.176 166.76Z" fill="#333333"/>
<path d="M160.45 164.25V163.21H162.53V170.5H161.38V164.25H160.45ZM163.946 164.25V163.21H166.026V170.5H164.876V164.25H163.946Z" fill="#333333"/>
<path d="M200.45 164.25V163.21H202.53V170.5H201.38V164.25H200.45ZM204.726 168.95C205.366 168.397 205.869 167.943 206.236 167.59C206.609 167.23 206.919 166.857 207.166 166.47C207.413 166.083 207.536 165.697 207.536 165.31C207.536 164.91 207.439 164.597 207.246 164.37C207.059 164.143 206.763 164.03 206.356 164.03C205.963 164.03 205.656 164.157 205.436 164.41C205.223 164.657 205.109 164.99 205.096 165.41H203.996C204.016 164.65 204.243 164.07 204.676 163.67C205.116 163.263 205.673 163.06 206.346 163.06C207.073 163.06 207.639 163.26 208.046 163.66C208.459 164.06 208.666 164.593 208.666 165.26C208.666 165.74 208.543 166.203 208.296 166.65C208.056 167.09 207.766 167.487 207.426 167.84C207.093 168.187 206.666 168.59 206.146 169.05L205.696 169.45H208.866V170.4H204.006V169.57L204.726 168.95Z" fill="#333333"/>
<path d="M240.45 164.25V163.21H242.53V170.5H241.38V164.25H240.45ZM244.076 165.01C244.116 164.39 244.353 163.907 244.786 163.56C245.226 163.213 245.786 163.04 246.466 163.04C246.933 163.04 247.336 163.123 247.676 163.29C248.016 163.457 248.273 163.683 248.446 163.97C248.619 164.257 248.706 164.58 248.706 164.94C248.706 165.353 248.596 165.707 248.376 166C248.156 166.293 247.893 166.49 247.586 166.59V166.63C247.979 166.75 248.286 166.97 248.506 167.29C248.726 167.603 248.836 168.007 248.836 168.5C248.836 168.893 248.746 169.243 248.566 169.55C248.386 169.857 248.119 170.1 247.766 170.28C247.413 170.453 246.989 170.54 246.496 170.54C245.776 170.54 245.183 170.357 244.716 169.99C244.256 169.617 244.009 169.083 243.976 168.39H245.076C245.103 168.743 245.239 169.033 245.486 169.26C245.733 169.48 246.066 169.59 246.486 169.59C246.893 169.59 247.206 169.48 247.426 169.26C247.646 169.033 247.756 168.743 247.756 168.39C247.756 167.923 247.606 167.593 247.306 167.4C247.013 167.2 246.559 167.1 245.946 167.1H245.686V166.16H245.956C246.496 166.153 246.906 166.063 247.186 165.89C247.473 165.717 247.616 165.443 247.616 165.07C247.616 164.75 247.513 164.497 247.306 164.31C247.099 164.117 246.806 164.02 246.426 164.02C246.053 164.02 245.763 164.117 245.556 164.31C245.349 164.497 245.226 164.73 245.186 165.01H244.076Z" fill="#333333"/>
<path d="M280.45 164.25V163.21H282.53V170.5H281.38V164.25H280.45ZM283.956 168.98V168.12L287.316 163.3H288.696V167.99H289.626V168.98H288.696V170.5H287.576V168.98H283.956ZM287.626 164.46L285.266 167.99H287.626V164.46Z" fill="#333333"/>
<path d="M40.45 197.25V196.21H42.53V203.5H41.38V197.25H40.45ZM48.7961 197.19H45.4461V199.18C45.5861 198.993 45.7928 198.837 46.0661 198.71C46.3461 198.583 46.6428 198.52 46.9561 198.52C47.5161 198.52 47.9694 198.64 48.3161 198.88C48.6694 199.12 48.9194 199.423 49.0661 199.79C49.2194 200.157 49.2961 200.543 49.2961 200.95C49.2961 201.443 49.1994 201.883 49.0061 202.27C48.8194 202.65 48.5361 202.95 48.1561 203.17C47.7828 203.39 47.3228 203.5 46.7761 203.5C46.0494 203.5 45.4661 203.32 45.0261 202.96C44.5861 202.6 44.3228 202.123 44.2361 201.53H45.3461C45.4194 201.843 45.5828 202.093 45.8361 202.28C46.0894 202.46 46.4061 202.55 46.7861 202.55C47.2594 202.55 47.6128 202.407 47.8461 202.12C48.0861 201.833 48.2061 201.453 48.2061 200.98C48.2061 200.5 48.0861 200.133 47.8461 199.88C47.6061 199.62 47.2528 199.49 46.7861 199.49C46.4594 199.49 46.1828 199.573 45.9561 199.74C45.7361 199.9 45.5761 200.12 45.4761 200.4H44.3961V196.19H48.7961V197.19Z" fill="#333333"/>
<path d="M80.45 197.25V196.21H82.53V203.5H81.38V197.25H80.45ZM88.0161 197.9C87.9428 197.593 87.8094 197.363 87.6161 197.21C87.4228 197.057 87.1528 196.98 86.8061 196.98C86.2794 196.98 85.8861 197.183 85.6261 197.59C85.3661 197.99 85.2294 198.657 85.2161 199.59C85.3894 199.297 85.6428 199.07 85.9761 198.91C86.3094 198.75 86.6694 198.67 87.0561 198.67C87.4961 198.67 87.8828 198.767 88.2161 198.96C88.5561 199.147 88.8194 199.42 89.0061 199.78C89.1994 200.14 89.2961 200.57 89.2961 201.07C89.2961 201.537 89.2028 201.953 89.0161 202.32C88.8361 202.687 88.5661 202.977 88.2061 203.19C87.8461 203.397 87.4128 203.5 86.9061 203.5C86.2194 203.5 85.6794 203.35 85.2861 203.05C84.8994 202.743 84.6261 202.313 84.4661 201.76C84.3128 201.207 84.2361 200.517 84.2361 199.69C84.2361 197.25 85.0961 196.03 86.8161 196.03C87.4828 196.03 88.0061 196.21 88.3861 196.57C88.7728 196.93 88.9994 197.373 89.0661 197.9H88.0161ZM86.8061 199.63C86.3994 199.63 86.0528 199.753 85.7661 200C85.4861 200.24 85.3461 200.59 85.3461 201.05C85.3461 201.51 85.4761 201.877 85.7361 202.15C86.0028 202.417 86.3728 202.55 86.8461 202.55C87.2661 202.55 87.5961 202.42 87.8361 202.16C88.0828 201.9 88.2061 201.553 88.2061 201.12C88.2061 200.667 88.0861 200.307 87.8461 200.04C87.6128 199.767 87.2661 199.63 86.8061 199.63Z" fill="#333333"/>
<path d="M120.45 197.25V196.21H122.53V203.5H121.38V197.25H120.45ZM128.716 197.09L125.936 203.5H124.786L127.596 197.21H123.896V196.24H128.716V197.09Z" fill="#333333"/>
<path d="M160.45 197.25V196.21H162.53V203.5H161.38V197.25H160.45ZM165.326 199.69C164.633 199.343 164.286 198.797 164.286 198.05C164.286 197.69 164.376 197.36 164.556 197.06C164.736 196.76 165.006 196.523 165.366 196.35C165.726 196.17 166.166 196.08 166.686 196.08C167.199 196.08 167.636 196.17 167.996 196.35C168.363 196.523 168.636 196.76 168.816 197.06C168.996 197.36 169.086 197.69 169.086 198.05C169.086 198.423 168.989 198.753 168.796 199.04C168.609 199.32 168.359 199.537 168.046 199.69C168.426 199.83 168.726 200.06 168.946 200.38C169.166 200.693 169.276 201.063 169.276 201.49C169.276 201.923 169.166 202.307 168.946 202.64C168.726 202.973 168.419 203.23 168.026 203.41C167.633 203.59 167.186 203.68 166.686 203.68C166.186 203.68 165.739 203.59 165.346 203.41C164.959 203.23 164.656 202.973 164.436 202.64C164.216 202.307 164.106 201.923 164.106 201.49C164.106 201.057 164.216 200.683 164.436 200.37C164.656 200.057 164.953 199.83 165.326 199.69ZM167.996 198.19C167.996 197.817 167.879 197.53 167.646 197.33C167.413 197.13 167.093 197.03 166.686 197.03C166.286 197.03 165.969 197.13 165.736 197.33C165.503 197.53 165.386 197.82 165.386 198.2C165.386 198.533 165.506 198.807 165.746 199.02C165.993 199.227 166.306 199.33 166.686 199.33C167.066 199.33 167.379 199.223 167.626 199.01C167.873 198.797 167.996 198.523 167.996 198.19ZM166.686 200.19C166.246 200.19 165.886 200.3 165.606 200.52C165.333 200.733 165.196 201.043 165.196 201.45C165.196 201.83 165.329 202.14 165.596 202.38C165.863 202.613 166.226 202.73 166.686 202.73C167.139 202.73 167.496 202.61 167.756 202.37C168.023 202.13 168.156 201.823 168.156 201.45C168.156 201.05 168.019 200.74 167.746 200.52C167.479 200.3 167.126 200.19 166.686 200.19Z" fill="#333333"/>
<path d="M200.45 197.25V196.21H202.53V203.5H201.38V197.25H200.45ZM205.516 201.52C205.583 201.853 205.726 202.107 205.946 202.28C206.166 202.453 206.463 202.54 206.836 202.54C207.309 202.54 207.656 202.353 207.876 201.98C208.096 201.607 208.206 200.97 208.206 200.07C208.046 200.297 207.819 200.473 207.526 200.6C207.239 200.72 206.926 200.78 206.586 200.78C206.153 200.78 205.759 200.693 205.406 200.52C205.053 200.34 204.773 200.077 204.566 199.73C204.366 199.377 204.266 198.95 204.266 198.45C204.266 197.717 204.479 197.133 204.906 196.7C205.339 196.26 205.933 196.04 206.686 196.04C207.593 196.04 208.236 196.343 208.616 196.95C209.003 197.55 209.196 198.473 209.196 199.72C209.196 200.58 209.123 201.283 208.976 201.83C208.836 202.377 208.589 202.79 208.236 203.07C207.883 203.35 207.393 203.49 206.766 203.49C206.053 203.49 205.503 203.303 205.116 202.93C204.729 202.557 204.513 202.087 204.466 201.52H205.516ZM206.786 199.82C207.186 199.82 207.499 199.697 207.726 199.45C207.959 199.197 208.076 198.863 208.076 198.45C208.076 197.99 207.953 197.633 207.706 197.38C207.466 197.12 207.136 196.99 206.716 196.99C206.296 196.99 205.963 197.123 205.716 197.39C205.476 197.65 205.356 197.993 205.356 198.42C205.356 198.827 205.473 199.163 205.706 199.43C205.946 199.69 206.306 199.82 206.786 199.82Z" fill="#333333"/>
<path d="M241.23 201.95C241.87 201.397 242.373 200.943 242.74 200.59C243.113 200.23 243.423 199.857 243.67 199.47C243.917 199.083 244.04 198.697 244.04 198.31C244.04 197.91 243.943 197.597 243.75 197.37C243.563 197.143 243.267 197.03 242.86 197.03C242.467 197.03 242.16 197.157 241.94 197.41C241.727 197.657 241.613 197.99 241.6 198.41H240.5C240.52 197.65 240.747 197.07 241.18 196.67C241.62 196.263 242.177 196.06 242.85 196.06C243.577 196.06 244.143 196.26 244.55 196.66C244.963 197.06 245.17 197.593 245.17 198.26C245.17 198.74 245.047 199.203 244.8 199.65C244.56 200.09 244.27 200.487 243.93 200.84C243.597 201.187 243.17 201.59 242.65 202.05L242.2 202.45H245.37V203.4H240.51V202.57L241.23 201.95ZM246.371 199.76C246.371 198.607 246.565 197.707 246.951 197.06C247.345 196.407 248.018 196.08 248.971 196.08C249.925 196.08 250.595 196.407 250.981 197.06C251.375 197.707 251.571 198.607 251.571 199.76C251.571 200.927 251.375 201.84 250.981 202.5C250.595 203.153 249.925 203.48 248.971 203.48C248.018 203.48 247.345 203.153 246.951 202.5C246.565 201.84 246.371 200.927 246.371 199.76ZM250.451 199.76C250.451 199.22 250.415 198.763 250.341 198.39C250.275 198.017 250.135 197.713 249.921 197.48C249.708 197.24 249.391 197.12 248.971 197.12C248.551 197.12 248.235 197.24 248.021 197.48C247.808 197.713 247.665 198.017 247.591 198.39C247.525 198.763 247.491 199.22 247.491 199.76C247.491 200.32 247.525 200.79 247.591 201.17C247.658 201.55 247.798 201.857 248.011 202.09C248.231 202.323 248.551 202.44 248.971 202.44C249.391 202.44 249.708 202.323 249.921 202.09C250.141 201.857 250.285 201.55 250.351 201.17C250.418 200.79 250.451 200.32 250.451 199.76Z" fill="#333333"/>
<path d="M281.23 201.95C281.87 201.397 282.373 200.943 282.74 200.59C283.113 200.23 283.423 199.857 283.67 199.47C283.917 199.083 284.04 198.697 284.04 198.31C284.04 197.91 283.943 197.597 283.75 197.37C283.563 197.143 283.267 197.03 282.86 197.03C282.467 197.03 282.16 197.157 281.94 197.41C281.727 197.657 281.613 197.99 281.6 198.41H280.5C280.52 197.65 280.747 197.07 281.18 196.67C281.62 196.263 282.177 196.06 282.85 196.06C283.577 196.06 284.143 196.26 284.55 196.66C284.963 197.06 285.17 197.593 285.17 198.26C285.17 198.74 285.047 199.203 284.8 199.65C284.56 200.09 284.27 200.487 283.93 200.84C283.597 201.187 283.17 201.59 282.65 202.05L282.2 202.45H285.37V203.4H280.51V202.57L281.23 201.95ZM286.221 197.25V196.21H288.301V203.5H287.151V197.25H286.221Z" fill="#333333"/>
<path d="M41.23 234.95C41.87 234.397 42.3733 233.943 42.74 233.59C43.1133 233.23 43.4233 232.857 43.67 232.47C43.9167 232.083 44.04 231.697 44.04 231.31C44.04 230.91 43.9433 230.597 43.75 230.37C43.5633 230.143 43.2667 230.03 42.86 230.03C42.4667 230.03 42.16 230.157 41.94 230.41C41.7267 230.657 41.6133 230.99 41.6 231.41H40.5C40.52 230.65 40.7467 230.07 41.18 229.67C41.62 229.263 42.1767 229.06 42.85 229.06C43.5767 229.06 44.1433 229.26 44.55 229.66C44.9633 230.06 45.17 230.593 45.17 231.26C45.17 231.74 45.0467 232.203 44.8 232.65C44.56 233.09 44.27 233.487 43.93 233.84C43.5967 234.187 43.17 234.59 42.65 235.05L42.2 235.45H45.37V236.4H40.51V235.57L41.23 234.95ZM47.0015 234.95C47.6415 234.397 48.1448 233.943 48.5115 233.59C48.8848 233.23 49.1948 232.857 49.4415 232.47C49.6882 232.083 49.8115 231.697 49.8115 231.31C49.8115 230.91 49.7148 230.597 49.5215 230.37C49.3348 230.143 49.0382 230.03 48.6315 230.03C48.2382 230.03 47.9315 230.157 47.7115 230.41C47.4982 230.657 47.3848 230.99 47.3715 231.41H46.2715C46.2915 230.65 46.5182 230.07 46.9515 229.67C47.3915 229.263 47.9482 229.06 48.6215 229.06C49.3482 229.06 49.9148 229.26 50.3215 229.66C50.7348 230.06 50.9415 230.593 50.9415 231.26C50.9415 231.74 50.8182 232.203 50.5715 232.65C50.3315 233.09 50.0415 233.487 49.7015 233.84C49.3682 234.187 48.9415 234.59 48.4215 235.05L47.9715 235.45H51.1415V236.4H46.2815V235.57L47.0015 234.95Z" fill="#333333"/>
<path d="M81.23 234.95C81.87 234.397 82.3733 233.943 82.74 233.59C83.1133 233.23 83.4233 232.857 83.67 232.47C83.9167 232.083 84.04 231.697 84.04 231.31C84.04 230.91 83.9433 230.597 83.75 230.37C83.5633 230.143 83.2667 230.03 82.86 230.03C82.4667 230.03 82.16 230.157 81.94 230.41C81.7267 230.657 81.6133 230.99 81.6 231.41H80.5C80.52 230.65 80.7467 230.07 81.18 229.67C81.62 229.263 82.1767 229.06 82.85 229.06C83.5767 229.06 84.1433 229.26 84.55 229.66C84.9633 230.06 85.17 230.593 85.17 231.26C85.17 231.74 85.0467 232.203 84.8 232.65C84.56 233.09 84.27 233.487 83.93 233.84C83.5967 234.187 83.17 234.59 82.65 235.05L82.2 235.45H85.37V236.4H80.51V235.57L81.23 234.95ZM86.3515 231.01C86.3915 230.39 86.6282 229.907 87.0615 229.56C87.5015 229.213 88.0615 229.04 88.7415 229.04C89.2082 229.04 89.6115 229.123 89.9515 229.29C90.2915 229.457 90.5482 229.683 90.7215 229.97C90.8948 230.257 90.9815 230.58 90.9815 230.94C90.9815 231.353 90.8715 231.707 90.6515 232C90.4315 232.293 90.1682 232.49 89.8615 232.59V232.63C90.2548 232.75 90.5615 232.97 90.7815 233.29C91.0015 233.603 91.1115 234.007 91.1115 234.5C91.1115 234.893 91.0215 235.243 90.8415 235.55C90.6615 235.857 90.3948 236.1 90.0415 236.28C89.6882 236.453 89.2648 236.54 88.7715 236.54C88.0515 236.54 87.4582 236.357 86.9915 235.99C86.5315 235.617 86.2848 235.083 86.2515 234.39H87.3515C87.3782 234.743 87.5148 235.033 87.7615 235.26C88.0082 235.48 88.3415 235.59 88.7615 235.59C89.1682 235.59 89.4815 235.48 89.7015 235.26C89.9215 235.033 90.0315 234.743 90.0315 234.39C90.0315 233.923 89.8815 233.593 89.5815 233.4C89.2882 233.2 88.8348 233.1 88.2215 233.1H87.9615V232.16H88.2315C88.7715 232.153 89.1815 232.063 89.4615 231.89C89.7482 231.717 89.8915 231.443 89.8915 231.07C89.8915 230.75 89.7882 230.497 89.5815 230.31C89.3748 230.117 89.0815 230.02 88.7015 230.02C88.3282 230.02 88.0382 230.117 87.8315 230.31C87.6248 230.497 87.5015 230.73 87.4615 231.01H86.3515Z" fill="#333333"/>
<path d="M121.23 234.95C121.87 234.397 122.373 233.943 122.74 233.59C123.113 233.23 123.423 232.857 123.67 232.47C123.917 232.083 124.04 231.697 124.04 231.31C124.04 230.91 123.943 230.597 123.75 230.37C123.563 230.143 123.267 230.03 122.86 230.03C122.467 230.03 122.16 230.157 121.94 230.41C121.727 230.657 121.613 230.99 121.6 231.41H120.5C120.52 230.65 120.747 230.07 121.18 229.67C121.62 229.263 122.177 229.06 122.85 229.06C123.577 229.06 124.143 229.26 124.55 229.66C124.963 230.06 125.17 230.593 125.17 231.26C125.17 231.74 125.047 232.203 124.8 232.65C124.56 233.09 124.27 233.487 123.93 233.84C123.597 234.187 123.17 234.59 122.65 235.05L122.2 235.45H125.37V236.4H120.51V235.57L121.23 234.95ZM126.231 234.98V234.12L129.591 229.3H130.971V233.99H131.901V234.98H130.971V236.5H129.851V234.98H126.231ZM129.901 230.46L127.541 233.99H129.901V230.46Z" fill="#333333"/>
<path d="M161.23 234.95C161.87 234.397 162.373 233.943 162.74 233.59C163.113 233.23 163.423 232.857 163.67 232.47C163.917 232.083 164.04 231.697 164.04 231.31C164.04 230.91 163.943 230.597 163.75 230.37C163.563 230.143 163.267 230.03 162.86 230.03C162.467 230.03 162.16 230.157 161.94 230.41C161.727 230.657 161.613 230.99 161.6 231.41H160.5C160.52 230.65 160.747 230.07 161.18 229.67C161.62 229.263 162.177 229.06 162.85 229.06C163.577 229.06 164.143 229.26 164.55 229.66C164.963 230.06 165.17 230.593 165.17 231.26C165.17 231.74 165.047 232.203 164.8 232.65C164.56 233.09 164.27 233.487 163.93 233.84C163.597 234.187 163.17 234.59 162.65 235.05L162.2 235.45H165.37V236.4H160.51V235.57L161.23 234.95ZM171.071 230.19H167.721V232.18C167.861 231.993 168.068 231.837 168.341 231.71C168.621 231.583 168.918 231.52 169.231 231.52C169.791 231.52 170.245 231.64 170.591 231.88C170.945 232.12 171.195 232.423 171.341 232.79C171.495 233.157 171.571 233.543 171.571 233.95C171.571 234.443 171.475 234.883 171.281 235.27C171.095 235.65 170.811 235.95 170.431 236.17C170.058 236.39 169.598 236.5 169.051 236.5C168.325 236.5 167.741 236.32 167.301 235.96C166.861 235.6 166.598 235.123 166.511 234.53H167.621C167.695 234.843 167.858 235.093 168.111 235.28C168.365 235.46 168.681 235.55 169.061 235.55C169.535 235.55 169.888 235.407 170.121 235.12C170.361 234.833 170.481 234.453 170.481 233.98C170.481 233.5 170.361 233.133 170.121 232.88C169.881 232.62 169.528 232.49 169.061 232.49C168.735 232.49 168.458 232.573 168.231 232.74C168.011 232.9 167.851 233.12 167.751 233.4H166.671V229.19H171.071V230.19Z" fill="#333333"/>
<path d="M201.23 234.95C201.87 234.397 202.373 233.943 202.74 233.59C203.113 233.23 203.423 232.857 203.67 232.47C203.917 232.083 204.04 231.697 204.04 231.31C204.04 230.91 203.943 230.597 203.75 230.37C203.563 230.143 203.267 230.03 202.86 230.03C202.467 230.03 202.16 230.157 201.94 230.41C201.727 230.657 201.613 230.99 201.6 231.41H200.5C200.52 230.65 200.747 230.07 201.18 229.67C201.62 229.263 202.177 229.06 202.85 229.06C203.577 229.06 204.143 229.26 204.55 229.66C204.963 230.06 205.17 230.593 205.17 231.26C205.17 231.74 205.047 232.203 204.8 232.65C204.56 233.09 204.27 233.487 203.93 233.84C203.597 234.187 203.17 234.59 202.65 235.05L202.2 235.45H205.37V236.4H200.51V235.57L201.23 234.95ZM210.291 230.9C210.218 230.593 210.085 230.363 209.891 230.21C209.698 230.057 209.428 229.98 209.081 229.98C208.555 229.98 208.161 230.183 207.901 230.59C207.641 230.99 207.505 231.657 207.491 232.59C207.665 232.297 207.918 232.07 208.251 231.91C208.585 231.75 208.945 231.67 209.331 231.67C209.771 231.67 210.158 231.767 210.491 231.96C210.831 232.147 211.095 232.42 211.281 232.78C211.475 233.14 211.571 233.57 211.571 234.07C211.571 234.537 211.478 234.953 211.291 235.32C211.111 235.687 210.841 235.977 210.481 236.19C210.121 236.397 209.688 236.5 209.181 236.5C208.495 236.5 207.955 236.35 207.561 236.05C207.175 235.743 206.901 235.313 206.741 234.76C206.588 234.207 206.511 233.517 206.511 232.69C206.511 230.25 207.371 229.03 209.091 229.03C209.758 229.03 210.281 229.21 210.661 229.57C211.048 229.93 211.275 230.373 211.341 230.9H210.291ZM209.081 232.63C208.675 232.63 208.328 232.753 208.041 233C207.761 233.24 207.621 233.59 207.621 234.05C207.621 234.51 207.751 234.877 208.011 235.15C208.278 235.417 208.648 235.55 209.121 235.55C209.541 235.55 209.871 235.42 210.111 235.16C210.358 234.9 210.481 234.553 210.481 234.12C210.481 233.667 210.361 233.307 210.121 233.04C209.888 232.767 209.541 232.63 209.081 232.63Z" fill="#333333"/>
<path d="M241.23 234.95C241.87 234.397 242.373 233.943 242.74 233.59C243.113 233.23 243.423 232.857 243.67 232.47C243.917 232.083 244.04 231.697 244.04 231.31C244.04 230.91 243.943 230.597 243.75 230.37C243.563 230.143 243.267 230.03 242.86 230.03C242.467 230.03 242.16 230.157 241.94 230.41C241.727 230.657 241.613 230.99 241.6 231.41H240.5C240.52 230.65 240.747 230.07 241.18 229.67C241.62 229.263 242.177 229.06 242.85 229.06C243.577 229.06 244.143 229.26 244.55 229.66C244.963 230.06 245.17 230.593 245.17 231.26C245.17 231.74 245.047 232.203 244.8 232.65C244.56 233.09 244.27 233.487 243.93 233.84C243.597 234.187 243.17 234.59 242.65 235.05L242.2 235.45H245.37V236.4H240.51V235.57L241.23 234.95ZM250.991 230.09L248.211 236.5H247.061L249.871 230.21H246.171V229.24H250.991V230.09Z" fill="#333333"/>
<path d="M281.23 234.95C281.87 234.397 282.373 233.943 282.74 233.59C283.113 233.23 283.423 232.857 283.67 232.47C283.917 232.083 284.04 231.697 284.04 231.31C284.04 230.91 283.943 230.597 283.75 230.37C283.563 230.143 283.267 230.03 282.86 230.03C282.467 230.03 282.16 230.157 281.94 230.41C281.727 230.657 281.613 230.99 281.6 231.41H280.5C280.52 230.65 280.747 230.07 281.18 229.67C281.62 229.263 282.177 229.06 282.85 229.06C283.577 229.06 284.143 229.26 284.55 229.66C284.963 230.06 285.17 230.593 285.17 231.26C285.17 231.74 285.047 232.203 284.8 232.65C284.56 233.09 284.27 233.487 283.93 233.84C283.597 234.187 283.17 234.59 282.65 235.05L282.2 235.45H285.37V236.4H280.51V235.57L281.23 234.95ZM287.601 232.69C286.908 232.343 286.561 231.797 286.561 231.05C286.561 230.69 286.651 230.36 286.831 230.06C287.011 229.76 287.281 229.523 287.641 229.35C288.001 229.17 288.441 229.08 288.961 229.08C289.475 229.08 289.911 229.17 290.271 229.35C290.638 229.523 290.911 229.76 291.091 230.06C291.271 230.36 291.361 230.69 291.361 231.05C291.361 231.423 291.265 231.753 291.071 232.04C290.885 232.32 290.635 232.537 290.321 232.69C290.701 232.83 291.001 233.06 291.221 233.38C291.441 233.693 291.551 234.063 291.551 234.49C291.551 234.923 291.441 235.307 291.221 235.64C291.001 235.973 290.695 236.23 290.301 236.41C289.908 236.59 289.461 236.68 288.961 236.68C288.461 236.68 288.015 236.59 287.621 236.41C287.235 236.23 286.931 235.973 286.711 235.64C286.491 235.307 286.381 234.923 286.381 234.49C286.381 234.057 286.491 233.683 286.711 233.37C286.931 233.057 287.228 232.83 287.601 232.69ZM290.271 231.19C290.271 230.817 290.155 230.53 289.921 230.33C289.688 230.13 289.368 230.03 288.961 230.03C288.561 230.03 288.245 230.13 288.011 230.33C287.778 230.53 287.661 230.82 287.661 231.2C287.661 231.533 287.781 231.807 288.021 232.02C288.268 232.227 288.581 232.33 288.961 232.33C289.341 232.33 289.655 232.223 289.901 232.01C290.148 231.797 290.271 231.523 290.271 231.19ZM288.961 233.19C288.521 233.19 288.161 233.3 287.881 233.52C287.608 233.733 287.471 234.043 287.471 234.45C287.471 234.83 287.605 235.14 287.871 235.38C288.138 235.613 288.501 235.73 288.961 235.73C289.415 235.73 289.771 235.61 290.031 235.37C290.298 235.13 290.431 234.823 290.431 234.45C290.431 234.05 290.295 233.74 290.021 233.52C289.755 233.3 289.401 233.19 288.961 233.19Z" fill="#333333"/>
<path d="M41.23 267.95C41.87 267.397 42.3733 266.943 42.74 266.59C43.1133 266.23 43.4233 265.857 43.67 265.47C43.9167 265.083 44.04 264.697 44.04 264.31C44.04 263.91 43.9433 263.597 43.75 263.37C43.5633 263.143 43.2667 263.03 42.86 263.03C42.4667 263.03 42.16 263.157 41.94 263.41C41.7267 263.657 41.6133 263.99 41.6 264.41H40.5C40.52 263.65 40.7467 263.07 41.18 262.67C41.62 262.263 42.1767 262.06 42.85 262.06C43.5767 262.06 44.1433 262.26 44.55 262.66C44.9633 263.06 45.17 263.593 45.17 264.26C45.17 264.74 45.0467 265.203 44.8 265.65C44.56 266.09 44.27 266.487 43.93 266.84C43.5967 267.187 43.17 267.59 42.65 268.05L42.2 268.45H45.37V269.4H40.51V268.57L41.23 267.95ZM47.7915 267.52C47.8582 267.853 48.0015 268.107 48.2215 268.28C48.4415 268.453 48.7382 268.54 49.1115 268.54C49.5848 268.54 49.9315 268.353 50.1515 267.98C50.3715 267.607 50.4815 266.97 50.4815 266.07C50.3215 266.297 50.0948 266.473 49.8015 266.6C49.5148 266.72 49.2015 266.78 48.8615 266.78C48.4282 266.78 48.0348 266.693 47.6815 266.52C47.3282 266.34 47.0482 266.077 46.8415 265.73C46.6415 265.377 46.5415 264.95 46.5415 264.45C46.5415 263.717 46.7548 263.133 47.1815 262.7C47.6148 262.26 48.2082 262.04 48.9615 262.04C49.8682 262.04 50.5115 262.343 50.8915 262.95C51.2782 263.55 51.4715 264.473 51.4715 265.72C51.4715 266.58 51.3982 267.283 51.2515 267.83C51.1115 268.377 50.8648 268.79 50.5115 269.07C50.1582 269.35 49.6682 269.49 49.0415 269.49C48.3282 269.49 47.7782 269.303 47.3915 268.93C47.0048 268.557 46.7882 268.087 46.7415 267.52H47.7915ZM49.0615 265.82C49.4615 265.82 49.7748 265.697 50.0015 265.45C50.2348 265.197 50.3515 264.863 50.3515 264.45C50.3515 263.99 50.2282 263.633 49.9815 263.38C49.7415 263.12 49.4115 262.99 48.9915 262.99C48.5715 262.99 48.2382 263.123 47.9915 263.39C47.7515 263.65 47.6315 263.993 47.6315 264.42C47.6315 264.827 47.7482 265.163 47.9815 265.43C48.2215 265.69 48.5815 265.82 49.0615 265.82Z" fill="#333333"/>
<path d="M80.58 264.01C80.62 263.39 80.8567 262.907 81.29 262.56C81.73 262.213 82.29 262.04 82.97 262.04C83.4367 262.04 83.84 262.123 84.18 262.29C84.52 262.457 84.7767 262.683 84.95 262.97C85.1233 263.257 85.21 263.58 85.21 263.94C85.21 264.353 85.1 264.707 84.88 265C84.66 265.293 84.3967 265.49 84.09 265.59V265.63C84.4833 265.75 84.79 265.97 85.01 266.29C85.23 266.603 85.34 267.007 85.34 267.5C85.34 267.893 85.25 268.243 85.07 268.55C84.89 268.857 84.6233 269.1 84.27 269.28C83.9167 269.453 83.4933 269.54 83 269.54C82.28 269.54 81.6867 269.357 81.22 268.99C80.76 268.617 80.5133 268.083 80.48 267.39H81.58C81.6067 267.743 81.7433 268.033 81.99 268.26C82.2367 268.48 82.57 268.59 82.99 268.59C83.3967 268.59 83.71 268.48 83.93 268.26C84.15 268.033 84.26 267.743 84.26 267.39C84.26 266.923 84.11 266.593 83.81 266.4C83.5167 266.2 83.0633 266.1 82.45 266.1H82.19V265.16H82.46C83 265.153 83.41 265.063 83.69 264.89C83.9767 264.717 84.12 264.443 84.12 264.07C84.12 263.75 84.0167 263.497 83.81 263.31C83.6033 263.117 83.31 263.02 82.93 263.02C82.5567 263.02 82.2667 263.117 82.06 263.31C81.8533 263.497 81.73 263.73 81.69 264.01H80.58ZM86.5375 265.76C86.5375 264.607 86.7308 263.707 87.1175 263.06C87.5108 262.407 88.1842 262.08 89.1375 262.08C90.0908 262.08 90.7608 262.407 91.1475 263.06C91.5408 263.707 91.7375 264.607 91.7375 265.76C91.7375 266.927 91.5408 267.84 91.1475 268.5C90.7608 269.153 90.0908 269.48 89.1375 269.48C88.1842 269.48 87.5108 269.153 87.1175 268.5C86.7308 267.84 86.5375 266.927 86.5375 265.76ZM90.6175 265.76C90.6175 265.22 90.5808 264.763 90.5075 264.39C90.4408 264.017 90.3008 263.713 90.0875 263.48C89.8742 263.24 89.5575 263.12 89.1375 263.12C88.7175 263.12 88.4008 263.24 88.1875 263.48C87.9742 263.713 87.8308 264.017 87.7575 264.39C87.6908 264.763 87.6575 265.22 87.6575 265.76C87.6575 266.32 87.6908 266.79 87.7575 267.17C87.8242 267.55 87.9642 267.857 88.1775 268.09C88.3975 268.323 88.7175 268.44 89.1375 268.44C89.5575 268.44 89.8742 268.323 90.0875 268.09C90.3075 267.857 90.4508 267.55 90.5175 267.17C90.5842 266.79 90.6175 266.32 90.6175 265.76Z" fill="#333333"/>
<path d="M120.58 264.01C120.62 263.39 120.857 262.907 121.29 262.56C121.73 262.213 122.29 262.04 122.97 262.04C123.437 262.04 123.84 262.123 124.18 262.29C124.52 262.457 124.777 262.683 124.95 262.97C125.123 263.257 125.21 263.58 125.21 263.94C125.21 264.353 125.1 264.707 124.88 265C124.66 265.293 124.397 265.49 124.09 265.59V265.63C124.483 265.75 124.79 265.97 125.01 266.29C125.23 266.603 125.34 267.007 125.34 267.5C125.34 267.893 125.25 268.243 125.07 268.55C124.89 268.857 124.623 269.1 124.27 269.28C123.917 269.453 123.493 269.54 123 269.54C122.28 269.54 121.687 269.357 121.22 268.99C120.76 268.617 120.513 268.083 120.48 267.39H121.58C121.607 267.743 121.743 268.033 121.99 268.26C122.237 268.48 122.57 268.59 122.99 268.59C123.397 268.59 123.71 268.48 123.93 268.26C124.15 268.033 124.26 267.743 124.26 267.39C124.26 266.923 124.11 266.593 123.81 266.4C123.517 266.2 123.063 266.1 122.45 266.1H122.19V265.16H122.46C123 265.153 123.41 265.063 123.69 264.89C123.977 264.717 124.12 264.443 124.12 264.07C124.12 263.75 124.017 263.497 123.81 263.31C123.603 263.117 123.31 263.02 122.93 263.02C122.557 263.02 122.267 263.117 122.06 263.31C121.853 263.497 121.73 263.73 121.69 264.01H120.58ZM126.388 263.25V262.21H128.468V269.5H127.318V263.25H126.388Z" fill="#333333"/>
<g opacity="0.3">
<path d="M160.6 265.76C160.6 264.607 160.793 263.707 161.18 263.06C161.573 262.407 162.247 262.08 163.2 262.08C164.153 262.08 164.823 262.407 165.21 263.06C165.603 263.707 165.8 264.607 165.8 265.76C165.8 266.927 165.603 267.84 165.21 268.5C164.823 269.153 164.153 269.48 163.2 269.48C162.247 269.48 161.573 269.153 161.18 268.5C160.793 267.84 160.6 266.927 160.6 265.76ZM164.68 265.76C164.68 265.22 164.643 264.763 164.57 264.39C164.503 264.017 164.363 263.713 164.15 263.48C163.937 263.24 163.62 263.12 163.2 263.12C162.78 263.12 162.463 263.24 162.25 263.48C162.037 263.713 161.893 264.017 161.82 264.39C161.753 264.763 161.72 265.22 161.72 265.76C161.72 266.32 161.753 266.79 161.82 267.17C161.887 267.55 162.027 267.857 162.24 268.09C162.46 268.323 162.78 268.44 163.2 268.44C163.62 268.44 163.937 268.323 164.15 268.09C164.37 267.857 164.513 267.55 164.58 267.17C164.647 266.79 164.68 266.32 164.68 265.76ZM166.856 263.25V262.21H168.936V269.5H167.786V263.25H166.856Z" fill="#333333"/>
</g>
<g opacity="0.3">
<path d="M200.6 265.76C200.6 264.607 200.793 263.707 201.18 263.06C201.573 262.407 202.247 262.08 203.2 262.08C204.153 262.08 204.823 262.407 205.21 263.06C205.603 263.707 205.8 264.607 205.8 265.76C205.8 266.927 205.603 267.84 205.21 268.5C204.823 269.153 204.153 269.48 203.2 269.48C202.247 269.48 201.573 269.153 201.18 268.5C200.793 267.84 200.6 266.927 200.6 265.76ZM204.68 265.76C204.68 265.22 204.643 264.763 204.57 264.39C204.503 264.017 204.363 263.713 204.15 263.48C203.937 263.24 203.62 263.12 203.2 263.12C202.78 263.12 202.463 263.24 202.25 263.48C202.037 263.713 201.893 264.017 201.82 264.39C201.753 264.763 201.72 265.22 201.72 265.76C201.72 266.32 201.753 266.79 201.82 267.17C201.887 267.55 202.027 267.857 202.24 268.09C202.46 268.323 202.78 268.44 203.2 268.44C203.62 268.44 203.937 268.323 204.15 268.09C204.37 267.857 204.513 267.55 204.58 267.17C204.647 266.79 204.68 266.32 204.68 265.76ZM207.636 267.95C208.276 267.397 208.78 266.943 209.146 266.59C209.52 266.23 209.83 265.857 210.076 265.47C210.323 265.083 210.446 264.697 210.446 264.31C210.446 263.91 210.35 263.597 210.156 263.37C209.97 263.143 209.673 263.03 209.266 263.03C208.873 263.03 208.566 263.157 208.346 263.41C208.133 263.657 208.02 263.99 208.006 264.41H206.906C206.926 263.65 207.153 263.07 207.586 262.67C208.026 262.263 208.583 262.06 209.256 262.06C209.983 262.06 210.55 262.26 210.956 262.66C211.37 263.06 211.576 263.593 211.576 264.26C211.576 264.74 211.453 265.203 211.206 265.65C210.966 266.09 210.676 266.487 210.336 266.84C210.003 267.187 209.576 267.59 209.056 268.05L208.606 268.45H211.776V269.4H206.916V268.57L207.636 267.95Z" fill="#333333"/>
</g>
<g opacity="0.3">
<path d="M240.6 265.76C240.6 264.607 240.793 263.707 241.18 263.06C241.573 262.407 242.247 262.08 243.2 262.08C244.153 262.08 244.823 262.407 245.21 263.06C245.603 263.707 245.8 264.607 245.8 265.76C245.8 266.927 245.603 267.84 245.21 268.5C244.823 269.153 244.153 269.48 243.2 269.48C242.247 269.48 241.573 269.153 241.18 268.5C240.793 267.84 240.6 266.927 240.6 265.76ZM244.68 265.76C244.68 265.22 244.643 264.763 244.57 264.39C244.503 264.017 244.363 263.713 244.15 263.48C243.937 263.24 243.62 263.12 243.2 263.12C242.78 263.12 242.463 263.24 242.25 263.48C242.037 263.713 241.893 264.017 241.82 264.39C241.753 264.763 241.72 265.22 241.72 265.76C241.72 266.32 241.753 266.79 241.82 267.17C241.887 267.55 242.027 267.857 242.24 268.09C242.46 268.323 242.78 268.44 243.2 268.44C243.62 268.44 243.937 268.323 244.15 268.09C244.37 267.857 244.513 267.55 244.58 267.17C244.647 266.79 244.68 266.32 244.68 265.76ZM246.986 264.01C247.026 263.39 247.263 262.907 247.696 262.56C248.136 262.213 248.696 262.04 249.376 262.04C249.843 262.04 250.246 262.123 250.586 262.29C250.926 262.457 251.183 262.683 251.356 262.97C251.53 263.257 251.616 263.58 251.616 263.94C251.616 264.353 251.506 264.707 251.286 265C251.066 265.293 250.803 265.49 250.496 265.59V265.63C250.89 265.75 251.196 265.97 251.416 266.29C251.636 266.603 251.746 267.007 251.746 267.5C251.746 267.893 251.656 268.243 251.476 268.55C251.296 268.857 251.03 269.1 250.676 269.28C250.323 269.453 249.9 269.54 249.406 269.54C248.686 269.54 248.093 269.357 247.626 268.99C247.166 268.617 246.92 268.083 246.886 267.39H247.986C248.013 267.743 248.15 268.033 248.396 268.26C248.643 268.48 248.976 268.59 249.396 268.59C249.803 268.59 250.116 268.48 250.336 268.26C250.556 268.033 250.666 267.743 250.666 267.39C250.666 266.923 250.516 266.593 250.216 266.4C249.923 266.2 249.47 266.1 248.856 266.1H248.596V265.16H248.866C249.406 265.153 249.816 265.063 250.096 264.89C250.383 264.717 250.526 264.443 250.526 264.07C250.526 263.75 250.423 263.497 250.216 263.31C250.01 263.117 249.716 263.02 249.336 263.02C248.963 263.02 248.673 263.117 248.466 263.31C248.26 263.497 248.136 263.73 248.096 264.01H246.986Z" fill="#333333"/>
</g>
<g opacity="0.3">
<path d="M280.6 265.76C280.6 264.607 280.793 263.707 281.18 263.06C281.573 262.407 282.247 262.08 283.2 262.08C284.153 262.08 284.823 262.407 285.21 263.06C285.603 263.707 285.8 264.607 285.8 265.76C285.8 266.927 285.603 267.84 285.21 268.5C284.823 269.153 284.153 269.48 283.2 269.48C282.247 269.48 281.573 269.153 281.18 268.5C280.793 267.84 280.6 266.927 280.6 265.76ZM284.68 265.76C284.68 265.22 284.643 264.763 284.57 264.39C284.503 264.017 284.363 263.713 284.15 263.48C283.937 263.24 283.62 263.12 283.2 263.12C282.78 263.12 282.463 263.24 282.25 263.48C282.037 263.713 281.893 264.017 281.82 264.39C281.753 264.763 281.72 265.22 281.72 265.76C281.72 266.32 281.753 266.79 281.82 267.17C281.887 267.55 282.027 267.857 282.24 268.09C282.46 268.323 282.78 268.44 283.2 268.44C283.62 268.44 283.937 268.323 284.15 268.09C284.37 267.857 284.513 267.55 284.58 267.17C284.647 266.79 284.68 266.32 284.68 265.76ZM286.866 267.98V267.12L290.226 262.3H291.606V266.99H292.536V267.98H291.606V269.5H290.486V267.98H286.866ZM290.536 263.46L288.176 266.99H290.536V263.46Z" fill="#333333"/>
</g>
<rect x="347.5" y="1" width="282" height="322" rx="11.5" stroke="black" stroke-opacity="0.05"/>
<path d="M381.773 25.1136V23.8636H390.5V25.1136H386.841V35.5H385.432V25.1136H381.773ZM396.805 31.9318V26.7727H398.146V35.5H396.805V34.0227H396.714C396.51 34.4659 396.192 34.8428 395.76 35.1534C395.328 35.4602 394.783 35.6136 394.124 35.6136C393.578 35.6136 393.093 35.4943 392.669 35.2557C392.245 35.0133 391.911 34.6496 391.669 34.1648C391.427 33.6761 391.305 33.0606 391.305 32.3182V26.7727H392.646V32.2273C392.646 32.8636 392.824 33.3712 393.18 33.75C393.54 34.1288 393.999 34.3182 394.555 34.3182C394.889 34.3182 395.228 34.233 395.572 34.0625C395.921 33.892 396.213 33.6307 396.447 33.2784C396.686 32.9261 396.805 32.4773 396.805 31.9318ZM404.261 35.6818C403.42 35.6818 402.695 35.4962 402.085 35.125C401.479 34.75 401.011 34.2273 400.682 33.5568C400.356 32.8826 400.193 32.0985 400.193 31.2045C400.193 30.3106 400.356 29.5227 400.682 28.8409C401.011 28.1553 401.47 27.6212 402.057 27.2386C402.648 26.8523 403.337 26.6591 404.125 26.6591C404.58 26.6591 405.028 26.7348 405.472 26.8864C405.915 27.0379 406.318 27.2841 406.682 27.625C407.045 27.9621 407.335 28.4091 407.551 28.9659C407.767 29.5227 407.875 30.2083 407.875 31.0227V31.5909H401.148V30.4318H406.511C406.511 29.9394 406.413 29.5 406.216 29.1136C406.023 28.7273 405.746 28.4223 405.386 28.1989C405.03 27.9754 404.61 27.8636 404.125 27.8636C403.591 27.8636 403.129 27.9962 402.739 28.2614C402.352 28.5227 402.055 28.8636 401.847 29.2841C401.638 29.7045 401.534 30.1553 401.534 30.6364V31.4091C401.534 32.0682 401.648 32.6269 401.875 33.0852C402.106 33.5398 402.426 33.8864 402.835 34.125C403.244 34.3598 403.72 34.4773 404.261 34.4773C404.614 34.4773 404.932 34.428 405.216 34.3295C405.504 34.2273 405.752 34.0758 405.96 33.875C406.169 33.6705 406.33 33.4167 406.443 33.1136L407.739 33.4773C407.602 33.9167 407.373 34.303 407.051 34.6364C406.729 34.9659 406.331 35.2235 405.858 35.4091C405.384 35.5909 404.852 35.6818 404.261 35.6818ZM416.097 28.7273L414.892 29.0682C414.816 28.8674 414.705 28.6723 414.557 28.483C414.413 28.2898 414.216 28.1307 413.966 28.0057C413.716 27.8807 413.396 27.8182 413.006 27.8182C412.472 27.8182 412.027 27.9413 411.67 28.1875C411.318 28.4299 411.142 28.7386 411.142 29.1136C411.142 29.447 411.263 29.7102 411.506 29.9034C411.748 30.0966 412.127 30.2576 412.642 30.3864L413.938 30.7045C414.718 30.8939 415.299 31.1837 415.682 31.5739C416.064 31.9602 416.256 32.4583 416.256 33.0682C416.256 33.5682 416.112 34.0152 415.824 34.4091C415.54 34.803 415.142 35.1136 414.631 35.3409C414.119 35.5682 413.525 35.6818 412.847 35.6818C411.956 35.6818 411.22 35.4886 410.636 35.1023C410.053 34.7159 409.684 34.1515 409.528 33.4091L410.801 33.0909C410.922 33.5606 411.152 33.9129 411.489 34.1477C411.83 34.3826 412.275 34.5 412.824 34.5C413.449 34.5 413.945 34.3674 414.312 34.1023C414.684 33.8333 414.869 33.5114 414.869 33.1364C414.869 32.8333 414.763 32.5795 414.551 32.375C414.339 32.1667 414.013 32.0114 413.574 31.9091L412.119 31.5682C411.32 31.3788 410.733 31.0852 410.358 30.6875C409.987 30.286 409.801 29.7841 409.801 29.1818C409.801 28.6894 409.939 28.2538 410.216 27.875C410.496 27.4962 410.877 27.1989 411.358 26.983C411.843 26.767 412.392 26.6591 413.006 26.6591C413.869 26.6591 414.547 26.8485 415.04 27.2273C415.536 27.6061 415.888 28.1061 416.097 28.7273ZM421.57 35.6818C420.842 35.6818 420.2 35.4981 419.643 35.1307C419.087 34.7595 418.651 34.2367 418.337 33.5625C418.022 32.8845 417.865 32.0833 417.865 31.1591C417.865 30.2424 418.022 29.447 418.337 28.7727C418.651 28.0985 419.089 27.5777 419.649 27.2102C420.21 26.8428 420.857 26.6591 421.592 26.6591C422.161 26.6591 422.609 26.7538 422.939 26.9432C423.272 27.1288 423.526 27.3409 423.7 27.5795C423.878 27.8144 424.017 28.0076 424.115 28.1591H424.229V23.8636H425.57V35.5H424.274V34.1591H424.115C424.017 34.3182 423.876 34.5189 423.695 34.7614C423.513 35 423.253 35.214 422.916 35.4034C422.579 35.589 422.13 35.6818 421.57 35.6818ZM421.751 34.4773C422.289 34.4773 422.744 34.3371 423.115 34.0568C423.486 33.7727 423.768 33.3807 423.962 32.8807C424.155 32.3769 424.251 31.7955 424.251 31.1364C424.251 30.4848 424.157 29.9148 423.967 29.4261C423.778 28.9337 423.498 28.5511 423.126 28.2784C422.755 28.0019 422.297 27.8636 421.751 27.8636C421.183 27.8636 420.71 28.0095 420.331 28.3011C419.956 28.589 419.674 28.9811 419.484 29.4773C419.299 29.9697 419.206 30.5227 419.206 31.1364C419.206 31.7576 419.301 32.322 419.49 32.8295C419.683 33.3333 419.967 33.7348 420.342 34.0341C420.721 34.3295 421.191 34.4773 421.751 34.4773ZM430.78 35.7045C430.227 35.7045 429.725 35.6004 429.274 35.392C428.823 35.1799 428.465 34.875 428.2 34.4773C427.935 34.0758 427.803 33.5909 427.803 33.0227C427.803 32.5227 427.901 32.1174 428.098 31.8068C428.295 31.4924 428.558 31.2462 428.888 31.0682C429.217 30.8902 429.581 30.7576 429.979 30.6705C430.38 30.5795 430.784 30.5076 431.189 30.4545C431.719 30.3864 432.149 30.3352 432.479 30.3011C432.812 30.2633 433.054 30.2008 433.206 30.1136C433.361 30.0265 433.439 29.875 433.439 29.6591V29.6136C433.439 29.053 433.286 28.6174 432.979 28.3068C432.676 27.9962 432.215 27.8409 431.598 27.8409C430.958 27.8409 430.456 27.9811 430.092 28.2614C429.729 28.5417 429.473 28.8409 429.325 29.1591L428.053 28.7045C428.28 28.1742 428.583 27.7614 428.962 27.4659C429.344 27.1667 429.761 26.9583 430.212 26.8409C430.666 26.7197 431.113 26.6591 431.553 26.6591C431.833 26.6591 432.155 26.6932 432.518 26.7614C432.886 26.8258 433.24 26.9602 433.581 27.1648C433.926 27.3693 434.212 27.678 434.439 28.0909C434.666 28.5038 434.78 29.0568 434.78 29.75V35.5H433.439V34.3182H433.371C433.28 34.5076 433.128 34.7102 432.916 34.9261C432.704 35.142 432.422 35.3258 432.07 35.4773C431.717 35.6288 431.287 35.7045 430.78 35.7045ZM430.984 34.5C431.515 34.5 431.962 34.3958 432.325 34.1875C432.693 33.9792 432.969 33.7102 433.155 33.3807C433.344 33.0511 433.439 32.7045 433.439 32.3409V31.1136C433.382 31.1818 433.257 31.2443 433.064 31.3011C432.875 31.3542 432.655 31.4015 432.405 31.4432C432.159 31.4811 431.918 31.5152 431.683 31.5455C431.452 31.572 431.265 31.5947 431.121 31.6136C430.772 31.6591 430.446 31.733 430.143 31.8352C429.844 31.9337 429.602 32.0833 429.416 32.2841C429.234 32.4811 429.143 32.75 429.143 33.0909C429.143 33.5568 429.316 33.9091 429.661 34.1477C430.009 34.3826 430.45 34.5 430.984 34.5ZM437.778 38.7727C437.551 38.7727 437.348 38.7538 437.17 38.7159C436.992 38.6818 436.869 38.6477 436.801 38.6136L437.142 37.4318C437.468 37.5152 437.756 37.5455 438.006 37.5227C438.256 37.5 438.477 37.3883 438.67 37.1875C438.867 36.9905 439.047 36.6705 439.21 36.2273L439.46 35.5455L436.233 26.7727H437.688L440.097 33.7273H440.188L442.597 26.7727H444.051L440.347 36.7727C440.18 37.2235 439.973 37.5966 439.727 37.892C439.481 38.1913 439.195 38.4129 438.869 38.5568C438.547 38.7008 438.184 38.7727 437.778 38.7727ZM447.274 33.9091L447.183 34.5227C447.119 34.9545 447.02 35.4167 446.888 35.9091C446.759 36.4015 446.625 36.8655 446.484 37.3011C446.344 37.7367 446.229 38.0833 446.138 38.3409H445.115C445.164 38.0985 445.229 37.7784 445.308 37.3807C445.388 36.983 445.467 36.5379 445.547 36.0455C445.63 35.5568 445.698 35.0568 445.751 34.5455L445.82 33.9091H447.274ZM458.327 23.8636V35.5H456.918V25.3409H456.849L454.009 27.2273V25.7955L456.918 23.8636H458.327ZM461.673 35.5V34.4773L465.514 30.2727C465.965 29.7803 466.336 29.3523 466.628 28.9886C466.92 28.6212 467.135 28.2765 467.276 27.9545C467.42 27.6288 467.491 27.2879 467.491 26.9318C467.491 26.5227 467.393 26.1686 467.196 25.8693C467.003 25.5701 466.738 25.339 466.401 25.1761C466.063 25.0133 465.685 24.9318 465.264 24.9318C464.817 24.9318 464.427 25.0246 464.094 25.2102C463.764 25.392 463.509 25.6477 463.327 25.9773C463.149 26.3068 463.06 26.6932 463.06 27.1364H461.719C461.719 26.4545 461.876 25.8561 462.19 25.3409C462.505 24.8258 462.933 24.4242 463.474 24.1364C464.02 23.8485 464.632 23.7045 465.31 23.7045C465.991 23.7045 466.596 23.8485 467.122 24.1364C467.649 24.4242 468.062 24.8125 468.361 25.3011C468.66 25.7898 468.81 26.3333 468.81 26.9318C468.81 27.3598 468.732 27.7784 468.577 28.1875C468.425 28.5928 468.16 29.0455 467.781 29.5455C467.406 30.0417 466.885 30.6477 466.219 31.3636L463.605 34.1591V34.25H469.014V35.5H461.673ZM475.179 26.7727V27.9091H470.656V26.7727H475.179ZM471.974 24.6818H473.315V33C473.315 33.3788 473.37 33.6629 473.48 33.8523C473.594 34.0379 473.738 34.1629 473.912 34.2273C474.09 34.2879 474.277 34.3182 474.474 34.3182C474.622 34.3182 474.743 34.3106 474.838 34.2955C474.933 34.2765 475.009 34.2614 475.065 34.25L475.338 35.4545C475.247 35.4886 475.12 35.5227 474.957 35.5568C474.795 35.5947 474.588 35.6136 474.338 35.6136C473.959 35.6136 473.588 35.5322 473.224 35.3693C472.865 35.2064 472.565 34.9583 472.327 34.625C472.092 34.2917 471.974 33.8712 471.974 33.3636V24.6818ZM478.724 30.25V35.5H477.384V23.8636H478.724V28.1364H478.838C479.043 27.6856 479.349 27.3277 479.759 27.0625C480.171 26.7936 480.721 26.6591 481.406 26.6591C482.001 26.6591 482.522 26.7784 482.969 27.017C483.416 27.2519 483.762 27.6136 484.009 28.1023C484.259 28.5871 484.384 29.2045 484.384 29.9545V35.5H483.043V30.0455C483.043 29.3523 482.863 28.8163 482.503 28.4375C482.147 28.0549 481.652 27.8636 481.02 27.8636C480.58 27.8636 480.187 27.9564 479.838 28.142C479.493 28.3277 479.221 28.5985 479.02 28.9545C478.823 29.3106 478.724 29.7424 478.724 30.25ZM491.518 23.8636H493.2L497.155 33.5227H497.291L501.246 23.8636H502.928V35.5H501.609V26.6591H501.496L497.859 35.5H496.587L492.95 26.6591H492.837V35.5H491.518V23.8636ZM508.139 35.7045C507.586 35.7045 507.084 35.6004 506.634 35.392C506.183 35.1799 505.825 34.875 505.56 34.4773C505.295 34.0758 505.162 33.5909 505.162 33.0227C505.162 32.5227 505.26 32.1174 505.457 31.8068C505.654 31.4924 505.918 31.2462 506.247 31.0682C506.577 30.8902 506.94 30.7576 507.338 30.6705C507.74 30.5795 508.143 30.5076 508.548 30.4545C509.079 30.3864 509.509 30.3352 509.838 30.3011C510.171 30.2633 510.414 30.2008 510.565 30.1136C510.721 30.0265 510.798 29.875 510.798 29.6591V29.6136C510.798 29.053 510.645 28.6174 510.338 28.3068C510.035 27.9962 509.575 27.8409 508.957 27.8409C508.317 27.8409 507.815 27.9811 507.452 28.2614C507.088 28.5417 506.832 28.8409 506.685 29.1591L505.412 28.7045C505.639 28.1742 505.942 27.7614 506.321 27.4659C506.704 27.1667 507.12 26.9583 507.571 26.8409C508.026 26.7197 508.473 26.6591 508.912 26.6591C509.192 26.6591 509.514 26.6932 509.878 26.7614C510.245 26.8258 510.599 26.9602 510.94 27.1648C511.285 27.3693 511.571 27.678 511.798 28.0909C512.026 28.5038 512.139 29.0568 512.139 29.75V35.5H510.798V34.3182H510.73C510.639 34.5076 510.488 34.7102 510.276 34.9261C510.063 35.142 509.781 35.3258 509.429 35.4773C509.077 35.6288 508.647 35.7045 508.139 35.7045ZM508.344 34.5C508.874 34.5 509.321 34.3958 509.685 34.1875C510.052 33.9792 510.329 33.7102 510.514 33.3807C510.704 33.0511 510.798 32.7045 510.798 32.3409V31.1136C510.741 31.1818 510.616 31.2443 510.423 31.3011C510.234 31.3542 510.014 31.4015 509.764 31.4432C509.518 31.4811 509.277 31.5152 509.043 31.5455C508.812 31.572 508.624 31.5947 508.48 31.6136C508.132 31.6591 507.806 31.733 507.503 31.8352C507.204 31.9337 506.961 32.0833 506.776 32.2841C506.594 32.4811 506.503 32.75 506.503 33.0909C506.503 33.5568 506.675 33.9091 507.02 34.1477C507.368 34.3826 507.81 34.5 508.344 34.5ZM514.587 35.5V26.7727H515.882V28.0909H515.973C516.132 27.6591 516.42 27.3087 516.837 27.0398C517.253 26.7708 517.723 26.6364 518.246 26.6364C518.344 26.6364 518.467 26.6383 518.615 26.642C518.763 26.6458 518.875 26.6515 518.95 26.6591V28.0227C518.905 28.0114 518.801 27.9943 518.638 27.9716C518.479 27.9451 518.31 27.9318 518.132 27.9318C517.708 27.9318 517.329 28.0208 516.996 28.1989C516.666 28.3731 516.405 28.6155 516.212 28.9261C516.022 29.233 515.928 29.5833 515.928 29.9773V35.5H514.587ZM523.82 35.6818C523.001 35.6818 522.297 35.4886 521.706 35.1023C521.115 34.7159 520.661 34.1837 520.342 33.5057C520.024 32.8277 519.865 32.053 519.865 31.1818C519.865 30.2955 520.028 29.5133 520.354 28.8352C520.683 28.1534 521.142 27.6212 521.729 27.2386C522.32 26.8523 523.009 26.6591 523.797 26.6591C524.411 26.6591 524.964 26.7727 525.456 27C525.948 27.2273 526.352 27.5455 526.666 27.9545C526.981 28.3636 527.176 28.8409 527.251 29.3864H525.911C525.808 28.9886 525.581 28.6364 525.229 28.3295C524.88 28.0189 524.411 27.8636 523.82 27.8636C523.297 27.8636 522.839 28 522.445 28.2727C522.054 28.5417 521.75 28.9223 521.53 29.4148C521.314 29.9034 521.206 30.4773 521.206 31.1364C521.206 31.8106 521.312 32.3977 521.524 32.8977C521.74 33.3977 522.043 33.786 522.433 34.0625C522.827 34.339 523.289 34.4773 523.82 34.4773C524.168 34.4773 524.484 34.4167 524.768 34.2955C525.053 34.1742 525.293 34 525.49 33.7727C525.687 33.5455 525.827 33.2727 525.911 32.9545H527.251C527.176 33.4697 526.988 33.9337 526.689 34.3466C526.393 34.7557 526.001 35.0814 525.513 35.3239C525.028 35.5625 524.464 35.6818 523.82 35.6818ZM530.553 30.25V35.5H529.212V23.8636H530.553V28.1364H530.666C530.871 27.6856 531.178 27.3277 531.587 27.0625C532 26.7936 532.549 26.6591 533.234 26.6591C533.829 26.6591 534.35 26.7784 534.797 27.017C535.244 27.2519 535.59 27.6136 535.837 28.1023C536.087 28.5871 536.212 29.2045 536.212 29.9545V35.5H534.871V30.0455C534.871 29.3523 534.691 28.8163 534.331 28.4375C533.975 28.0549 533.481 27.8636 532.848 27.8636C532.409 27.8636 532.015 27.9564 531.666 28.142C531.321 28.3277 531.049 28.5985 530.848 28.9545C530.651 29.3106 530.553 29.7424 530.553 30.25Z" fill="black" fill-opacity="0.8"/>
<path d="M386.83 48.9545C386.778 48.5227 386.571 48.1875 386.207 47.9489C385.844 47.7102 385.398 47.5909 384.869 47.5909C384.483 47.5909 384.145 47.6534 383.855 47.7784C383.568 47.9034 383.344 48.0753 383.182 48.294C383.023 48.5128 382.943 48.7614 382.943 49.0398C382.943 49.2727 382.999 49.473 383.109 49.6406C383.223 49.8054 383.368 49.9432 383.544 50.054C383.72 50.1619 383.905 50.2514 384.098 50.3224C384.291 50.3906 384.469 50.446 384.631 50.4886L385.517 50.7273C385.744 50.7869 385.997 50.8693 386.276 50.9744C386.557 51.0795 386.825 51.223 387.081 51.4048C387.339 51.5838 387.553 51.8139 387.72 52.0952C387.888 52.3764 387.972 52.7216 387.972 53.1307C387.972 53.6023 387.848 54.0284 387.601 54.4091C387.357 54.7898 386.999 55.0923 386.527 55.3168C386.058 55.5412 385.489 55.6534 384.818 55.6534C384.193 55.6534 383.652 55.5526 383.195 55.3509C382.74 55.1491 382.382 54.8679 382.121 54.5071C381.862 54.1463 381.716 53.7273 381.682 53.25H382.773C382.801 53.5795 382.912 53.8523 383.105 54.0682C383.301 54.2812 383.548 54.4403 383.847 54.5455C384.148 54.6477 384.472 54.6989 384.818 54.6989C385.222 54.6989 385.584 54.6335 385.905 54.5028C386.226 54.3693 386.48 54.1847 386.668 53.9489C386.855 53.7102 386.949 53.4318 386.949 53.1136C386.949 52.8239 386.868 52.5881 386.706 52.4062C386.544 52.2244 386.331 52.0767 386.067 51.9631C385.803 51.8494 385.517 51.75 385.21 51.6648L384.136 51.358C383.455 51.1619 382.915 50.8821 382.517 50.5185C382.119 50.1548 381.92 49.679 381.92 49.0909C381.92 48.6023 382.053 48.1761 382.317 47.8125C382.584 47.446 382.942 47.1619 383.391 46.9602C383.842 46.7557 384.347 46.6534 384.903 46.6534C385.466 46.6534 385.966 46.7543 386.403 46.956C386.841 47.1548 387.188 47.4276 387.443 47.7741C387.702 48.1207 387.838 48.5142 387.852 48.9545H386.83ZM392.317 55.6364C391.686 55.6364 391.142 55.4972 390.685 55.2188C390.23 54.9375 389.88 54.5455 389.632 54.0426C389.388 53.5369 389.266 52.9489 389.266 52.2784C389.266 51.608 389.388 51.017 389.632 50.5057C389.88 49.9915 390.223 49.5909 390.664 49.304C391.107 49.0142 391.624 48.8693 392.215 48.8693C392.556 48.8693 392.892 48.9261 393.225 49.0398C393.557 49.1534 393.86 49.3381 394.132 49.5938C394.405 49.8466 394.623 50.1818 394.784 50.5994C394.946 51.017 395.027 51.5312 395.027 52.142V52.5682H389.982V51.6989H394.005C394.005 51.3295 393.931 51 393.783 50.7102C393.638 50.4205 393.431 50.1918 393.161 50.0241C392.894 49.8565 392.578 49.7727 392.215 49.7727C391.814 49.7727 391.468 49.8722 391.175 50.071C390.885 50.267 390.662 50.5227 390.506 50.8381C390.35 51.1534 390.272 51.4915 390.272 51.8523V52.4318C390.272 52.9261 390.357 53.3452 390.527 53.6889C390.701 54.0298 390.941 54.2898 391.248 54.4688C391.554 54.6449 391.911 54.733 392.317 54.733C392.581 54.733 392.82 54.696 393.033 54.6222C393.249 54.5455 393.435 54.4318 393.591 54.2812C393.748 54.1278 393.868 53.9375 393.953 53.7102L394.925 53.983C394.823 54.3125 394.651 54.6023 394.409 54.8523C394.168 55.0994 393.87 55.2926 393.515 55.4318C393.159 55.5682 392.76 55.6364 392.317 55.6364ZM397.563 46.7727V55.5H396.557V46.7727H397.563ZM402.149 55.6364C401.518 55.6364 400.974 55.4972 400.517 55.2188C400.062 54.9375 399.712 54.5455 399.464 54.0426C399.22 53.5369 399.098 52.9489 399.098 52.2784C399.098 51.608 399.22 51.017 399.464 50.5057C399.712 49.9915 400.055 49.5909 400.496 49.304C400.939 49.0142 401.456 48.8693 402.047 48.8693C402.388 48.8693 402.724 48.9261 403.057 49.0398C403.389 49.1534 403.692 49.3381 403.964 49.5938C404.237 49.8466 404.455 50.1818 404.616 50.5994C404.778 51.017 404.859 51.5312 404.859 52.142V52.5682H399.814V51.6989H403.837C403.837 51.3295 403.763 51 403.615 50.7102C403.47 50.4205 403.263 50.1918 402.993 50.0241C402.726 49.8565 402.411 49.7727 402.047 49.7727C401.646 49.7727 401.3 49.8722 401.007 50.071C400.717 50.267 400.494 50.5227 400.338 50.8381C400.182 51.1534 400.104 51.4915 400.104 51.8523V52.4318C400.104 52.9261 400.189 53.3452 400.359 53.6889C400.533 54.0298 400.773 54.2898 401.08 54.4688C401.386 54.6449 401.743 54.733 402.149 54.733C402.413 54.733 402.652 54.696 402.865 54.6222C403.081 54.5455 403.267 54.4318 403.423 54.2812C403.58 54.1278 403.7 53.9375 403.786 53.7102L404.757 53.983C404.655 54.3125 404.483 54.6023 404.241 54.8523C404 55.0994 403.702 55.2926 403.347 55.4318C402.991 55.5682 402.592 55.6364 402.149 55.6364ZM409.048 55.6364C408.435 55.6364 407.906 55.4915 407.463 55.2017C407.02 54.9119 406.679 54.5128 406.44 54.0043C406.202 53.4957 406.082 52.9148 406.082 52.2614C406.082 51.5966 406.205 51.0099 406.449 50.5014C406.696 49.9901 407.04 49.5909 407.48 49.304C407.923 49.0142 408.44 48.8693 409.031 48.8693C409.491 48.8693 409.906 48.9545 410.276 49.125C410.645 49.2955 410.947 49.5341 411.183 49.8409C411.419 50.1477 411.565 50.5057 411.622 50.9148H410.616C410.54 50.6165 410.369 50.3523 410.105 50.1222C409.844 49.8892 409.491 49.7727 409.048 49.7727C408.656 49.7727 408.313 49.875 408.017 50.0795C407.724 50.2812 407.496 50.5668 407.331 50.9361C407.169 51.3026 407.088 51.733 407.088 52.2273C407.088 52.733 407.168 53.1733 407.327 53.5483C407.489 53.9233 407.716 54.2145 408.009 54.4219C408.304 54.6293 408.651 54.733 409.048 54.733C409.31 54.733 409.547 54.6875 409.76 54.5966C409.973 54.5057 410.153 54.375 410.301 54.2045C410.449 54.0341 410.554 53.8295 410.616 53.5909H411.622C411.565 53.9773 411.425 54.3253 411.2 54.6349C410.979 54.9418 410.685 55.1861 410.318 55.3679C409.955 55.5469 409.531 55.6364 409.048 55.6364ZM415.939 48.9545V49.8068H412.547V48.9545H415.939ZM413.536 47.3864H414.541V53.625C414.541 53.9091 414.582 54.1222 414.665 54.2642C414.75 54.4034 414.858 54.4972 414.989 54.5455C415.122 54.5909 415.263 54.6136 415.411 54.6136C415.521 54.6136 415.612 54.608 415.683 54.5966C415.754 54.5824 415.811 54.571 415.854 54.5625L416.058 55.4659C415.99 55.4915 415.895 55.517 415.773 55.5426C415.651 55.571 415.496 55.5852 415.308 55.5852C415.024 55.5852 414.746 55.5241 414.473 55.402C414.203 55.2798 413.979 55.0938 413.8 54.8438C413.624 54.5938 413.536 54.2784 413.536 53.8977V47.3864ZM420.486 47.7102V46.7727H427.031V47.7102H424.287V55.5H423.23V47.7102H420.486ZM428.526 55.5V48.9545H429.532V55.5H428.526ZM429.037 47.8636C428.841 47.8636 428.672 47.7969 428.53 47.6634C428.391 47.5298 428.321 47.3693 428.321 47.1818C428.321 46.9943 428.391 46.8338 428.53 46.7003C428.672 46.5668 428.841 46.5 429.037 46.5C429.233 46.5 429.401 46.5668 429.54 46.7003C429.682 46.8338 429.753 46.9943 429.753 47.1818C429.753 47.3693 429.682 47.5298 429.54 47.6634C429.401 47.7969 429.233 47.8636 429.037 47.8636ZM431.374 55.5V48.9545H432.345V49.9773H432.43C432.567 49.6278 432.787 49.3565 433.091 49.1634C433.395 48.9673 433.76 48.8693 434.186 48.8693C434.618 48.8693 434.977 48.9673 435.264 49.1634C435.554 49.3565 435.78 49.6278 435.942 49.9773H436.01C436.178 49.6392 436.429 49.3707 436.764 49.1719C437.099 48.9702 437.501 48.8693 437.97 48.8693C438.555 48.8693 439.034 49.0526 439.406 49.419C439.778 49.7827 439.964 50.3494 439.964 51.1193V55.5H438.959V51.1193C438.959 50.6364 438.827 50.2912 438.562 50.0838C438.298 49.8764 437.987 49.7727 437.629 49.7727C437.169 49.7727 436.813 49.9119 436.56 50.1903C436.307 50.4659 436.18 50.8153 436.18 51.2386V55.5H435.158V51.017C435.158 50.6449 435.037 50.3452 434.795 50.1179C434.554 49.8878 434.243 49.7727 433.862 49.7727C433.601 49.7727 433.357 49.8423 433.129 49.9815C432.905 50.1207 432.723 50.3139 432.584 50.5611C432.447 50.8054 432.379 51.0881 432.379 51.4091V55.5H431.374ZM444.548 55.6364C443.917 55.6364 443.373 55.4972 442.915 55.2188C442.461 54.9375 442.11 54.5455 441.863 54.0426C441.619 53.5369 441.496 52.9489 441.496 52.2784C441.496 51.608 441.619 51.017 441.863 50.5057C442.11 49.9915 442.454 49.5909 442.894 49.304C443.337 49.0142 443.854 48.8693 444.445 48.8693C444.786 48.8693 445.123 48.9261 445.455 49.0398C445.788 49.1534 446.09 49.3381 446.363 49.5938C446.636 49.8466 446.853 50.1818 447.015 50.5994C447.177 51.017 447.258 51.5312 447.258 52.142V52.5682H442.212V51.6989H446.235C446.235 51.3295 446.161 51 446.013 50.7102C445.869 50.4205 445.661 50.1918 445.391 50.0241C445.124 49.8565 444.809 49.7727 444.445 49.7727C444.045 49.7727 443.698 49.8722 443.406 50.071C443.116 50.267 442.893 50.5227 442.737 50.8381C442.58 51.1534 442.502 51.4915 442.502 51.8523V52.4318C442.502 52.9261 442.587 53.3452 442.758 53.6889C442.931 54.0298 443.171 54.2898 443.478 54.4688C443.785 54.6449 444.141 54.733 444.548 54.733C444.812 54.733 445.05 54.696 445.263 54.6222C445.479 54.5455 445.665 54.4318 445.822 54.2812C445.978 54.1278 446.099 53.9375 446.184 53.7102L447.156 53.983C447.053 54.3125 446.881 54.6023 446.64 54.8523C446.398 55.0994 446.1 55.2926 445.745 55.4318C445.39 55.5682 444.991 55.6364 444.548 55.6364Z" fill="black" fill-opacity="0.6"/>
<rect x="371.5" y="73" width="234" height="38" rx="19" stroke="black" stroke-opacity="0.05"/>
<path d="M476.472 87.7727V96.5H475.415V88.8807H475.364L473.233 90.2955V89.2216L475.415 87.7727H476.472ZM478.777 94.7102V93.8409L482.612 87.7727H483.243V89.1193H482.817L479.919 93.7045V93.7727H485.084V94.7102H478.777ZM482.885 96.5V94.446V94.0412V87.7727H483.891V96.5H482.885ZM487.431 95.3835C487.221 95.3835 487.04 95.3082 486.89 95.1577C486.739 95.0071 486.664 94.8267 486.664 94.6165C486.664 94.4062 486.739 94.2259 486.89 94.0753C487.04 93.9247 487.221 93.8494 487.431 93.8494C487.641 93.8494 487.821 93.9247 487.972 94.0753C488.123 94.2259 488.198 94.4062 488.198 94.6165C488.198 94.7557 488.162 94.8835 488.091 95C488.023 95.1165 487.931 95.2102 487.814 95.2812C487.701 95.3494 487.573 95.3835 487.431 95.3835ZM487.431 90.9688C487.221 90.9688 487.04 90.8935 486.89 90.7429C486.739 90.5923 486.664 90.4119 486.664 90.2017C486.664 89.9915 486.739 89.8111 486.89 89.6605C487.04 89.5099 487.221 89.4347 487.431 89.4347C487.641 89.4347 487.821 89.5099 487.972 89.6605C488.123 89.8111 488.198 89.9915 488.198 90.2017C488.198 90.3409 488.162 90.4688 488.091 90.5852C488.023 90.7017 487.931 90.7955 487.814 90.8665C487.701 90.9347 487.573 90.9688 487.431 90.9688ZM492.832 96.6193C492.19 96.6193 491.643 96.4446 491.191 96.0952C490.74 95.7429 490.395 95.233 490.156 94.5653C489.917 93.8949 489.798 93.0852 489.798 92.1364C489.798 91.1932 489.917 90.3878 490.156 89.7202C490.397 89.0497 490.744 88.5384 491.196 88.1861C491.65 87.831 492.196 87.6534 492.832 87.6534C493.468 87.6534 494.012 87.831 494.464 88.1861C494.919 88.5384 495.265 89.0497 495.504 89.7202C495.745 90.3878 495.866 91.1932 495.866 92.1364C495.866 93.0852 495.747 93.8949 495.508 94.5653C495.27 95.233 494.924 95.7429 494.473 96.0952C494.021 96.4446 493.474 96.6193 492.832 96.6193ZM492.832 95.6818C493.468 95.6818 493.963 95.375 494.315 94.7614C494.667 94.1477 494.843 93.2727 494.843 92.1364C494.843 91.3807 494.762 90.7372 494.6 90.206C494.441 89.6747 494.211 89.2699 493.91 88.9915C493.612 88.7131 493.252 88.5739 492.832 88.5739C492.201 88.5739 491.708 88.8849 491.353 89.5071C490.998 90.1264 490.821 91.0028 490.821 92.1364C490.821 92.892 490.9 93.5341 491.059 94.0625C491.218 94.5909 491.447 94.9929 491.745 95.2685C492.047 95.544 492.409 95.6818 492.832 95.6818ZM500.332 96.6193C499.69 96.6193 499.143 96.4446 498.691 96.0952C498.24 95.7429 497.895 95.233 497.656 94.5653C497.417 93.8949 497.298 93.0852 497.298 92.1364C497.298 91.1932 497.417 90.3878 497.656 89.7202C497.897 89.0497 498.244 88.5384 498.696 88.1861C499.15 87.831 499.696 87.6534 500.332 87.6534C500.968 87.6534 501.512 87.831 501.964 88.1861C502.419 88.5384 502.765 89.0497 503.004 89.7202C503.245 90.3878 503.366 91.1932 503.366 92.1364C503.366 93.0852 503.247 93.8949 503.008 94.5653C502.77 95.233 502.424 95.7429 501.973 96.0952C501.521 96.4446 500.974 96.6193 500.332 96.6193ZM500.332 95.6818C500.968 95.6818 501.463 95.375 501.815 94.7614C502.167 94.1477 502.343 93.2727 502.343 92.1364C502.343 91.3807 502.262 90.7372 502.1 90.206C501.941 89.6747 501.711 89.2699 501.41 88.9915C501.112 88.7131 500.752 88.5739 500.332 88.5739C499.701 88.5739 499.208 88.8849 498.853 89.5071C498.498 90.1264 498.321 91.0028 498.321 92.1364C498.321 92.892 498.4 93.5341 498.559 94.0625C498.718 94.5909 498.947 94.9929 499.245 95.2685C499.547 95.544 499.909 95.6818 500.332 95.6818Z" fill="#002868"/>
<rect x="371.5" y="122" width="234" height="38" rx="19" stroke="black" stroke-opacity="0.05"/>
<path d="M476.472 136.773V145.5H475.415V137.881H475.364L473.233 139.295V138.222L475.415 136.773H476.472ZM481.879 145.619C481.521 145.614 481.163 145.545 480.805 145.415C480.447 145.284 480.121 145.064 479.825 144.754C479.53 144.442 479.293 144.02 479.114 143.489C478.935 142.955 478.845 142.284 478.845 141.477C478.845 140.705 478.918 140.02 479.062 139.423C479.207 138.824 479.418 138.32 479.693 137.911C479.969 137.499 480.301 137.186 480.69 136.973C481.082 136.76 481.524 136.653 482.016 136.653C482.504 136.653 482.939 136.751 483.32 136.947C483.703 137.141 484.016 137.411 484.257 137.757C484.499 138.104 484.655 138.503 484.726 138.955H483.686C483.589 138.562 483.402 138.237 483.124 137.979C482.845 137.72 482.476 137.591 482.016 137.591C481.339 137.591 480.807 137.885 480.418 138.473C480.031 139.061 479.837 139.886 479.834 140.949H479.902C480.061 140.707 480.25 140.501 480.469 140.331C480.69 140.158 480.935 140.024 481.202 139.93C481.469 139.837 481.751 139.79 482.05 139.79C482.55 139.79 483.007 139.915 483.422 140.165C483.837 140.412 484.169 140.754 484.419 141.192C484.669 141.626 484.794 142.125 484.794 142.688C484.794 143.227 484.673 143.722 484.432 144.17C484.19 144.616 483.851 144.972 483.413 145.236C482.979 145.497 482.467 145.625 481.879 145.619ZM481.879 144.682C482.237 144.682 482.558 144.592 482.842 144.413C483.129 144.234 483.355 143.994 483.52 143.693C483.688 143.392 483.771 143.057 483.771 142.688C483.771 142.327 483.69 141.999 483.528 141.703C483.369 141.405 483.149 141.168 482.868 140.991C482.589 140.815 482.271 140.727 481.913 140.727C481.643 140.727 481.392 140.781 481.159 140.889C480.926 140.994 480.722 141.139 480.545 141.324C480.372 141.509 480.236 141.72 480.136 141.959C480.037 142.195 479.987 142.443 479.987 142.705C479.987 143.051 480.068 143.375 480.23 143.676C480.395 143.977 480.619 144.22 480.903 144.405C481.19 144.589 481.516 144.682 481.879 144.682ZM487.22 144.384C487.01 144.384 486.829 144.308 486.679 144.158C486.528 144.007 486.453 143.827 486.453 143.616C486.453 143.406 486.528 143.226 486.679 143.075C486.829 142.925 487.01 142.849 487.22 142.849C487.43 142.849 487.61 142.925 487.761 143.075C487.912 143.226 487.987 143.406 487.987 143.616C487.987 143.756 487.951 143.884 487.88 144C487.812 144.116 487.72 144.21 487.603 144.281C487.49 144.349 487.362 144.384 487.22 144.384ZM487.22 139.969C487.01 139.969 486.829 139.893 486.679 139.743C486.528 139.592 486.453 139.412 486.453 139.202C486.453 138.991 486.528 138.811 486.679 138.661C486.829 138.51 487.01 138.435 487.22 138.435C487.43 138.435 487.61 138.51 487.761 138.661C487.912 138.811 487.987 138.991 487.987 139.202C487.987 139.341 487.951 139.469 487.88 139.585C487.812 139.702 487.72 139.795 487.603 139.866C487.49 139.935 487.362 139.969 487.22 139.969ZM492.621 145.619C491.979 145.619 491.432 145.445 490.98 145.095C490.529 144.743 490.184 144.233 489.945 143.565C489.706 142.895 489.587 142.085 489.587 141.136C489.587 140.193 489.706 139.388 489.945 138.72C490.186 138.05 490.533 137.538 490.985 137.186C491.439 136.831 491.985 136.653 492.621 136.653C493.257 136.653 493.801 136.831 494.253 137.186C494.708 137.538 495.054 138.05 495.293 138.72C495.534 139.388 495.655 140.193 495.655 141.136C495.655 142.085 495.536 142.895 495.297 143.565C495.059 144.233 494.713 144.743 494.262 145.095C493.81 145.445 493.263 145.619 492.621 145.619ZM492.621 144.682C493.257 144.682 493.752 144.375 494.104 143.761C494.456 143.148 494.632 142.273 494.632 141.136C494.632 140.381 494.551 139.737 494.39 139.206C494.23 138.675 494 138.27 493.699 137.991C493.401 137.713 493.042 137.574 492.621 137.574C491.99 137.574 491.498 137.885 491.142 138.507C490.787 139.126 490.61 140.003 490.61 141.136C490.61 141.892 490.689 142.534 490.848 143.062C491.007 143.591 491.236 143.993 491.534 144.268C491.836 144.544 492.198 144.682 492.621 144.682ZM500.121 145.619C499.479 145.619 498.932 145.445 498.48 145.095C498.029 144.743 497.684 144.233 497.445 143.565C497.206 142.895 497.087 142.085 497.087 141.136C497.087 140.193 497.206 139.388 497.445 138.72C497.686 138.05 498.033 137.538 498.485 137.186C498.939 136.831 499.485 136.653 500.121 136.653C500.757 136.653 501.301 136.831 501.753 137.186C502.208 137.538 502.554 138.05 502.793 138.72C503.034 139.388 503.155 140.193 503.155 141.136C503.155 142.085 503.036 142.895 502.797 143.565C502.559 144.233 502.213 144.743 501.762 145.095C501.31 145.445 500.763 145.619 500.121 145.619ZM500.121 144.682C500.757 144.682 501.252 144.375 501.604 143.761C501.956 143.148 502.132 142.273 502.132 141.136C502.132 140.381 502.051 139.737 501.89 139.206C501.73 138.675 501.5 138.27 501.199 137.991C500.901 137.713 500.542 137.574 500.121 137.574C499.49 137.574 498.998 137.885 498.642 138.507C498.287 139.126 498.11 140.003 498.11 141.136C498.11 141.892 498.189 142.534 498.348 143.062C498.507 143.591 498.736 143.993 499.034 144.268C499.336 144.544 499.698 144.682 500.121 144.682Z" fill="#002868"/>
<rect x="371.5" y="171" width="234" height="38" rx="19" stroke="black" stroke-opacity="0.05"/>
<path d="M476.472 185.773V194.5H475.415V186.881H475.364L473.233 188.295V187.222L475.415 185.773H476.472ZM481.777 194.619C481.192 194.619 480.675 194.516 480.226 194.308C479.78 194.098 479.432 193.81 479.182 193.443C478.932 193.074 478.808 192.653 478.811 192.182C478.808 191.812 478.881 191.472 479.028 191.159C479.176 190.844 479.378 190.581 479.634 190.371C479.892 190.158 480.18 190.023 480.499 189.966V189.915C480.081 189.807 479.749 189.572 479.501 189.212C479.254 188.848 479.132 188.435 479.135 187.972C479.132 187.528 479.244 187.132 479.472 186.783C479.699 186.433 480.011 186.158 480.409 185.956C480.81 185.754 481.266 185.653 481.777 185.653C482.283 185.653 482.734 185.754 483.132 185.956C483.53 186.158 483.842 186.433 484.07 186.783C484.3 187.132 484.416 187.528 484.419 187.972C484.416 188.435 484.29 188.848 484.04 189.212C483.793 189.572 483.464 189.807 483.055 189.915V189.966C483.371 190.023 483.655 190.158 483.908 190.371C484.161 190.581 484.362 190.844 484.513 191.159C484.663 191.472 484.74 191.812 484.743 192.182C484.74 192.653 484.612 193.074 484.359 193.443C484.109 193.81 483.761 194.098 483.315 194.308C482.872 194.516 482.359 194.619 481.777 194.619ZM481.777 193.682C482.172 193.682 482.513 193.618 482.8 193.49C483.087 193.362 483.308 193.182 483.464 192.949C483.621 192.716 483.7 192.443 483.703 192.131C483.7 191.801 483.615 191.51 483.447 191.257C483.28 191.004 483.051 190.805 482.761 190.661C482.474 190.516 482.146 190.443 481.777 190.443C481.405 190.443 481.072 190.516 480.78 190.661C480.49 190.805 480.261 191.004 480.094 191.257C479.929 191.51 479.848 191.801 479.851 192.131C479.848 192.443 479.923 192.716 480.077 192.949C480.233 193.182 480.456 193.362 480.746 193.49C481.036 193.618 481.379 193.682 481.777 193.682ZM481.777 189.54C482.089 189.54 482.366 189.477 482.608 189.352C482.852 189.227 483.044 189.053 483.183 188.828C483.322 188.604 483.393 188.341 483.396 188.04C483.393 187.744 483.324 187.487 483.188 187.268C483.051 187.047 482.862 186.876 482.621 186.757C482.379 186.635 482.098 186.574 481.777 186.574C481.45 186.574 481.165 186.635 480.92 186.757C480.676 186.876 480.487 187.047 480.354 187.268C480.22 187.487 480.155 187.744 480.158 188.04C480.155 188.341 480.222 188.604 480.358 188.828C480.497 189.053 480.689 189.227 480.933 189.352C481.178 189.477 481.459 189.54 481.777 189.54ZM487.126 193.384C486.916 193.384 486.735 193.308 486.585 193.158C486.434 193.007 486.359 192.827 486.359 192.616C486.359 192.406 486.434 192.226 486.585 192.075C486.735 191.925 486.916 191.849 487.126 191.849C487.336 191.849 487.517 191.925 487.667 192.075C487.818 192.226 487.893 192.406 487.893 192.616C487.893 192.756 487.858 192.884 487.787 193C487.718 193.116 487.626 193.21 487.51 193.281C487.396 193.349 487.268 193.384 487.126 193.384ZM487.126 188.969C486.916 188.969 486.735 188.893 486.585 188.743C486.434 188.592 486.359 188.412 486.359 188.202C486.359 187.991 486.434 187.811 486.585 187.661C486.735 187.51 486.916 187.435 487.126 187.435C487.336 187.435 487.517 187.51 487.667 187.661C487.818 187.811 487.893 187.991 487.893 188.202C487.893 188.341 487.858 188.469 487.787 188.585C487.718 188.702 487.626 188.795 487.51 188.866C487.396 188.935 487.268 188.969 487.126 188.969ZM492.527 194.619C491.885 194.619 491.338 194.445 490.887 194.095C490.435 193.743 490.09 193.233 489.851 192.565C489.613 191.895 489.493 191.085 489.493 190.136C489.493 189.193 489.613 188.388 489.851 187.72C490.093 187.05 490.439 186.538 490.891 186.186C491.346 185.831 491.891 185.653 492.527 185.653C493.164 185.653 493.708 185.831 494.159 186.186C494.614 186.538 494.961 187.05 495.199 187.72C495.441 188.388 495.561 189.193 495.561 190.136C495.561 191.085 495.442 191.895 495.203 192.565C494.965 193.233 494.62 193.743 494.168 194.095C493.716 194.445 493.169 194.619 492.527 194.619ZM492.527 193.682C493.164 193.682 493.658 193.375 494.01 192.761C494.363 192.148 494.539 191.273 494.539 190.136C494.539 189.381 494.458 188.737 494.296 188.206C494.137 187.675 493.907 187.27 493.605 186.991C493.307 186.713 492.948 186.574 492.527 186.574C491.897 186.574 491.404 186.885 491.049 187.507C490.694 188.126 490.516 189.003 490.516 190.136C490.516 190.892 490.596 191.534 490.755 192.062C490.914 192.591 491.142 192.993 491.441 193.268C491.742 193.544 492.104 193.682 492.527 193.682ZM500.027 194.619C499.385 194.619 498.838 194.445 498.387 194.095C497.935 193.743 497.59 193.233 497.351 192.565C497.113 191.895 496.993 191.085 496.993 190.136C496.993 189.193 497.113 188.388 497.351 187.72C497.593 187.05 497.939 186.538 498.391 186.186C498.846 185.831 499.391 185.653 500.027 185.653C500.664 185.653 501.208 185.831 501.659 186.186C502.114 186.538 502.461 187.05 502.699 187.72C502.941 188.388 503.061 189.193 503.061 190.136C503.061 191.085 502.942 191.895 502.703 192.565C502.465 193.233 502.12 193.743 501.668 194.095C501.216 194.445 500.669 194.619 500.027 194.619ZM500.027 193.682C500.664 193.682 501.158 193.375 501.51 192.761C501.863 192.148 502.039 191.273 502.039 190.136C502.039 189.381 501.958 188.737 501.796 188.206C501.637 187.675 501.407 187.27 501.105 186.991C500.807 186.713 500.448 186.574 500.027 186.574C499.397 186.574 498.904 186.885 498.549 187.507C498.194 188.126 498.016 189.003 498.016 190.136C498.016 190.892 498.096 191.534 498.255 192.062C498.414 192.591 498.642 192.993 498.941 193.268C499.242 193.544 499.604 193.682 500.027 193.682Z" fill="#002868"/>
<rect x="371.5" y="220" width="234" height="38" rx="19" stroke="black" stroke-opacity="0.05"/>
<path d="M476.972 234.773V243.5H475.915V235.881H475.864L473.733 237.295V236.222L475.915 234.773H476.972ZM479.754 243.5L483.658 235.778V235.71H479.158V234.773H484.749V235.761L480.862 243.5H479.754ZM486.677 242.384C486.467 242.384 486.286 242.308 486.136 242.158C485.985 242.007 485.91 241.827 485.91 241.616C485.91 241.406 485.985 241.226 486.136 241.075C486.286 240.925 486.467 240.849 486.677 240.849C486.887 240.849 487.067 240.925 487.218 241.075C487.369 241.226 487.444 241.406 487.444 241.616C487.444 241.756 487.408 241.884 487.337 242C487.269 242.116 487.177 242.21 487.06 242.281C486.947 242.349 486.819 242.384 486.677 242.384ZM486.677 237.969C486.467 237.969 486.286 237.893 486.136 237.743C485.985 237.592 485.91 237.412 485.91 237.202C485.91 236.991 485.985 236.811 486.136 236.661C486.286 236.51 486.467 236.435 486.677 236.435C486.887 236.435 487.067 236.51 487.218 236.661C487.369 236.811 487.444 236.991 487.444 237.202C487.444 237.341 487.408 237.469 487.337 237.585C487.269 237.702 487.177 237.795 487.06 237.866C486.947 237.935 486.819 237.969 486.677 237.969ZM492.078 243.619C491.436 243.619 490.889 243.445 490.438 243.095C489.986 242.743 489.641 242.233 489.402 241.565C489.163 240.895 489.044 240.085 489.044 239.136C489.044 238.193 489.163 237.388 489.402 236.72C489.643 236.05 489.99 235.538 490.442 235.186C490.896 234.831 491.442 234.653 492.078 234.653C492.714 234.653 493.259 234.831 493.71 235.186C494.165 235.538 494.511 236.05 494.75 236.72C494.991 237.388 495.112 238.193 495.112 239.136C495.112 240.085 494.993 240.895 494.754 241.565C494.516 242.233 494.17 242.743 493.719 243.095C493.267 243.445 492.72 243.619 492.078 243.619ZM492.078 242.682C492.714 242.682 493.209 242.375 493.561 241.761C493.913 241.148 494.089 240.273 494.089 239.136C494.089 238.381 494.009 237.737 493.847 237.206C493.688 236.675 493.457 236.27 493.156 235.991C492.858 235.713 492.499 235.574 492.078 235.574C491.447 235.574 490.955 235.885 490.599 236.507C490.244 237.126 490.067 238.003 490.067 239.136C490.067 239.892 490.146 240.534 490.305 241.062C490.464 241.591 490.693 241.993 490.991 242.268C491.293 242.544 491.655 242.682 492.078 242.682ZM499.578 243.619C498.936 243.619 498.389 243.445 497.938 243.095C497.486 242.743 497.141 242.233 496.902 241.565C496.663 240.895 496.544 240.085 496.544 239.136C496.544 238.193 496.663 237.388 496.902 236.72C497.143 236.05 497.49 235.538 497.942 235.186C498.396 234.831 498.942 234.653 499.578 234.653C500.214 234.653 500.759 234.831 501.21 235.186C501.665 235.538 502.011 236.05 502.25 236.72C502.491 237.388 502.612 238.193 502.612 239.136C502.612 240.085 502.493 240.895 502.254 241.565C502.016 242.233 501.67 242.743 501.219 243.095C500.767 243.445 500.22 243.619 499.578 243.619ZM499.578 242.682C500.214 242.682 500.709 242.375 501.061 241.761C501.413 241.148 501.589 240.273 501.589 239.136C501.589 238.381 501.509 237.737 501.347 237.206C501.188 236.675 500.957 236.27 500.656 235.991C500.358 235.713 499.999 235.574 499.578 235.574C498.947 235.574 498.455 235.885 498.099 236.507C497.744 237.126 497.567 238.003 497.567 239.136C497.567 239.892 497.646 240.534 497.805 241.062C497.964 241.591 498.193 241.993 498.491 242.268C498.793 242.544 499.155 242.682 499.578 242.682Z" fill="#002868"/>
<rect x="371.5" y="269" width="234" height="38" rx="19" stroke="black" stroke-opacity="0.05"/>
<path d="M476.472 283.773V292.5H475.415V284.881H475.364L473.233 286.295V285.222L475.415 283.773H476.472ZM481.777 292.619C481.192 292.619 480.675 292.516 480.226 292.308C479.78 292.098 479.432 291.81 479.182 291.443C478.932 291.074 478.808 290.653 478.811 290.182C478.808 289.812 478.881 289.472 479.028 289.159C479.176 288.844 479.378 288.581 479.634 288.371C479.892 288.158 480.18 288.023 480.499 287.966V287.915C480.081 287.807 479.749 287.572 479.501 287.212C479.254 286.848 479.132 286.435 479.135 285.972C479.132 285.528 479.244 285.132 479.472 284.783C479.699 284.433 480.011 284.158 480.409 283.956C480.81 283.754 481.266 283.653 481.777 283.653C482.283 283.653 482.734 283.754 483.132 283.956C483.53 284.158 483.842 284.433 484.07 284.783C484.3 285.132 484.416 285.528 484.419 285.972C484.416 286.435 484.29 286.848 484.04 287.212C483.793 287.572 483.464 287.807 483.055 287.915V287.966C483.371 288.023 483.655 288.158 483.908 288.371C484.161 288.581 484.362 288.844 484.513 289.159C484.663 289.472 484.74 289.812 484.743 290.182C484.74 290.653 484.612 291.074 484.359 291.443C484.109 291.81 483.761 292.098 483.315 292.308C482.872 292.516 482.359 292.619 481.777 292.619ZM481.777 291.682C482.172 291.682 482.513 291.618 482.8 291.49C483.087 291.362 483.308 291.182 483.464 290.949C483.621 290.716 483.7 290.443 483.703 290.131C483.7 289.801 483.615 289.51 483.447 289.257C483.28 289.004 483.051 288.805 482.761 288.661C482.474 288.516 482.146 288.443 481.777 288.443C481.405 288.443 481.072 288.516 480.78 288.661C480.49 288.805 480.261 289.004 480.094 289.257C479.929 289.51 479.848 289.801 479.851 290.131C479.848 290.443 479.923 290.716 480.077 290.949C480.233 291.182 480.456 291.362 480.746 291.49C481.036 291.618 481.379 291.682 481.777 291.682ZM481.777 287.54C482.089 287.54 482.366 287.477 482.608 287.352C482.852 287.227 483.044 287.053 483.183 286.828C483.322 286.604 483.393 286.341 483.396 286.04C483.393 285.744 483.324 285.487 483.188 285.268C483.051 285.047 482.862 284.876 482.621 284.757C482.379 284.635 482.098 284.574 481.777 284.574C481.45 284.574 481.165 284.635 480.92 284.757C480.676 284.876 480.487 285.047 480.354 285.268C480.22 285.487 480.155 285.744 480.158 286.04C480.155 286.341 480.222 286.604 480.358 286.828C480.497 287.053 480.689 287.227 480.933 287.352C481.178 287.477 481.459 287.54 481.777 287.54ZM487.126 291.384C486.916 291.384 486.735 291.308 486.585 291.158C486.434 291.007 486.359 290.827 486.359 290.616C486.359 290.406 486.434 290.226 486.585 290.075C486.735 289.925 486.916 289.849 487.126 289.849C487.336 289.849 487.517 289.925 487.667 290.075C487.818 290.226 487.893 290.406 487.893 290.616C487.893 290.756 487.858 290.884 487.787 291C487.718 291.116 487.626 291.21 487.51 291.281C487.396 291.349 487.268 291.384 487.126 291.384ZM487.126 286.969C486.916 286.969 486.735 286.893 486.585 286.743C486.434 286.592 486.359 286.412 486.359 286.202C486.359 285.991 486.434 285.811 486.585 285.661C486.735 285.51 486.916 285.435 487.126 285.435C487.336 285.435 487.517 285.51 487.667 285.661C487.818 285.811 487.893 285.991 487.893 286.202C487.893 286.341 487.858 286.469 487.787 286.585C487.718 286.702 487.626 286.795 487.51 286.866C487.396 286.935 487.268 286.969 487.126 286.969ZM492.527 292.619C491.885 292.619 491.338 292.445 490.887 292.095C490.435 291.743 490.09 291.233 489.851 290.565C489.613 289.895 489.493 289.085 489.493 288.136C489.493 287.193 489.613 286.388 489.851 285.72C490.093 285.05 490.439 284.538 490.891 284.186C491.346 283.831 491.891 283.653 492.527 283.653C493.164 283.653 493.708 283.831 494.159 284.186C494.614 284.538 494.961 285.05 495.199 285.72C495.441 286.388 495.561 287.193 495.561 288.136C495.561 289.085 495.442 289.895 495.203 290.565C494.965 291.233 494.62 291.743 494.168 292.095C493.716 292.445 493.169 292.619 492.527 292.619ZM492.527 291.682C493.164 291.682 493.658 291.375 494.01 290.761C494.363 290.148 494.539 289.273 494.539 288.136C494.539 287.381 494.458 286.737 494.296 286.206C494.137 285.675 493.907 285.27 493.605 284.991C493.307 284.713 492.948 284.574 492.527 284.574C491.897 284.574 491.404 284.885 491.049 285.507C490.694 286.126 490.516 287.003 490.516 288.136C490.516 288.892 490.596 289.534 490.755 290.062C490.914 290.591 491.142 290.993 491.441 291.268C491.742 291.544 492.104 291.682 492.527 291.682ZM500.027 292.619C499.385 292.619 498.838 292.445 498.387 292.095C497.935 291.743 497.59 291.233 497.351 290.565C497.113 289.895 496.993 289.085 496.993 288.136C496.993 287.193 497.113 286.388 497.351 285.72C497.593 285.05 497.939 284.538 498.391 284.186C498.846 283.831 499.391 283.653 500.027 283.653C500.664 283.653 501.208 283.831 501.659 284.186C502.114 284.538 502.461 285.05 502.699 285.72C502.941 286.388 503.061 287.193 503.061 288.136C503.061 289.085 502.942 289.895 502.703 290.565C502.465 291.233 502.12 291.743 501.668 292.095C501.216 292.445 500.669 292.619 500.027 292.619ZM500.027 291.682C500.664 291.682 501.158 291.375 501.51 290.761C501.863 290.148 502.039 289.273 502.039 288.136C502.039 287.381 501.958 286.737 501.796 286.206C501.637 285.675 501.407 285.27 501.105 284.991C500.807 284.713 500.448 284.574 500.027 284.574C499.397 284.574 498.904 284.885 498.549 285.507C498.194 286.126 498.016 287.003 498.016 288.136C498.016 288.892 498.096 289.534 498.255 290.062C498.414 290.591 498.642 290.993 498.941 291.268C499.242 291.544 499.604 291.682 500.027 291.682Z" fill="#002868"/>
</svg>
