<svg width="29" height="28" viewBox="0 0 29 28" fill="none" xmlns="http://www.w3.org/2000/svg">
<path d="M14.5 23.9167H8.66665C5.16665 23.9167 2.83331 22.1667 2.83331 18.0834V9.91671C2.83331 5.83337 5.16665 4.08337 8.66665 4.08337H20.3333C23.8333 4.08337 26.1666 5.83337 26.1666 9.91671V13.4167" stroke="black" stroke-opacity="0.6" stroke-width="1.5" stroke-miterlimit="10" stroke-linecap="round" stroke-linejoin="round"/>
<path d="M20.3334 10.5L16.6817 13.4167C15.48 14.3733 13.5083 14.3733 12.3067 13.4167L8.66669 10.5" stroke="black" stroke-opacity="0.6" stroke-width="1.5" stroke-miterlimit="10" stroke-linecap="round" stroke-linejoin="round"/>
<path d="M22.9117 17.2316L18.7817 21.3616C18.6184 21.525 18.4667 21.8283 18.4317 22.05L18.21 23.625C18.1283 24.1966 18.525 24.5933 19.0967 24.5116L20.6717 24.29C20.8933 24.255 21.2083 24.1033 21.36 23.94L25.49 19.81C26.2017 19.0983 26.54 18.27 25.49 17.22C24.4517 16.1816 23.6233 16.52 22.9117 17.2316Z" stroke="black" stroke-opacity="0.6" stroke-width="1.5" stroke-miterlimit="10" stroke-linecap="round" stroke-linejoin="round"/>
<path d="M22.3167 17.8267C22.6667 19.0867 23.6467 20.0667 24.9067 20.4167" stroke="black" stroke-opacity="0.6" stroke-width="1.5" stroke-miterlimit="10" stroke-linecap="round" stroke-linejoin="round"/>
</svg>
